<?xml version="1.0" encoding="UTF-8" standalone="no"?>
<!-- Created with Inkscape (http://www.inkscape.org/) -->

<svg
   xmlns:dc="http://purl.org/dc/elements/1.1/"
   xmlns:cc="http://creativecommons.org/ns#"
   xmlns:rdf="http://www.w3.org/1999/02/22-rdf-syntax-ns#"
   xmlns:svg="http://www.w3.org/2000/svg"
   xmlns="http://www.w3.org/2000/svg"
   xmlns:sodipodi="http://sodipodi.sourceforge.net/DTD/sodipodi-0.dtd"
   xmlns:inkscape="http://www.inkscape.org/namespaces/inkscape"
   width="200"
   height="200"
   viewBox="0 0 52.916666 52.916666"
   version="1.1"
   id="svg8"
   inkscape:version="0.92.3 (2405546, 2018-03-11)"
   sodipodi:docname="qa.svg"
   inkscape:export-filename="/home/joshua/qa.svg.png"
   inkscape:export-xdpi="96"
   inkscape:export-ydpi="96">
  <defs
     id="defs2" />
  <sodipodi:namedview
     id="base"
     pagecolor="#ffffff"
     bordercolor="#666666"
     borderopacity="1.0"
     inkscape:pageopacity="0.0"
     inkscape:pageshadow="2"
     inkscape:zoom="1.979899"
     inkscape:cx="-54.49286"
     inkscape:cy="107.44494"
     inkscape:document-units="mm"
     inkscape:current-layer="layer1"
     showgrid="false"
     units="px"
     inkscape:window-width="927"
     inkscape:window-height="1025"
     inkscape:window-x="67"
     inkscape:window-y="27"
     inkscape:window-maximized="0" />
  <metadata
     id="metadata5">
    <rdf:RDF>
      <cc:Work
         rdf:about="">
        <dc:format>image/svg+xml</dc:format>
        <dc:type
           rdf:resource="http://purl.org/dc/dcmitype/StillImage" />
        <dc:title></dc:title>
      </cc:Work>
    </rdf:RDF>
  </metadata>
  <g
     inkscape:label="Layer 1"
     inkscape:groupmode="layer"
     id="layer1"
     transform="translate(0,-244.08334)">
    <path
       style="fill:#000000;stroke-width:0.14653155"
       d="m 25.379359,284.32178 c -0.94254,-0.47774 -1.126374,-0.91325 -1.474266,-3.49257 -0.167421,-1.24129 -0.32439,-2.27688 -0.348819,-2.3013 -0.05354,-0.0536 -0.154423,0.51005 -0.387945,2.16722 -0.15413,1.09378 -0.233511,1.30353 -0.651586,1.72174 -0.318232,0.31834 -0.616943,0.47623 -0.90096,0.47623 -0.468032,0 -16.4929645,-2.27476 -17.1023015,-2.42769 -0.5605298,-0.14068 -1.1116264,-0.86891 -1.1116264,-1.46892 0,-0.51827 2.2925947,-16.63937 2.430041,-17.0876 0.1612811,-0.52596 0.929101,-0.99553 1.6278434,-0.99553 0.3658452,0 3.6017385,0.42861 7.1908755,0.95246 3.589135,0.52385 6.590226,0.95246 6.66909,0.95246 0.08821,0 0.106069,-0.32985 0.04642,-0.85709 -0.05803,-0.5129 -0.03246,-1.02779 0.06366,-1.28215 0.22182,-0.58699 0.834988,-1.19646 1.37504,-1.36677 0.889677,-0.28055 21.767713,-2.97488 22.291127,-2.87669 0.61479,0.11534 1.470895,0.92333 1.59128,1.50186 0.294934,1.41736 2.883751,21.61227 2.826649,22.05021 -0.08114,0.62228 -0.447267,1.16936 -1.005613,1.50263 -0.264353,0.15779 -2.693189,0.54178 -7.47311,1.18148 -3.894809,0.52125 -8.795891,1.17943 -10.891292,1.46262 -2.095401,0.2832 -3.878273,0.5154 -3.961937,0.516 -0.08366,5.6e-4 -0.444821,-0.14727 -0.80257,-0.3286 z m 15.15042,-3.39908 c 3.858628,-0.51657 7.07291,-0.99645 7.14285,-1.06639 0.165689,-0.16569 -2.638814,-21.30453 -2.85707,-21.53507 -0.127095,-0.13424 -2.558306,0.14445 -10.568809,1.21152 -5.722057,0.76223 -10.552104,1.41891 -10.733437,1.4593 -0.235664,0.0525 -0.329696,0.17913 -0.329696,0.44408 0,0.88008 2.797187,21.22795 2.929402,21.30967 0.08044,0.0497 1.778592,-0.12882 3.773667,-0.39675 1.995074,-0.26792 6.784465,-0.90978 10.643093,-1.42636 z m -18.249157,-3.78162 0.581834,-4.0669 -0.582288,-4.35666 c -0.320258,-2.39616 -0.605554,-4.37993 -0.633988,-4.40836 -0.08534,-0.0853 -14.1982973,-2.08248 -14.3525908,-2.03105 -0.207084,0.069 -2.5748057,16.55026 -2.403734,16.7319 0.2354863,0.25005 16.4342348,2.54809 16.6355238,2.36001 0.09537,-0.0891 0.435233,-1.99214 0.755243,-4.22894 z"
       id="path3724"
       inkscape:connector-curvature="0"
       sodipodi:nodetypes="sscccsssssssccccscccccscccscscccscsccccs" />
    <text
       xml:space="preserve"
       style="font-style:normal;font-weight:normal;font-size:19.82813454px;line-height:1.25;font-family:sans-serif;letter-spacing:0px;word-spacing:0px;fill:#000000;fill-opacity:1;stroke:none;stroke-width:0.49570331"
       x="-2.6172237"
       y="279.61371"
       id="text3728"
       transform="rotate(-6.6989976)"><tspan
         sodipodi:role="line"
         id="tspan3726"
         x="-2.6172237"
         y="279.61371"
         style="font-style:normal;font-variant:normal;font-weight:normal;font-stretch:normal;font-family:Garuda;-inkscape-font-specification:Garuda;stroke-width:0.49570331">A</tspan></text>
    <text
       xml:space="preserve"
       style="font-style:normal;font-weight:normal;font-size:13.81046963px;line-height:1.25;font-family:sans-serif;letter-spacing:0px;word-spacing:0px;fill:#000000;fill-opacity:1;stroke:none;stroke-width:0.34526175"
       x="75.952934"
       y="264.67258"
       id="text3728-0"
       transform="rotate(14.308182)"><tspan
         sodipodi:role="line"
         id="tspan3726-3"
         x="75.952934"
         y="264.67258"
         style="font-style:normal;font-variant:normal;font-weight:normal;font-stretch:normal;font-family:Garuda;-inkscape-font-specification:Garuda;stroke-width:0.34526175">Q</tspan></text>
  </g>
</svg>
