<?xml version="1.0" encoding="UTF-8" standalone="no"?>
<!-- Created with Inkscape (http://www.inkscape.org/) -->

<svg
   xmlns:dc="http://purl.org/dc/elements/1.1/"
   xmlns:cc="http://creativecommons.org/ns#"
   xmlns:rdf="http://www.w3.org/1999/02/22-rdf-syntax-ns#"
   xmlns:svg="http://www.w3.org/2000/svg"
   xmlns="http://www.w3.org/2000/svg"
   xmlns:sodipodi="http://sodipodi.sourceforge.net/DTD/sodipodi-0.dtd"
   xmlns:inkscape="http://www.inkscape.org/namespaces/inkscape"
   width="200"
   height="200"
   viewBox="0 0 52.916665 52.916668"
   version="1.1"
   id="svg8"
   inkscape:export-filename="/home/joshua/bitmap.png"
   inkscape:export-xdpi="96"
   inkscape:export-ydpi="96"
   inkscape:version="0.92.3 (2405546, 2018-03-11)"
   sodipodi:docname="users.svg">
  <defs
     id="defs2" />
  <sodipodi:namedview
     id="base"
     pagecolor="#ffffff"
     bordercolor="#666666"
     borderopacity="1.0"
     inkscape:pageopacity="0.0"
     inkscape:pageshadow="2"
     inkscape:zoom="1.4"
     inkscape:cx="73.880797"
     inkscape:cy="189.40976"
     inkscape:document-units="mm"
     inkscape:current-layer="layer1"
     showgrid="false"
     units="px"
     inkscape:window-width="1853"
     inkscape:window-height="1025"
     inkscape:window-x="67"
     inkscape:window-y="27"
     inkscape:window-maximized="1" />
  <metadata
     id="metadata5">
    <rdf:RDF>
      <cc:Work
         rdf:about="">
        <dc:format>image/svg+xml</dc:format>
        <dc:type
           rdf:resource="http://purl.org/dc/dcmitype/StillImage" />
        <dc:title></dc:title>
      </cc:Work>
    </rdf:RDF>
  </metadata>
  <g
     inkscape:label="Layer 1"
     inkscape:groupmode="layer"
     id="layer1"
     transform="translate(0,-244.08332)">
    <g
       id="g68"
       transform="matrix(0.51694482,0,0,0.51694482,5.7469391,249.83052)">
      <g
         id="g12">
	<path
   id="path10"
   d="m 48.355,17.922 c 3.705,2.323 6.303,6.254 6.776,10.817 1.511,0.706 3.188,1.112 4.966,1.112 6.491,0 11.752,-5.261 11.752,-11.751 0,-6.491 -5.261,-11.752 -11.752,-11.752 -6.429,0.002 -11.644,5.169 -11.742,11.574 z m -7.699,24.062 c 6.491,0 11.752,-5.262 11.752,-11.752 0,-6.49 -5.262,-11.751 -11.752,-11.751 -6.49,0 -11.754,5.262 -11.754,11.752 0,6.49 5.264,11.751 11.754,11.751 z m 4.985,0.801 h -9.972 c -8.297,0 -15.047,6.751 -15.047,15.048 v 12.195 l 0.031,0.191 0.84,0.263 c 7.918,2.474 14.797,3.299 20.459,3.299 11.059,0 17.469,-3.153 17.864,-3.354 l 0.785,-0.397 h 0.084 V 57.833 C 60.688,49.536 53.938,42.785 45.641,42.785 Z M 65.084,30.653 h -9.895 c -0.107,3.959 -1.797,7.524 -4.47,10.088 7.375,2.193 12.771,9.032 12.771,17.11 v 3.758 c 9.77,-0.358 15.4,-3.127 15.771,-3.313 l 0.785,-0.398 H 80.13 V 45.699 c 0,-8.296 -6.75,-15.046 -15.046,-15.046 z m -45.049,-0.8 c 2.299,0 4.438,-0.671 6.25,-1.814 0.576,-3.757 2.59,-7.04 5.467,-9.276 0.012,-0.22 0.033,-0.438 0.033,-0.66 0,-6.491 -5.262,-11.752 -11.75,-11.752 -6.492,0 -11.752,5.261 -11.752,11.752 0,6.488 5.26,11.75 11.752,11.75 z M 30.589,40.741 C 27.929,38.19 26.245,34.644 26.122,30.709 25.755,30.682 25.392,30.653 25.018,30.653 H 15.047 C 6.75,30.653 0,37.403 0,45.699 v 12.197 l 0.031,0.188 0.84,0.265 c 6.352,1.983 12.021,2.897 16.945,3.185 v -3.683 c 0.002,-8.078 5.396,-14.915 12.773,-17.11 z"
   inkscape:connector-curvature="0" />

</g>
      <g
         id="g14">
</g>
      <g
         id="g16">
</g>
      <g
         id="g18">
</g>
      <g
         id="g20">
</g>
      <g
         id="g22">
</g>
      <g
         id="g24">
</g>
      <g
         id="g26">
</g>
      <g
         id="g28">
</g>
      <g
         id="g30">
</g>
      <g
         id="g32">
</g>
      <g
         id="g34">
</g>
      <g
         id="g36">
</g>
      <g
         id="g38">
</g>
      <g
         id="g40">
</g>
      <g
         id="g42">
</g>
    </g>
  </g>
</svg>
