<?xml version="1.0" encoding="UTF-8" standalone="no"?>
<svg version="1.1" xmlns="http://www.w3.org/2000/svg" xmlns:xlink="http://www.w3.org/1999/xlink" width="884" height="588">
	<g id="dp_dp001" transform="matrix(1,0,0,1,-361.996,-397.172)">
		<path id="dp_path002" fill="#0064b0" fill-rule="evenodd" stroke="none" stroke-width="0" d="M 365.149,784.363 C 363.408,783.357 363.219,781.837 364.727,780.967 L 893.065,475.929 C 894.573,475.059 897.205,475.168 898.947,476.173 L 1242.84,674.723 C 1244.59,675.728 1244.77,677.248 1243.27,678.119 L 714.928,983.156 C 713.42,984.027 710.788,983.917 709.047,982.912 Z "/>
		<path id="dp_path003" fill="#004a83" fill-rule="evenodd" stroke="none" stroke-width="0" d="M 365.5,763.437 C 363.565,762.32 363.355,760.631 365.031,759.663 L 892.761,454.977 C 894.437,454.009 897.363,454.131 899.297,455.248 L 1242.49,653.392 C 1244.43,654.509 1244.64,656.199 1242.96,657.167 L 715.232,961.852 C 713.556,962.82 710.631,962.699 708.696,961.581 Z "/>
		<path id="dp_path004" fill="#f3f3f3" fill-rule="evenodd" stroke="none" stroke-width="0" d="M 365.5,739.953 C 363.565,738.836 363.355,737.147 365.031,736.179 L 892.761,431.493 C 894.437,430.525 897.363,430.647 899.297,431.764 L 1242.49,629.908 C 1244.43,631.025 1244.64,632.715 1242.96,633.683 L 715.232,938.368 C 713.556,939.336 710.631,939.215 708.696,938.097 Z "/>
		<path id="dp_path005" fill="black" fill-rule="evenodd" fill-opacity="0.0588235" stroke="none" stroke-width="0" d="M 364.848,739.519 C 363.273,738.609 363.103,737.233 364.467,736.445 L 893.325,431.109 C 894.689,430.321 897.072,430.42 898.647,431.329 L 922.649,445.188 C 924.224,446.097 924.396,447.473 923.032,448.26 L 394.173,753.597 C 392.809,754.384 390.425,754.285 388.851,753.376 Z "/>
		<path id="dp_path006" fill="#0083b3" fill-rule="evenodd" stroke="none" stroke-width="0" d="M 365.272,707.187 C 363.525,706.179 363.335,704.653 364.848,703.78 L 893.168,398.753 C 894.681,397.88 897.323,397.991 899.069,398.999 L 929.512,416.575 C 931.259,417.583 931.449,419.108 929.936,419.981 L 401.616,725.008 C 400.103,725.881 397.461,725.772 395.715,724.763 Z "/>
		<path id="dp_path007" fill="black" fill-rule="evenodd" fill-opacity="0.0901961" stroke="none" stroke-width="0" d="M 460.287,748.549 C 466.521,744.949 476.631,744.949 482.867,748.549 C 489.103,752.149 489.103,757.987 482.868,761.587 C 476.632,765.187 466.523,765.187 460.287,761.587 C 454.051,757.987 454.051,752.149 460.287,748.549 Z "/>
		<path id="dp_path008" fill="#0080f4" fill-rule="evenodd" stroke="none" stroke-width="0" d="M 460.287,730.249 C 466.521,726.649 476.631,726.649 482.867,730.249 C 489.103,733.849 489.103,739.687 482.868,743.287 C 476.632,746.887 466.523,746.887 460.287,743.287 C 454.051,739.687 454.051,733.849 460.287,730.249 Z "/>
		<path id="dp_path009" fill="#8e8e8e" fill-rule="evenodd" stroke="none" stroke-width="0" d="M 497.152,720.393 C 493.752,718.429 493.383,715.461 496.327,713.761 L 665.353,616.173 C 668.297,614.473 673.44,614.687 676.84,616.649 C 680.24,618.612 680.609,621.581 677.665,623.281 L 508.639,720.869 C 505.695,722.569 500.552,722.356 497.152,720.393 Z "/>
		<path id="dp_path010" fill="black" fill-rule="evenodd" fill-opacity="0.0980392" stroke="none" stroke-width="0" d="M 497.152,742.811 C 493.752,740.847 493.383,737.879 496.327,736.179 L 665.353,638.591 C 668.297,636.891 673.44,637.104 676.84,639.067 C 680.24,641.029 680.609,643.999 677.665,645.699 L 508.639,743.287 C 505.695,744.987 500.552,744.773 497.152,742.811 Z "/>
		<path id="dp_path011" fill="black" fill-rule="evenodd" fill-opacity="0.0901961" stroke="none" stroke-width="0" d="M 654.064,869.144 C 660.299,865.544 670.408,865.544 676.644,869.144 C 682.88,872.744 682.88,878.581 676.645,882.181 C 670.409,885.781 660.3,885.781 654.064,882.181 C 647.828,878.581 647.828,872.744 654.064,869.144 Z "/>
		<path id="dp_path012" fill="#0080f4" fill-rule="evenodd" stroke="none" stroke-width="0" d="M 654.064,850.844 C 660.299,847.244 670.408,847.244 676.644,850.844 C 682.88,854.444 682.88,860.281 676.645,863.881 C 670.409,867.481 660.3,867.481 654.064,863.881 C 647.828,860.281 647.828,854.444 654.064,850.844 Z "/>
		<path id="dp_path013" fill="#8e8e8e" fill-rule="evenodd" stroke="none" stroke-width="0" d="M 690.929,840.989 C 687.529,839.025 687.16,836.056 690.104,834.356 L 809.151,765.625 C 812.095,763.925 817.237,764.139 820.637,766.101 L 820.636,766.1 C 824.036,768.064 824.405,771.033 821.461,772.733 L 702.415,841.464 C 699.471,843.164 694.328,842.951 690.928,840.988 Z "/>
		<path id="dp_path014" fill="black" fill-rule="evenodd" fill-opacity="0.0980392" stroke="none" stroke-width="0" d="M 690.929,863.407 C 687.529,861.443 687.16,858.475 690.104,856.775 L 810.517,787.253 C 813.463,785.553 818.605,785.767 822.005,787.729 L 822.004,787.729 C 825.404,789.692 825.773,792.661 822.828,794.361 L 702.415,863.881 C 699.471,865.581 694.328,865.368 690.928,863.405 Z "/>
		<path id="dp_path015" fill="#282828" fill-rule="evenodd" fill-opacity="0.101961" stroke="none" stroke-width="0" d="M 541.845,777.379 C 539.208,775.856 538.921,773.552 541.205,772.233 L 699.784,680.677 C 702.068,679.359 706.059,679.524 708.696,681.047 L 718.96,686.973 C 721.597,688.496 721.884,690.8 719.6,692.119 L 561.021,783.673 C 558.737,784.992 554.747,784.827 552.109,783.304 Z "/>
		<path id="dp_path016" fill="white" fill-rule="evenodd" stroke="#a3a3a3" stroke-width="1.33333" d="M 541.845,755.379 C 539.208,753.856 538.921,751.552 541.205,750.233 L 699.784,658.677 C 702.068,657.359 706.059,657.524 708.696,659.047 L 718.96,664.973 C 721.597,666.496 721.884,668.8 719.6,670.119 L 561.021,761.673 C 558.737,762.992 554.747,762.827 552.109,761.304 Z "/>
		<path id="dp_path017" fill="#282828" fill-rule="evenodd" fill-opacity="0.101961" stroke="none" stroke-width="0" d="M 586.645,803.632 C 584.008,802.109 583.721,799.805 586.005,798.487 L 744.584,706.931 C 746.868,705.612 750.859,705.777 753.496,707.3 L 763.76,713.227 C 766.397,714.749 766.684,717.053 764.4,718.372 L 605.821,809.927 C 603.537,811.245 599.547,811.08 596.909,809.557 Z "/>
		<path id="dp_path018" fill="white" fill-rule="evenodd" stroke="#a3a3a3" stroke-width="1.33333" d="M 586.645,781.632 C 584.008,780.109 583.721,777.805 586.005,776.487 L 744.584,684.931 C 746.868,683.612 750.859,683.777 753.496,685.3 L 763.76,691.227 C 766.397,692.749 766.684,695.053 764.4,696.372 L 605.821,787.927 C 603.537,789.245 599.547,789.08 596.909,787.557 Z "/>
		<path id="dp_path019" fill="#282828" fill-rule="evenodd" fill-opacity="0.101961" stroke="none" stroke-width="0" d="M 634.645,832.511 C 632.008,830.988 631.721,828.684 634.005,827.365 L 792.584,735.809 C 794.868,734.491 798.859,734.656 801.496,736.179 L 811.76,742.105 C 814.397,743.628 814.684,745.932 812.4,747.251 L 653.821,838.805 C 651.537,840.124 647.547,839.959 644.909,838.436 Z "/>
		<path id="dp_path020" fill="white" fill-rule="evenodd" stroke="#a3a3a3" stroke-width="1.33333" d="M 634.645,810.511 C 632.008,808.988 631.721,806.684 634.005,805.365 L 792.584,713.809 C 794.868,712.491 798.859,712.656 801.496,714.179 L 811.76,720.105 C 814.397,721.628 814.684,723.932 812.4,725.251 L 653.821,816.805 C 651.537,818.124 647.547,817.959 644.909,816.436 Z "/>
		<path id="dp_path021" fill="#282828" fill-rule="evenodd" fill-opacity="0.101961" stroke="none" stroke-width="0" d="M 721.543,890.625 C 718.905,889.103 718.619,886.799 720.903,885.48 L 879.481,793.924 C 881.765,792.605 885.756,792.771 888.393,794.293 L 898.657,800.22 C 901.295,801.743 901.581,804.047 899.297,805.365 L 740.719,896.92 C 738.435,898.239 734.444,898.073 731.807,896.551 Z "/>
		<path id="dp_path022" fill="white" fill-rule="evenodd" stroke="#a3a3a3" stroke-width="1.33333" d="M 721.543,868.625 C 718.905,867.103 718.619,864.799 720.903,863.48 L 879.481,771.924 C 881.765,770.605 885.756,770.771 888.393,772.293 L 898.657,778.22 C 901.295,779.743 901.581,782.047 899.297,783.365 L 740.719,874.92 C 738.435,876.239 734.444,876.073 731.807,874.551 Z "/>
		<path id="dp_path023" fill="black" fill-rule="evenodd" fill-opacity="0.101961" stroke="none" stroke-width="0" d="M 771.307,588.491 C 766.496,585.713 765.975,581.511 770.14,579.105 L 905.929,500.708 C 910.096,498.303 917.373,498.604 922.184,501.381 L 1155.49,636.079 C 1160.3,638.856 1160.82,643.057 1156.65,645.463 L 1020.86,723.861 C 1016.7,726.267 1009.42,725.964 1004.61,723.187 Z "/>
		<path id="dp_path024" fill="#0083b3" fill-rule="evenodd" stroke="none" stroke-width="0" d="M 771.307,561.291 C 766.496,558.513 765.975,554.311 770.14,551.905 L 905.929,473.508 C 910.096,471.103 917.373,471.404 922.184,474.181 L 1155.49,608.879 C 1160.3,611.656 1160.82,615.857 1156.65,618.263 L 1020.86,696.661 C 1016.7,699.067 1009.42,698.764 1004.61,695.987 Z "/>
		<path id="dp_path025" fill="#85e0ff" fill-rule="evenodd" stroke="none" stroke-width="0" d="M 808.093,556.792 C 805.587,555.345 805.315,553.157 807.484,551.905 L 932.145,479.98 C 934.315,478.728 938.108,478.887 940.615,480.332 C 943.121,481.779 943.395,483.967 941.224,485.219 L 816.564,557.143 C 814.393,558.395 810.6,558.237 808.093,556.792 Z "/>
		<path id="dp_path026" fill="black" fill-rule="evenodd" fill-opacity="0.0980392" stroke="none" stroke-width="0" d="M 808.093,573.313 C 805.587,571.867 805.315,569.679 807.484,568.427 L 932.145,496.503 C 934.315,495.251 938.108,495.408 940.615,496.853 C 943.121,498.3 943.395,500.488 941.224,501.74 L 816.564,573.665 C 814.393,574.917 810.6,574.759 808.093,573.313 Z "/>
		<path id="dp_path027" fill="#85e0ff" fill-rule="evenodd" stroke="none" stroke-width="0" d="M 1002.47,663.931 C 999.959,662.484 999.687,660.296 1001.86,659.044 L 1126.52,587.119 C 1128.69,585.867 1132.48,586.025 1134.99,587.471 L 1134.99,587.471 C 1137.49,588.916 1137.77,591.105 1135.59,592.357 L 1010.93,664.281 C 1008.76,665.533 1004.97,665.376 1002.46,663.929 Z "/>
		<path id="dp_path028" fill="black" fill-rule="evenodd" fill-opacity="0.0980392" stroke="none" stroke-width="0" d="M 1002.47,680.452 C 999.959,679.005 999.687,676.817 1001.86,675.565 L 1126.52,603.641 C 1128.69,602.389 1132.48,602.547 1134.99,603.992 L 1134.99,603.992 C 1137.49,605.437 1137.77,607.627 1135.59,608.879 L 1010.93,680.803 C 1008.76,682.055 1004.97,681.897 1002.46,680.451 Z "/>
	</g>
</svg>