<?xml version="1.0" encoding="UTF-8" standalone="no"?>
<svg version="1.1" xmlns="http://www.w3.org/2000/svg" xmlns:xlink="http://www.w3.org/1999/xlink" width="837" height="578">
	<g id="dp_dp001" transform="matrix(1,0,0,1,-158.74,-347.259)">
		<path id="dp_path002" fill="#77acd5" fill-rule="evenodd" stroke="none" stroke-width="0" d="M 198.927,666.981 C 191.788,662.86 191.012,656.624 197.195,653.055 L 494.657,481.315 C 500.84,477.745 511.64,478.193 518.779,482.315 L 953.075,733.056 C 960.213,737.177 960.989,743.413 954.807,746.983 L 657.344,918.723 C 651.161,922.292 640.361,921.844 633.223,917.723 Z "/>
		<path id="dp_path003" fill="#0064b0" fill-rule="evenodd" stroke="none" stroke-width="0" d="M 198.927,633.944 C 191.788,629.823 191.012,623.587 197.195,620.017 L 494.657,448.277 C 500.84,444.708 511.64,445.156 518.779,449.277 L 953.075,700.019 C 960.213,704.14 960.989,710.376 954.807,713.945 L 657.344,885.685 C 651.161,889.255 640.361,888.807 633.223,884.685 Z "/>
		<path id="dp_path004" fill="#004a83" fill-rule="evenodd" stroke="none" stroke-width="0" d="M 198.927,593.944 C 191.788,589.823 191.012,583.587 197.195,580.017 L 494.657,408.277 C 500.84,404.708 511.64,405.156 518.779,409.277 L 953.075,660.019 C 960.213,664.14 960.989,670.376 954.807,673.945 L 657.344,845.685 C 651.161,849.255 640.361,848.807 633.223,844.685 Z "/>
	</g>
	<text id="dp_text005" transform="matrix(1.00123,-0.578058,1,0.57735,448.092,412.661)" xml:space="preserve" fill="black" fill-opacity="0.101961" font-family="Source Sans Pro" font-size="368" font-weight="700" x="0" y="0">?</text>
	<text id="dp_text006" transform="matrix(1.00122,-0.578057,0.999999,0.57735,459.352,484.816)" xml:space="preserve" fill="black" fill-opacity="0.101961" font-family="Source Sans Pro" font-size="187" font-weight="700" x="0" y="0">?</text>
	<text id="dp_text007" transform="matrix(1.00122,-0.578057,0.999999,0.57735,459.352,451.526)" xml:space="preserve" fill="#ab67ff" font-family="Source Sans Pro" font-size="187" font-weight="700" x="0" y="0">?</text>
	<text id="dp_text008" transform="matrix(1.00122,-0.578057,0.999999,0.57735,187.352,330.403)" xml:space="preserve" fill="black" fill-opacity="0.101961" font-family="Source Sans Pro" font-size="187" font-weight="700" x="0" y="0">?</text>
	<text id="dp_text009" transform="matrix(1.00122,-0.578057,0.999999,0.57735,699.352,363.692)" xml:space="preserve" fill="black" fill-opacity="0.101961" font-family="Source Sans Pro" font-size="187" font-weight="700" x="0" y="0">?</text>
	<text id="dp_text010" transform="matrix(1.00122,-0.578057,0.999999,0.57735,699.352,330.402)" xml:space="preserve" fill="#50d3ff" font-family="Source Sans Pro" font-size="187" font-weight="700" x="0" y="0">?</text>
	<text id="dp_text011" transform="matrix(1.00122,-0.578057,0.999999,0.57735,399.352,191.419)" xml:space="preserve" fill="black" fill-opacity="0.101961" font-family="Source Sans Pro" font-size="187" font-weight="700" x="0" y="0">?</text>
	<text id="dp_text012" transform="matrix(1.00122,-0.578057,0.999999,0.57735,399.352,158.129)" xml:space="preserve" fill="#bcff7f" font-family="Source Sans Pro" font-size="187" font-weight="700" x="0" y="0">?</text>
	<text id="dp_text013" transform="matrix(1.00123,-0.578058,1,0.57735,448.092,313.972)" xml:space="preserve" fill="white" font-family="Source Sans Pro" font-size="368" font-weight="700" x="0" y="0">?</text>
	<text id="dp_text014" transform="matrix(1.00122,-0.578057,0.999999,0.57735,187.352,297.113)" xml:space="preserve" fill="#00c6c6" font-family="Source Sans Pro" font-size="187" font-weight="700" x="0" y="0">?</text>
</svg>