<?xml version="1.0" encoding="UTF-8" standalone="no"?>
<svg version="1.1" xmlns="http://www.w3.org/2000/svg" xmlns:xlink="http://www.w3.org/1999/xlink" width="963" height="711">
	<g id="dp_dp001" transform="matrix(1,0,0,1,1697.66,-133.025)">
		<path id="dp_path002" fill="#77acd5" fill-rule="evenodd" stroke="none" stroke-width="0" d="M -1679.33,551.629 L -753.019,551.629 L -753.019,569.013 L -1679.33,569.013 Z "/>
		<path id="dp_path003" fill="#77acd5" fill-rule="evenodd" stroke="none" stroke-width="0" d="M -1664.14,587.145 C -1682.65,576.455 -1684.66,560.283 -1668.63,551.025 L -1242.43,304.96 C -1226.4,295.703 -1198.39,296.863 -1179.87,307.553 L -767.971,545.364 C -749.455,556.053 -747.444,572.225 -763.479,581.483 L -1189.68,827.548 C -1205.71,836.805 -1233.72,835.645 -1252.24,824.955 Z "/>
		<path id="dp_path004" fill="#0064b0" fill-rule="evenodd" stroke="none" stroke-width="0" d="M -1664.14,570.145 C -1682.65,559.455 -1684.66,543.283 -1668.63,534.025 L -1242.43,287.96 C -1226.4,278.703 -1198.39,279.863 -1179.87,290.553 L -767.971,528.364 C -749.455,539.053 -747.444,555.225 -763.479,564.483 L -1189.68,810.548 C -1205.71,819.805 -1233.72,818.645 -1252.24,807.955 Z "/>
		<path id="dp_path005" fill="#0064b0" fill-rule="evenodd" stroke="none" stroke-width="0" d="M -1679.28,530.956 L -752.72,530.956 L -752.72,551.025 L -1679.28,551.025 Z "/>
		<path id="dp_path006" fill="#004a83" fill-rule="evenodd" stroke="none" stroke-width="0" d="M -1664.14,553.685 C -1682.65,542.995 -1684.66,526.823 -1668.63,517.565 L -1242.43,271.5 C -1226.4,262.243 -1198.39,263.403 -1179.87,274.093 L -767.971,511.903 C -749.455,522.593 -747.444,538.765 -763.479,548.023 L -1189.68,794.088 C -1205.71,803.345 -1233.72,802.185 -1252.24,791.495 Z "/>
		<path id="dp_path007" fill="#c2c2c2" fill-rule="evenodd" fill-opacity="0" stroke="none" stroke-width="0" d="M -1485.3,482.279 L -1303.1,377.087 L -1120.9,482.279 L -1303.1,587.472 Z "/>
		<path id="dp_path008" fill="silver" fill-rule="evenodd" stroke="none" stroke-width="0" d="M -1486.27,269.181 L -1303.52,163.669 L -1303.52,376.845 L -1486.27,482.357 Z "/>
		<path id="dp_path009" fill="gainsboro" fill-rule="evenodd" stroke="none" stroke-width="0" d="M -1303.52,163.748 L -1120.9,269.183 L -1120.9,482.28 L -1303.52,376.845 Z "/>
		<path id="dp_path010" fill="#e6e6e6" fill-rule="evenodd" stroke="none" stroke-width="0" d="M -1485.73,269.181 L -1303.12,374.616 L -1303.12,587.715 L -1485.73,482.279 Z "/>
		<path id="dp_path011" fill="#eeeeee" fill-rule="evenodd" stroke="none" stroke-width="0" d="M -1486.27,269.124 C -1426.21,224.179 -1363.17,179.291 -1303.1,134.345 C -1303.24,215.179 -1303.38,296.012 -1303.52,376.845 C -1303.38,376.845 -1303.24,376.847 -1303.1,376.847 Z "/>
		<path id="dp_path012" fill="#f3f3f3" fill-rule="evenodd" stroke="none" stroke-width="0" d="M -1303.1,374.567 L -1303.1,134.345 C -1303.24,134.345 -1303.38,134.345 -1303.52,134.345 C -1243.3,179.291 -1183.09,224.236 -1122.87,269.181 C -1122.87,268.927 -1122.87,268.669 -1122.87,268.413 L -1303.1,375.712"/>
		<path id="dp_path013" fill="#0064b0" fill-rule="evenodd" stroke="none" stroke-width="0" d="M -1232.03,295.579 L -1191.37,272.103 L -1191.37,340.728 L -1232.03,364.203 Z "/>
		<path id="dp_path014" fill="#0064b0" fill-rule="evenodd" stroke="none" stroke-width="0" d="M -1232.03,364.203 L -1191.9,341.033 L -1189.22,342.581 L -1229.35,365.751 Z "/>
		<path id="dp_path015" fill="#0064b0" fill-rule="evenodd" stroke="none" stroke-width="0" d="M -1232.01,295.581 L -1191.37,272.116 L -1188.69,273.664 L -1229.33,297.129 Z "/>
		<path id="dp_path016" fill="#00518f" fill-rule="evenodd" stroke="none" stroke-width="0" d="M -1229.35,297.127 L -1188.69,273.652 L -1188.69,342.276 L -1229.35,365.752 Z "/>
		<path id="dp_path017" fill="none" fill-rule="evenodd" stroke="white" stroke-width="9.33333" stroke-linecap="round" d="M -1249.17,492.389 L -1249.17,546.547"/>
		<path id="dp_path018" fill="none" fill-rule="evenodd" stroke="white" stroke-width="9.33333" stroke-linecap="round" d="M -1159.9,447.453 L -1159.9,495.673"/>
		<path id="dp_path019" fill="none" fill-rule="evenodd" stroke="white" stroke-width="9.33333" stroke-linecap="round" d="M -1200.61,421.812 L -1200.61,475.969"/>
		<path id="dp_path020" fill="none" fill-rule="evenodd" stroke="white" stroke-width="9.33333" stroke-linecap="round" d="M -1288.82,472.521 L -1288.82,526.679"/>
		<path id="dp_path021" fill="#8d6000" fill-rule="evenodd" stroke="none" stroke-width="0" d="M -1297.73,475.015 L -1200.61,418.941 L -1151.22,447.453 L -1248.35,503.527 Z "/>
		<path id="dp_path022" fill="#8d6000" fill-rule="evenodd" stroke="none" stroke-width="0" d="M -1297.73,469.311 L -1200.61,413.237 L -1200.61,419.131 L -1297.73,475.204 Z "/>
		<path id="dp_path023" fill="#8d6000" fill-rule="evenodd" stroke="none" stroke-width="0" d="M -1248.35,497.575 L -1151.25,441.517 L -1151.25,447.469 L -1248.35,503.527 Z "/>
		<path id="dp_path024" fill="#cc8a00" fill-rule="evenodd" stroke="none" stroke-width="0" d="M -1297.73,469.212 L -1200.61,413.139 L -1151.22,441.651 L -1248.35,497.724 Z "/>
		<path id="dp_path025" fill="black" fill-rule="evenodd" fill-opacity="0.180392" stroke="none" stroke-width="0" d="M -1413.09,698.667 L -928.787,419.056 L -793.997,496.877 L -1278.3,776.487 Z "/>
		<path id="dp_path026" fill="none" fill-rule="evenodd" stroke="black" stroke-opacity="0.117647" stroke-width="23.3333" stroke-linecap="round" d="M -1278.3,698.667 L -1216.96,663.256 L -1215.2,664.273 L -1276.53,699.684 Z "/>
		<path id="dp_path027" fill="none" fill-rule="evenodd" stroke="black" stroke-opacity="0.117647" stroke-width="23.3333" stroke-linecap="round" d="M -1140.96,621.333 L -1079.63,585.923 L -1077.87,586.94 L -1139.2,622.351 Z "/>
		<path id="dp_path028" fill="none" fill-rule="evenodd" stroke="black" stroke-opacity="0.117647" stroke-width="23.3333" stroke-linecap="round" d="M -1002.3,542.667 L -940.961,507.256 L -939.199,508.273 L -1000.53,543.684 Z "/>
		<path id="dp_path029" fill="black" fill-rule="evenodd" fill-opacity="0.152941" stroke="none" stroke-width="0" d="M -1021.44,598.277 C -1037.17,596.54 -1052.84,601.143 -1056.45,608.552 C -1060.06,615.965 -1050.24,623.38 -1034.52,625.112 C -1018.79,626.849 -1003.11,622.251 -999.505,614.837 C -995.896,607.423 -1005.71,600.013 -1021.44,598.277 Z "/>
		<path id="dp_path030" fill="#f0a793" fill-rule="evenodd" stroke="none" stroke-width="0" d="M -1038.01,500.299 L -1045.17,520.331 C -1045.17,520.331 -1060.31,523.627 -1062.68,524.029 C -1065.18,524.455 -1071.42,533.043 -1077.99,529.071 C -1084.57,525.103 -1078.87,522.891 -1075.22,522.392 C -1071.57,521.887 -1070.21,520.748 -1071.85,520.159 C -1073.48,519.563 -1076.82,521.187 -1076.84,519.591 C -1076.87,517.997 -1072.39,516.693 -1069.86,517.464 C -1067.33,518.241 -1064.61,518.167 -1062.79,517.913 C -1060.97,517.665 -1050,512.163 -1050,512.163 L -1047.89,499.631 L -1038.01,500.299 Z "/>
		<path id="dp_path031" fill="#513f45" fill-rule="evenodd" stroke="none" stroke-width="0" d="M -1021.33,608.624 C -1022.62,609.58 -1031.4,611.765 -1030.54,616.688 C -1029.68,621.605 -1012.44,616.1 -1012.83,610.536 C -1013.12,606.437 -1020.03,607.667 -1021.33,608.624 Z "/>
		<path id="dp_path032" fill="#513f45" fill-rule="evenodd" stroke="none" stroke-width="0" d="M -1039.18,601.519 C -1040.47,602.475 -1049.26,604.659 -1048.39,609.58 C -1047.53,614.497 -1030.29,608.991 -1030.69,603.429 C -1030.97,599.328 -1037.88,600.557 -1039.18,601.519 Z "/>
		<path id="dp_path033" fill="#87675a" fill-rule="evenodd" stroke="none" stroke-width="0" d="M -1043.79,542.34 C -1043.79,542.34 -1040.84,602.152 -1038.17,603.429 C -1035.5,604.705 -1030.83,603.837 -1030.83,603.837 L -1027.45,542.769 L -1043.79,542.34 Z "/>
		<path id="dp_path034" fill="#87675a" fill-rule="evenodd" stroke="none" stroke-width="0" d="M -1027.45,542.769 C -1027.45,542.769 -1022.7,608.097 -1020.03,609.988 C -1017.36,611.881 -1012.69,610.399 -1012.69,610.399 L -1009.89,543.233 L -1027.45,542.769 Z "/>
		<path id="dp_path035" fill="#3d589a" fill-rule="evenodd" stroke="none" stroke-width="0" d="M -1020.81,482.281 C -1020.81,482.281 -1009.01,483.509 -1008.57,493.964 C -1008.14,504.42 -1008,542.091 -1008,543.523 C -1008,544.96 -1013.06,551.32 -1028.52,550.493 C -1043.24,549.709 -1045.25,545.525 -1045.25,542.972 C -1045.25,537.643 -1044.5,497.02 -1041.69,488.411 C -1038.88,479.804 -1027.07,480.437 -1020.81,482.281 Z "/>
		<path id="dp_path036" fill="#cc9283" fill-rule="evenodd" stroke="none" stroke-width="0" d="M -1031.86,475.424 C -1031.86,475.424 -1031.85,486.884 -1030.57,487.792 C -1029.3,488.699 -1022.29,487.488 -1022.29,483.556 C -1022.29,479.625 -1022.37,474.409 -1022.37,474.409 L -1031.86,475.424 Z "/>
		<path id="dp_path037" fill="#3d589a" fill-rule="evenodd" stroke="none" stroke-width="0" d="M -1034.66,483.971 C -1034.66,483.971 -1043.31,483.388 -1045.56,489.168 C -1047.81,494.945 -1051.49,504.985 -1048.71,505.892 C -1045.93,506.793 -1043.43,507.663 -1042.25,507.536 C -1041.07,507.409 -1034.12,490.655 -1034.66,483.971 Z "/>
		<path id="dp_path038" fill="#f0a793" fill-rule="evenodd" stroke="none" stroke-width="0" d="M -1039.19,458.709 C -1039.19,458.709 -1040.24,481.721 -1032.79,482.824 C -1027.21,483.652 -1019.58,481.099 -1019.34,473.512 C -1019.1,465.924 -1016.68,454.744 -1021.95,454.729 C -1027.22,454.72 -1039.8,453.591 -1039.19,458.709 Z "/>
		<path id="dp_path039" fill="#3e2c1c" fill-rule="evenodd" stroke="none" stroke-width="0" d="M -1015.65,457.379 C -1015.65,457.379 -1015.23,465.069 -1015.35,468.504 C -1015.49,471.941 -1019.43,475.583 -1020.79,474.229 C -1022.14,472.876 -1021.55,460.276 -1021.55,460.276 L -1015.65,457.379 Z "/>
		<path id="dp_path040" fill="#3e2c1c" fill-rule="evenodd" stroke="none" stroke-width="0" d="M -1029.35,450.351 C -1029.35,450.351 -1040.21,450.84 -1041.43,455.804 C -1042.65,460.771 -1041.18,464.611 -1039.25,464.284 C -1037.31,463.963 -1028.88,460.995 -1027.49,459.067 C -1027.49,459.067 -1024.16,471.623 -1021.22,468.847 C -1018.27,466.075 -1013.37,461.344 -1016.62,454.333 C -1019.88,447.328 -1029.35,450.351 -1029.35,450.351 Z "/>
		<path id="dp_path041" fill="#f0a793" fill-rule="evenodd" stroke="none" stroke-width="0" d="M -1021.83,469.719 C -1021.83,469.719 -1020.27,465.713 -1017.87,467.419 C -1015.47,469.124 -1017.41,475.776 -1020.36,474.629 C -1023.3,473.479 -1021.83,469.719 -1021.83,469.719 Z "/>
		<path id="dp_path042" fill="#efa692" fill-rule="evenodd" stroke="none" stroke-width="0" d="M -1005.96,501.78 C -1005.96,501.78 -1005.47,512.573 -1005.89,521.559 C -1006.13,526.748 -1006.66,532.755 -1006.82,534.079 C -1007.24,537.391 -1008.17,544.22 -1008.17,544.22 C -1008.17,544.22 -1008.03,547.619 -1007.75,548.877 C -1006.93,552.559 -1006.24,559.383 -1012.27,560.509 C -1017.4,561.467 -1015.91,553.303 -1014.07,546.987 C -1013.76,545.945 -1014.47,539.712 -1014.58,534.7 C -1014.72,528.823 -1014.2,527.441 -1014.38,520.939 C -1014.59,512.759 -1016.64,502.828 -1016.64,502.828 L -1005.96,501.78 Z "/>
		<path id="dp_path043" fill="#3d589a" fill-rule="evenodd" stroke="none" stroke-width="0" d="M -1008.39,488.161 C -1010.48,485.555 -1017.39,484.228 -1019.41,489.267 C -1021.41,494.303 -1019.44,511.127 -1017.32,512.005 C -1015.94,512.579 -1012.54,513.016 -1010.02,512.663 C -1006.94,512.229 -1005.83,510.383 -1005.15,509.293 C -1004.1,507.593 -1004.85,492.569 -1008.39,488.161 Z "/>
		<path id="dp_path044" fill="#efa692" fill-rule="evenodd" stroke="none" stroke-width="0" d="M -975.416,376.361 C -975.416,376.361 -975,381.468 -974.724,384.365 C -974.449,387.263 -975.553,394.713 -975.829,400.508 C -976.104,406.303 -975.967,411.544 -975.829,413.891 C -975.691,416.236 -979.055,421.664 -976.104,424.929 C -972.24,429.205 -968.655,425.892 -969.481,420.237 C -970.309,414.581 -968.792,411.131 -968.515,407.819 C -968.24,404.508 -968.655,375.672 -968.655,375.672 L -975.416,376.361 Z "/>
		<path id="dp_path045" fill="black" fill-rule="evenodd" fill-opacity="0.152941" stroke="none" stroke-width="0" d="M -950.248,471.343 C -965.973,469.604 -981.649,474.207 -985.259,481.616 C -988.868,489.029 -979.051,496.444 -963.321,498.176 C -947.599,499.915 -931.919,495.315 -928.311,487.903 C -924.701,480.487 -934.523,473.077 -950.248,471.343 Z "/>
		<path id="dp_path046" fill="#342646" fill-rule="evenodd" stroke="none" stroke-width="0" d="M -950.131,481.689 C -951.427,482.644 -960.211,484.829 -959.348,489.752 C -958.483,494.669 -941.248,489.164 -941.639,483.601 C -941.927,479.501 -948.837,480.732 -950.131,481.689 Z "/>
		<path id="dp_path047" fill="#342646" fill-rule="evenodd" stroke="none" stroke-width="0" d="M -967.984,474.583 C -969.279,475.54 -978.063,477.724 -977.201,482.644 C -976.336,487.561 -959.097,482.055 -959.489,476.493 C -959.776,472.392 -966.687,473.623 -967.984,474.583 Z "/>
		<path id="dp_path048" fill="#236590" fill-rule="evenodd" stroke="none" stroke-width="0" d="M -972.593,415.404 C -972.593,415.404 -969.645,475.217 -966.979,476.493 C -964.308,477.769 -959.633,476.903 -959.633,476.903 L -956.253,415.835 L -972.593,415.404 Z "/>
		<path id="dp_path049" fill="#236590" fill-rule="evenodd" stroke="none" stroke-width="0" d="M -956.253,415.835 C -956.253,415.835 -951.508,481.163 -948.837,483.053 C -946.167,484.945 -941.493,483.464 -941.493,483.464 L -938.696,416.297 L -956.253,415.835 Z "/>
		<path id="dp_path050" fill="#e72857" fill-rule="evenodd" stroke="none" stroke-width="0" d="M -951.047,355.44 C -951.047,355.44 -937.813,356.575 -937.38,367.028 C -936.947,377.484 -936.811,415.156 -936.811,416.588 C -936.811,418.025 -941.868,424.384 -957.325,423.559 C -972.047,422.773 -974.052,418.589 -974.052,416.036 C -974.052,410.707 -972.495,370.308 -970.5,361.475 C -969.259,355.992 -957.307,353.595 -951.047,355.44 Z "/>
		<path id="dp_path051" fill="#cc9283" fill-rule="evenodd" stroke="none" stroke-width="0" d="M -960.669,348.488 C -960.669,348.488 -960.657,359.949 -959.379,360.856 C -958.105,361.764 -951.095,360.553 -951.095,356.621 C -951.095,352.691 -951.181,347.473 -951.181,347.473 L -960.669,348.488 Z "/>
		<path id="dp_path052" fill="#e72857" fill-rule="evenodd" stroke="none" stroke-width="0" d="M -962.772,356.344 C -962.772,356.344 -971.431,355.761 -973.679,361.541 C -975.925,367.32 -979.603,377.361 -976.821,378.267 C -974.045,379.168 -971.548,380.037 -970.368,379.909 C -969.191,379.784 -962.239,363.028 -962.772,356.344 Z "/>
		<path id="dp_path053" fill="#f0a793" fill-rule="evenodd" stroke="none" stroke-width="0" d="M -967.997,331.775 C -967.997,331.775 -969.045,354.787 -961.601,355.889 C -956.013,356.717 -948.391,354.164 -948.148,346.576 C -947.904,338.988 -945.491,327.809 -950.757,327.793 C -956.029,327.784 -968.604,326.655 -967.997,331.775 Z "/>
		<path id="dp_path054" fill="#cb831c" fill-rule="evenodd" stroke="none" stroke-width="0" d="M -944.453,330.443 C -944.453,330.443 -944.029,338.133 -944.161,341.569 C -944.295,345.007 -948.24,348.647 -949.591,347.295 C -950.941,345.94 -950.357,333.34 -950.357,333.34 L -944.453,330.443 Z "/>
		<path id="dp_path055" fill="#cb831c" fill-rule="evenodd" stroke="none" stroke-width="0" d="M -958.151,323.415 C -958.151,323.415 -965.933,323.44 -968.709,328.223 C -971.273,332.648 -969.985,337.675 -968.052,337.349 C -967.324,337.228 -966.203,336.884 -964.776,336.192 C -963.351,335.5 -960.637,333.604 -960.637,333.604 C -960.637,333.604 -961.051,334.949 -961.568,337.019 C -958.981,336.501 -955.567,333.811 -954.843,332.259 C -954.623,331.789 -952.969,344.687 -950.024,341.912 C -947.081,339.139 -942.18,334.408 -945.428,327.399 C -948.681,320.393 -958.151,323.415 -958.151,323.415 Z "/>
		<path id="dp_path056" fill="#f0a793" fill-rule="evenodd" stroke="none" stroke-width="0" d="M -950.639,342.783 C -950.639,342.783 -949.075,338.777 -946.673,340.483 C -944.271,342.188 -946.215,348.841 -949.16,347.693 C -952.107,346.543 -950.639,342.783 -950.639,342.783 Z "/>
		<path id="dp_path057" fill="#efa692" fill-rule="evenodd" stroke="none" stroke-width="0" d="M -934.211,374.984 C -934.211,374.984 -933.729,385.776 -934.147,394.761 C -934.385,399.949 -934.913,405.956 -935.077,407.281 C -935.491,410.592 -936.423,417.423 -936.423,417.423 C -936.423,417.423 -936.284,420.821 -936.009,422.08 C -935.181,425.76 -934.492,432.585 -940.525,433.711 C -945.655,434.669 -944.165,426.505 -942.32,420.189 C -942.015,419.147 -942.729,412.916 -942.839,407.901 C -942.971,402.024 -942.455,400.644 -942.632,394.14 C -942.843,385.961 -944.899,376.031 -944.899,376.031 L -934.211,374.984 Z "/>
		<path id="dp_path058" fill="#e72857" fill-rule="evenodd" stroke="none" stroke-width="0" d="M -936.647,361.363 C -938.735,358.756 -945.648,357.431 -947.66,362.469 C -949.668,367.505 -947.693,384.328 -945.571,385.208 C -944.193,385.78 -940.796,386.217 -938.272,385.865 C -935.195,385.431 -934.085,383.585 -933.409,382.496 C -932.352,380.795 -933.108,365.772 -936.647,361.363 Z "/>
		<path id="dp_path059" fill="black" fill-rule="evenodd" fill-opacity="0.152941" stroke="none" stroke-width="0" d="M -892.672,512.331 C -908.397,510.593 -924.075,515.196 -927.684,522.604 C -931.292,530.02 -921.476,537.433 -905.747,539.164 C -890.024,540.904 -874.344,536.304 -870.735,528.891 C -867.125,521.476 -876.947,514.067 -892.672,512.331 Z "/>
		<path id="dp_path060" fill="#342646" fill-rule="evenodd" stroke="none" stroke-width="0" d="M -905.672,518.295 C -905.672,518.295 -908.415,520.984 -910,522.227 C -911.587,523.468 -913.432,525.003 -912.812,526.315 C -912.191,527.625 -910.38,528.9 -905.775,526.315 C -901.016,523.64 -899.789,522.091 -899.721,520.64 C -899.647,519.085 -900.343,517.673 -900.343,517.673 L -905.672,518.295 Z "/>
		<path id="dp_path061" fill="#efa692" fill-rule="evenodd" stroke="none" stroke-width="0" d="M -909.656,457.655 C -909.656,457.655 -909.656,470.072 -908.621,482.076 C -907.587,494.08 -905.931,519.536 -905.931,519.536 C -905.931,519.536 -905.655,521.261 -902.756,520.433 C -899.859,519.605 -900.273,516.847 -900.273,515.605 C -900.273,514.364 -899.064,496.917 -899.583,494.219 C -900.273,490.631 -901.24,487.733 -900.549,485.527 C -899.859,483.32 -899.032,458.899 -899.032,458.899 L -909.656,457.655 Z "/>
		<path id="dp_path062" fill="#342646" fill-rule="evenodd" stroke="none" stroke-width="0" d="M -893.117,521.467 C -893.117,521.467 -895.857,524.157 -897.445,525.399 C -899.033,526.64 -900.877,528.175 -900.256,529.487 C -899.636,530.797 -897.824,532.072 -893.22,529.487 C -888.461,526.812 -887.236,525.263 -887.167,523.812 C -887.093,522.257 -887.788,520.845 -887.788,520.845 L -893.117,521.467 Z "/>
		<path id="dp_path063" fill="#efa692" fill-rule="evenodd" stroke="none" stroke-width="0" d="M -897.101,460.827 C -897.101,460.827 -897.101,473.245 -896.067,485.248 C -895.031,497.252 -893.376,522.708 -893.376,522.708 C -893.376,522.708 -893.099,524.433 -890.201,523.605 C -887.304,522.777 -887.719,520.019 -887.719,518.777 C -887.719,517.536 -886.508,500.089 -887.029,497.391 C -887.719,493.803 -888.685,490.905 -887.995,488.699 C -887.304,486.492 -886.476,462.071 -886.476,462.071 L -897.101,460.827 Z "/>
		<path id="dp_path064" fill="#efa692" fill-rule="evenodd" stroke="none" stroke-width="0" d="M -916.32,418.455 C -916.32,418.455 -915.936,423.197 -915.679,425.888 C -915.421,428.579 -916.448,435.499 -916.705,440.881 C -916.961,446.263 -916.832,451.133 -916.705,453.312 C -916.576,455.489 -919.701,460.529 -916.961,463.563 C -913.371,467.536 -910.04,464.459 -910.809,459.205 C -911.576,453.953 -910.168,450.748 -909.911,447.673 C -909.656,444.597 -910.04,417.815 -910.04,417.815 L -916.32,418.455 Z "/>
		<path id="dp_path065" fill="#ea7318" fill-rule="evenodd" stroke="none" stroke-width="0" d="M -905.349,401.157 C -905.349,401.157 -910.457,400.991 -914.131,406.219 C -917.553,411.084 -917.971,421.048 -916.913,422.505 C -915.853,423.963 -911.556,424.349 -910.424,424.227 C -909.293,424.104 -904.837,407.571 -905.349,401.157 Z "/>
		<path id="dp_path066" fill="#ea7318" fill-rule="evenodd" stroke="none" stroke-width="0" d="M -900.459,400.219 C -904.631,400.219 -909.135,400.748 -910.457,404.588 C -911.784,408.427 -913.901,417.169 -912.309,419.684 C -910.723,422.2 -909.796,434.781 -910.06,438.753 C -910.325,442.725 -915.489,466.432 -915.621,473.715 C -915.756,480.999 -915.621,482.453 -915.621,482.453 C -915.621,482.453 -912.432,486.809 -901.453,487.487 C -886.357,488.415 -880.132,482.124 -878.809,479.077 C -877.483,476.031 -881.591,453.453 -883.179,447.097 C -884.768,440.739 -884.701,428.953 -884.967,423.657 C -885.232,418.361 -882.781,408.956 -887.548,404.787 C -893.435,399.635 -896.288,400.219 -900.459,400.219 Z "/>
		<path id="dp_path067" fill="#70534b" fill-rule="evenodd" stroke="none" stroke-width="0" d="M -911.883,376.249 C -911.883,376.249 -911.784,385.387 -911.98,392.668 C -912.165,399.453 -913.307,402.603 -910.923,402.735 C -908.539,402.865 -903.54,400.58 -902.348,395.019 C -901.153,389.457 -904.567,375.057 -904.567,375.057 L -911.883,376.249 Z "/>
		<path id="dp_path068" fill="#cc9283" fill-rule="evenodd" stroke="none" stroke-width="0" d="M -904.095,391.592 C -904.095,391.592 -903.275,402.591 -902.049,403.463 C -900.827,404.332 -894.904,403.171 -894.904,399.395 C -894.904,395.625 -895.396,390.649 -895.396,390.649 L -904.095,391.592 Z "/>
		<path id="dp_path069" fill="#f0a793" fill-rule="evenodd" stroke="none" stroke-width="0" d="M -911.128,375.548 C -911.128,375.548 -912.133,397.637 -904.988,398.695 C -899.624,399.489 -892.647,395.052 -892.415,387.769 C -892.179,380.488 -889.527,371.743 -894.583,371.731 C -899.641,371.719 -911.712,370.635 -911.128,375.548 Z "/>
		<path id="dp_path070" fill="#70534b" fill-rule="evenodd" stroke="none" stroke-width="0" d="M -888.529,374.272 C -885.364,379.559 -886.693,394.405 -886.819,397.701 C -886.948,401.001 -893.999,406.549 -895.295,405.251 C -896.591,403.949 -894.195,377.053 -894.195,377.053 C -894.195,377.053 -891.695,368.984 -888.529,374.272 Z "/>
		<path id="dp_path071" fill="#70534b" fill-rule="evenodd" stroke="none" stroke-width="0" d="M -901.679,367.525 C -901.679,367.525 -909.148,367.548 -911.809,372.141 C -914.271,376.388 -913.035,381.215 -911.183,380.901 C -910.48,380.783 -909.404,380.452 -908.035,379.789 C -906.668,379.125 -904.063,377.305 -904.063,377.305 C -904.063,377.305 -904.459,378.596 -904.957,380.581 C -902.473,380.087 -899.197,377.504 -898.501,376.013 C -898.291,375.564 -896.705,387.943 -893.879,385.279 C -891.053,382.619 -886.347,378.077 -889.468,371.348 C -892.589,364.624 -901.679,367.525 -901.679,367.525 Z "/>
		<path id="dp_path072" fill="#efa692" fill-rule="evenodd" stroke="none" stroke-width="0" d="M -880.329,420.18 C -880.329,420.18 -879.925,429.232 -880.275,436.765 C -880.475,441.12 -880.919,446.156 -881.056,447.265 C -881.401,450.044 -882.183,455.769 -882.183,455.769 C -882.183,455.769 -882.065,458.62 -881.836,459.675 C -881.141,462.763 -880.565,468.487 -885.625,469.428 C -889.924,470.235 -888.675,463.387 -887.129,458.091 C -886.871,457.216 -887.473,451.989 -887.563,447.787 C -887.675,442.859 -887.24,441.701 -887.389,436.245 C -887.565,429.388 -889.289,421.06 -889.289,421.06 L -880.329,420.18 Z "/>
		<path id="dp_path073" fill="#ea7318" fill-rule="evenodd" stroke="none" stroke-width="0" d="M -883.773,404.323 C -885.78,401.821 -890.583,401.077 -892.513,405.912 C -894.44,410.747 -891.64,425.991 -889.603,426.836 C -888.281,427.384 -886.46,427.443 -884.037,427.103 C -881.084,426.685 -880.052,424.305 -879.404,423.261 C -878.388,421.628 -880.377,408.556 -883.773,404.323 Z "/>
		<path id="dp_path074" fill="black" fill-rule="evenodd" fill-opacity="0.152941" stroke="none" stroke-width="0" d="M -1117.1,606.448 C -1101.37,604.711 -1085.69,609.315 -1082.08,616.723 C -1078.48,624.137 -1088.29,631.551 -1104.02,633.283 C -1119.75,635.023 -1135.43,630.423 -1139.03,623.009 C -1142.64,615.595 -1132.82,608.185 -1117.1,606.448 Z "/>
		<path id="dp_path075" fill="#4e3a72" fill-rule="evenodd" stroke="none" stroke-width="0" d="M -1104.1,612.412 C -1104.1,612.412 -1101.35,615.103 -1099.77,616.344 C -1098.18,617.587 -1096.34,619.12 -1096.96,620.431 C -1097.58,621.743 -1099.39,623.019 -1103.99,620.431 C -1108.75,617.759 -1109.98,616.209 -1110.05,614.759 C -1110.12,613.204 -1109.43,611.792 -1109.43,611.792 L -1104.1,612.412 Z "/>
		<path id="dp_path076" fill="#efa692" fill-rule="evenodd" stroke="none" stroke-width="0" d="M -1100.11,551.773 C -1100.11,551.773 -1100.11,564.191 -1101.15,576.195 C -1102.18,588.199 -1103.84,613.655 -1103.84,613.655 C -1103.84,613.655 -1104.11,615.38 -1107.01,614.552 C -1109.91,613.724 -1109.5,610.965 -1109.5,609.724 C -1109.5,608.481 -1110.7,591.036 -1110.19,588.337 C -1109.5,584.749 -1108.53,581.852 -1109.22,579.645 C -1109.91,577.437 -1110.74,553.017 -1110.74,553.017 L -1100.11,551.773 Z "/>
		<path id="dp_path077" fill="#aa9484" fill-rule="evenodd" stroke="none" stroke-width="0" d="M -1109.72,605.528 C -1109.59,607.747 -1109.5,609.375 -1109.5,609.724 C -1109.5,610.965 -1109.91,613.724 -1107.01,614.552 C -1104.11,615.38 -1103.84,613.655 -1103.84,613.655 C -1103.84,613.655 -1103.63,610.423 -1103.31,605.728 C -1106.05,606.733 -1108.26,606.22 -1109.72,605.528 Z "/>
		<path id="dp_path078" fill="#4e3a72" fill-rule="evenodd" stroke="none" stroke-width="0" d="M -1116.65,615.584 C -1116.65,615.584 -1113.91,618.275 -1112.32,619.517 C -1110.74,620.759 -1108.89,622.292 -1109.51,623.603 C -1110.13,624.915 -1111.94,626.191 -1116.55,623.603 C -1121.31,620.931 -1122.53,619.381 -1122.6,617.931 C -1122.67,616.376 -1121.98,614.964 -1121.98,614.964 L -1116.65,615.584 Z "/>
		<path id="dp_path079" fill="#efa692" fill-rule="evenodd" stroke="none" stroke-width="0" d="M -1112.67,554.945 C -1112.67,554.945 -1112.67,567.363 -1113.7,579.367 C -1114.74,591.371 -1116.39,616.827 -1116.39,616.827 C -1116.39,616.827 -1116.67,618.552 -1119.57,617.724 C -1122.46,616.896 -1122.05,614.137 -1122.05,612.896 C -1122.05,611.655 -1123.26,594.208 -1122.74,591.509 C -1122.05,587.921 -1121.08,585.024 -1121.77,582.817 C -1122.46,580.611 -1123.29,556.189 -1123.29,556.189 L -1112.67,554.945 Z "/>
		<path id="dp_path080" fill="#aa9484" fill-rule="evenodd" stroke="none" stroke-width="0" d="M -1122.27,608.673 C -1122.15,610.905 -1122.05,612.545 -1122.05,612.896 C -1122.05,614.137 -1122.46,616.896 -1119.57,617.724 C -1116.67,618.552 -1116.39,616.827 -1116.39,616.827 C -1116.39,616.827 -1116.18,613.632 -1115.87,608.984 C -1118.63,609.949 -1120.85,609.384 -1122.27,608.673 Z "/>
		<path id="dp_path081" fill="#efa692" fill-rule="evenodd" stroke="none" stroke-width="0" d="M -1093.45,512.573 C -1093.45,512.573 -1093.83,517.316 -1094.09,520.005 C -1094.35,522.696 -1093.32,529.617 -1093.06,535 C -1092.81,540.381 -1092.94,545.251 -1093.06,547.431 C -1093.19,549.608 -1090.07,554.648 -1092.81,557.681 C -1096.4,561.653 -1099.73,558.576 -1098.96,553.323 C -1098.19,548.069 -1099.6,544.865 -1099.86,541.789 C -1100.11,538.715 -1099.73,511.933 -1099.73,511.933 L -1093.45,512.573 Z "/>
		<path id="dp_path082" fill="#833027" fill-rule="evenodd" stroke="none" stroke-width="0" d="M -1104.42,495.275 C -1104.42,495.275 -1099.31,495.109 -1095.64,500.335 C -1092.21,505.203 -1091.8,515.165 -1092.86,516.624 C -1093.92,518.08 -1098.21,518.467 -1099.34,518.344 C -1100.48,518.223 -1104.93,501.689 -1104.42,495.275 Z "/>
		<path id="dp_path083" fill="#833027" fill-rule="evenodd" stroke="none" stroke-width="0" d="M -1109.31,494.335 C -1105.14,494.335 -1100.64,494.867 -1099.31,498.705 C -1097.99,502.544 -1095.87,511.287 -1097.46,513.803 C -1099.05,516.319 -1099.97,528.899 -1099.71,532.872 C -1099.44,536.844 -1094.28,560.548 -1094.15,567.833 C -1094.01,575.115 -1094.15,576.572 -1094.15,576.572 C -1094.15,576.572 -1097.34,580.928 -1108.31,581.604 C -1123.41,582.532 -1129.64,576.243 -1130.96,573.196 C -1132.29,570.148 -1128.18,547.571 -1126.59,541.215 C -1125,534.857 -1125.07,523.072 -1124.8,517.775 C -1124.54,512.477 -1126.99,503.075 -1122.22,498.904 C -1116.33,493.753 -1113.48,494.335 -1109.31,494.335 Z "/>
		<path id="dp_path084" fill="#b5392e" fill-rule="evenodd" stroke="none" stroke-width="0" d="M -1097.89,470.367 C -1097.89,470.367 -1096.87,475.068 -1096.84,480.212 C -1096.82,482.46 -1097.85,484.571 -1097.79,486.787 C -1097.73,488.827 -1096.32,491.849 -1096.22,493.251 C -1095.97,496.504 -1096.89,498.744 -1098.56,498.839 C -1099.73,498.903 -1101.83,495.471 -1104.36,495.044 C -1106.98,494.6 -1110.3,495.121 -1110.91,492.285 C -1112.1,486.724 -1105.2,469.173 -1105.2,469.173 L -1097.89,470.367 Z "/>
		<path id="dp_path085" fill="#cc9283" fill-rule="evenodd" stroke="none" stroke-width="0" d="M -1105.68,485.709 C -1105.68,485.709 -1106.49,496.709 -1107.72,497.58 C -1108.94,498.451 -1114.87,497.287 -1114.87,493.513 C -1114.87,489.744 -1114.37,484.768 -1114.37,484.768 L -1105.68,485.709 Z "/>
		<path id="dp_path086" fill="#f0a793" fill-rule="evenodd" stroke="none" stroke-width="0" d="M -1098.64,469.667 C -1098.64,469.667 -1097.64,491.755 -1104.78,492.812 C -1110.14,493.608 -1117.12,489.171 -1117.35,481.888 C -1117.59,474.604 -1120.24,465.86 -1115.19,465.847 C -1110.13,465.836 -1098.06,464.753 -1098.64,469.667 Z "/>
		<path id="dp_path087" fill="#b5392e" fill-rule="evenodd" stroke="none" stroke-width="0" d="M -1120.5,466.276 C -1121.35,467.712 -1122.71,472.256 -1123.14,475.104 C -1123.49,477.375 -1124.35,480.051 -1124.5,482.557 C -1124.65,485.08 -1124.1,487.432 -1124.13,489.595 C -1124.17,492.515 -1125.64,495.936 -1125.6,496.907 C -1125.53,498.691 -1123.33,496.176 -1120.91,496.767 C -1120.01,496.985 -1116.91,501.115 -1117.05,506.427 C -1117.09,508.075 -1112.55,507.107 -1112.22,506.772 C -1111.43,505.979 -1114.36,488.696 -1113.88,483.66 C -1113.39,478.625 -1113.46,471.243 -1113.46,471.243 C -1113.46,471.243 -1117.33,460.989 -1120.5,466.276 Z "/>
		<path id="dp_path088" fill="#b5392e" fill-rule="evenodd" stroke="none" stroke-width="0" d="M -1108.09,461.644 C -1108.09,461.644 -1100.62,461.667 -1097.96,466.257 C -1095.5,470.507 -1096.73,475.331 -1098.59,475.016 C -1098.94,474.959 -1099.87,473.865 -1099.87,473.865 C -1099.87,473.865 -1101.74,474.404 -1102.42,474.072 C -1103.79,473.409 -1105.32,471.312 -1105.32,471.312 C -1105.32,471.312 -1105.71,473.459 -1107.18,473.935 C -1108.66,474.412 -1110.98,470.968 -1110.98,470.968 C -1110.98,470.968 -1111.14,473.433 -1111.87,476.073 C -1112.65,478.872 -1114.44,480.769 -1115.89,479.397 C -1118.72,476.735 -1123.42,472.193 -1120.3,465.467 C -1117.18,458.743 -1108.09,461.644 -1108.09,461.644 Z "/>
		<path id="dp_path089" fill="#efa692" fill-rule="evenodd" stroke="none" stroke-width="0" d="M -1129.44,514.299 C -1129.44,514.299 -1129.84,523.351 -1129.49,530.883 C -1129.29,535.236 -1128.85,540.273 -1128.71,541.383 C -1128.37,544.163 -1127.59,549.888 -1127.59,549.888 C -1127.59,549.888 -1127.7,552.739 -1127.93,553.792 C -1128.63,556.881 -1129.2,562.605 -1124.14,563.547 C -1119.85,564.352 -1121.09,557.505 -1122.64,552.207 C -1122.9,551.335 -1122.3,546.108 -1122.21,541.905 C -1122.09,536.976 -1122.53,535.819 -1122.38,530.364 C -1122.2,523.504 -1120.48,515.179 -1120.48,515.179 L -1129.44,514.299 Z "/>
		<path id="dp_path090" fill="#833027" fill-rule="evenodd" stroke="none" stroke-width="0" d="M -1126,498.441 C -1123.99,495.939 -1119.19,495.196 -1117.26,500.031 C -1115.33,504.865 -1118.13,520.108 -1120.17,520.953 C -1121.49,521.501 -1123.31,521.56 -1125.73,521.221 C -1128.69,520.804 -1129.72,518.423 -1130.37,517.379 C -1131.38,515.745 -1129.39,502.673 -1126,498.441 Z "/>
		<path id="dp_path091" fill="#efa692" fill-rule="evenodd" stroke="none" stroke-width="0" d="M -1165.44,477.176 C -1165.44,477.176 -1165.65,491.145 -1166.37,493.836 C -1167.1,496.527 -1169.79,500.561 -1169.79,500.561 L -1170.1,478.211 L -1165.44,477.176 Z "/>
		<path id="dp_path092" fill="black" fill-rule="evenodd" fill-opacity="0.152941" stroke="none" stroke-width="0" d="M -1189.95,565.195 C -1174.22,563.456 -1158.54,568.06 -1154.93,575.468 C -1151.33,582.884 -1161.14,590.296 -1176.87,592.028 C -1192.6,593.768 -1208.27,589.168 -1211.88,581.755 C -1215.49,574.34 -1205.67,566.931 -1189.95,565.195 Z "/>
		<path id="dp_path093" fill="#4e3a72" fill-rule="evenodd" stroke="none" stroke-width="0" d="M -1175.87,573.223 C -1175.87,573.223 -1172.13,574.073 -1170.24,575.091 C -1169.14,575.681 -1169.52,577.245 -1169.63,578.221 C -1169.79,579.663 -1171.4,581.703 -1176.21,579.519 C -1181.18,577.265 -1183.13,576.551 -1183.33,575.111 C -1183.53,573.571 -1183.03,571.791 -1181.66,571.539 C -1179.92,571.216 -1175.87,573.223 -1175.87,573.223 Z "/>
		<path id="dp_path094" fill="#efa692" fill-rule="evenodd" stroke="none" stroke-width="0" d="M -1181.19,515.825 C -1181.19,515.825 -1180.64,528.229 -1179.08,540.179 C -1177.52,552.124 -1174.92,576.256 -1174.92,576.256 C -1174.92,576.256 -1174.13,578.311 -1171.39,577.057 C -1169.55,576.216 -1170.25,574.224 -1170.07,572.997 C -1169.73,570.615 -1168.88,554.585 -1169.52,551.911 C -1170.36,548.356 -1171.46,545.507 -1170.87,543.269 C -1170.27,541.033 -1170.52,516.6 -1170.52,516.6 L -1181.19,515.825 Z "/>
		<path id="dp_path095" fill="#4e3a72" fill-rule="evenodd" stroke="none" stroke-width="0" d="M -1187.05,577.915 C -1187.05,577.915 -1183.31,578.765 -1181.42,579.783 C -1180.31,580.373 -1180.69,581.939 -1180.8,582.913 C -1180.96,584.356 -1182.58,586.395 -1187.39,584.211 C -1192.36,581.957 -1194.31,581.243 -1194.5,579.803 C -1194.71,578.263 -1194.2,576.483 -1192.84,576.231 C -1191.1,575.908 -1187.05,577.915 -1187.05,577.915 Z "/>
		<path id="dp_path096" fill="#efa692" fill-rule="evenodd" stroke="none" stroke-width="0" d="M -1192.36,520.517 C -1192.36,520.517 -1191.82,532.921 -1190.25,544.871 C -1188.69,556.816 -1186.09,580.948 -1186.09,580.948 C -1186.09,580.948 -1185.3,583.003 -1182.56,581.749 C -1180.72,580.908 -1181.43,578.916 -1181.25,577.689 C -1180.91,575.307 -1180.06,559.277 -1180.69,556.603 C -1181.54,553.048 -1182.63,550.197 -1182.04,547.963 C -1181.45,545.725 -1181.69,521.292 -1181.69,521.292 L -1192.36,520.517 Z "/>
		<path id="dp_path097" fill="#d24e8e" fill-rule="evenodd" stroke="none" stroke-width="0" d="M -1178.05,455.781 C -1173.88,455.7 -1167.87,458.796 -1166.47,462.611 C -1165.07,466.421 -1168.04,490.156 -1167.7,494.121 C -1167.35,498.088 -1162.17,520.237 -1161.89,527.517 C -1161.61,534.796 -1161.72,536.256 -1161.72,536.256 C -1161.72,536.256 -1164.38,542.124 -1175.34,543.015 C -1190.42,544.239 -1196.57,538.904 -1197.95,535.884 C -1199.33,532.864 -1195.87,509.376 -1194.41,502.991 C -1192.95,496.603 -1191.71,484.632 -1193.08,479.52 C -1194.45,474.397 -1195.55,464.865 -1190.87,460.603 C -1185.08,455.337 -1182.22,455.864 -1178.05,455.781 Z "/>
		<path id="dp_path098" fill="#efa692" fill-rule="evenodd" stroke="none" stroke-width="0" d="M -1183.91,479.865 C -1183.91,479.865 -1185.32,488.816 -1187.15,496.129 C -1188.22,500.359 -1189.65,505.205 -1190.01,506.265 C -1190.9,508.921 -1192.8,514.379 -1192.8,514.379 C -1192.8,514.379 -1193.25,517.195 -1193.24,518.272 C -1193.17,521.436 -1193.74,527.161 -1198.89,527.08 C -1203.26,527.016 -1200.68,520.552 -1198.11,515.669 C -1197.69,514.865 -1197.23,509.621 -1196.49,505.485 C -1195.62,500.633 -1194.97,499.583 -1194.03,494.209 C -1192.84,487.452 -1192.87,478.947 -1192.87,478.947 L -1183.91,479.865 Z "/>
		<path id="dp_path099" fill="#5e88bb" fill-rule="evenodd" stroke="none" stroke-width="0" d="M -1184.14,463.639 C -1185.61,460.791 -1190.17,459.105 -1193.02,463.46 C -1195.87,467.816 -1196.16,483.311 -1194.33,484.545 C -1193.14,485.347 -1191.37,485.765 -1188.93,485.912 C -1185.95,486.091 -1184.12,484.487 -1183.28,483.593 C -1181.96,482.192 -1181.65,468.463 -1184.14,463.639 Z "/>
		<path id="dp_path100" fill="#5e88bb" fill-rule="evenodd" stroke="none" stroke-width="0" d="M -1172.65,457.723 C -1172.65,457.723 -1166.1,458.963 -1165.2,463.379 C -1164.31,467.795 -1164.72,476.763 -1164.93,477.591 C -1165.13,478.419 -1166.51,479.108 -1168.03,479.177 C -1169.55,479.247 -1172.65,457.723 -1172.65,457.723 Z "/>
		<path id="dp_path101" fill="#f0a793" fill-rule="evenodd" stroke="none" stroke-width="0" d="M -1192.11,438.683 C -1192.11,438.683 -1193.36,451.655 -1188.52,452.756 C -1182.45,454.135 -1178.31,450.547 -1178.31,450.547 C -1178.31,450.547 -1175.55,435.095 -1181.35,433.439 C -1187.14,431.784 -1191.28,434.268 -1192.11,438.683 Z "/>
		<path id="dp_path102" fill="#f47436" fill-rule="evenodd" stroke="none" stroke-width="0" d="M -1189.9,429.025 C -1189.9,429.025 -1193.21,432.06 -1193.21,437.027 C -1193.21,441.993 -1190.73,443.096 -1188.24,442.821 C -1185.76,442.547 -1186.86,446.961 -1186.86,448.616 C -1186.86,449.652 -1189.41,451.647 -1190.9,455.549 C -1191.79,457.888 -1192.04,459.875 -1192.11,460.895 C -1192.3,463.775 -1190.83,459.721 -1187.79,461.653 C -1184.76,463.585 -1184.1,474.419 -1183.28,477.177 C -1182.45,479.936 -1183,481.869 -1178.31,480.488 C -1173.62,479.108 -1174.44,479.936 -1172.51,480.212 C -1170.58,480.488 -1166.44,481.865 -1166.72,477.452 C -1167,473.037 -1167.55,459.24 -1167.55,455.377 C -1167.55,451.515 -1161.2,432.335 -1170.03,427.921 C -1177.7,424.089 -1187.14,423.781 -1189.9,429.025 Z "/>
		<path id="dp_path103" fill="#efa692" fill-rule="evenodd" stroke="none" stroke-width="0" d="M -1262.89,575.991 C -1262.89,575.991 -1261.52,565.276 -1261.19,556.287 C -1260.99,551.095 -1261.02,545.064 -1261.07,543.732 C -1261.21,540.399 -1261.57,533.513 -1261.57,533.513 C -1261.57,533.513 -1261.15,530.139 -1260.77,528.908 C -1259.64,525.308 -1258.39,518.564 -1264.31,516.941 C -1269.34,515.56 -1268.53,523.819 -1267.22,530.267 C -1267,531.331 -1268.23,537.481 -1268.76,542.468 C -1269.38,548.315 -1268.97,549.733 -1269.69,556.2 C -1270.58,564.333 -1273.46,574.059 -1273.46,574.059 L -1262.89,575.991 Z "/>
		<path id="dp_path104" fill="#a84a55" fill-rule="evenodd" stroke="none" stroke-width="0" d="M -1272.14,561.835 C -1272.14,561.835 -1269.68,565.481 -1266.26,565.719 C -1262.83,565.956 -1261.54,562.54 -1260.61,563.979 C -1259.93,565.032 -1260.71,584.612 -1264.85,586.475 C -1268.99,588.337 -1273.44,583.34 -1273.44,583.34 L -1275.16,576.94 C -1275.16,576.94 -1272.77,562.683 -1272.14,561.835 Z "/>
		<path id="dp_path105" fill="black" fill-rule="evenodd" fill-opacity="0.152941" stroke="none" stroke-width="0" d="M -1287.38,694.963 C -1271.66,693.225 -1255.98,697.828 -1252.37,705.236 C -1248.76,712.652 -1258.58,720.065 -1274.31,721.796 C -1290.03,723.536 -1305.71,718.939 -1309.32,711.523 C -1312.93,704.107 -1303.11,696.7 -1287.38,694.963 Z "/>
		<path id="dp_path106" fill="#707782" fill-rule="evenodd" stroke="none" stroke-width="0" d="M -1287.5,705.311 C -1286.2,706.264 -1277.42,708.452 -1278.28,713.372 C -1279.15,718.291 -1296.38,712.788 -1295.99,707.221 C -1295.7,703.125 -1288.79,704.353 -1287.5,705.311 Z "/>
		<path id="dp_path107" fill="#707782" fill-rule="evenodd" stroke="none" stroke-width="0" d="M -1269.65,698.203 C -1268.35,699.16 -1259.57,701.347 -1260.43,706.264 C -1261.29,711.183 -1278.53,705.676 -1278.14,700.113 C -1277.85,696.013 -1270.94,697.245 -1269.65,698.203 Z "/>
		<path id="dp_path108" fill="#335c40" fill-rule="evenodd" stroke="none" stroke-width="0" d="M -1265.04,639.028 C -1265.04,639.028 -1267.98,698.84 -1270.65,700.113 C -1273.32,701.392 -1277.99,700.524 -1277.99,700.524 L -1281.38,639.457 L -1265.04,639.028 Z "/>
		<path id="dp_path109" fill="#335c40" fill-rule="evenodd" stroke="none" stroke-width="0" d="M -1281.38,639.457 C -1281.38,639.457 -1286.12,704.784 -1288.79,706.675 C -1291.46,708.567 -1296.14,707.085 -1296.14,707.085 L -1298.93,639.921 L -1281.38,639.457 Z "/>
		<path id="dp_path110" fill="#a84a55" fill-rule="evenodd" stroke="none" stroke-width="0" d="M -1285.72,578.723 C -1285.72,578.723 -1299.81,580.197 -1300.25,590.651 C -1300.68,601.108 -1300.82,638.777 -1300.82,640.211 C -1300.82,641.648 -1295.76,648.008 -1280.3,647.181 C -1265.58,646.395 -1263.58,642.213 -1263.58,639.66 C -1263.58,636.519 -1264.63,621.101 -1265.04,607.144 C -1265.32,597.417 -1263.09,587.456 -1263.91,583.829 C -1265.15,578.344 -1279.46,576.879 -1285.72,578.723 Z "/>
		<path id="dp_path111" fill="#cc9283" fill-rule="evenodd" stroke="none" stroke-width="0" d="M -1276.96,572.112 C -1276.96,572.112 -1276.97,583.572 -1278.25,584.48 C -1279.52,585.385 -1286.53,584.175 -1286.53,580.243 C -1286.53,576.313 -1286.45,571.097 -1286.45,571.097 L -1276.96,572.112 Z "/>
		<path id="dp_path112" fill="#f0a793" fill-rule="evenodd" stroke="none" stroke-width="0" d="M -1269.63,555.396 C -1269.63,555.396 -1268.58,578.409 -1276.03,579.512 C -1281.62,580.34 -1289.24,577.787 -1289.48,570.2 C -1289.73,562.612 -1292.14,551.432 -1286.87,551.417 C -1281.6,551.405 -1269.02,550.276 -1269.63,555.396 Z "/>
		<path id="dp_path113" fill="#70534b" fill-rule="evenodd" stroke="none" stroke-width="0" d="M -1293.18,554.065 C -1293.18,554.065 -1293.6,561.757 -1293.47,565.191 C -1293.33,568.628 -1289.39,572.271 -1288.04,570.916 C -1286.69,569.564 -1287.27,556.963 -1287.27,556.963 L -1293.18,554.065 Z "/>
		<path id="dp_path114" fill="#70534b" fill-rule="evenodd" stroke="none" stroke-width="0" d="M -1279.48,547.036 C -1279.48,547.036 -1271.69,547.061 -1268.92,551.847 C -1266.36,556.271 -1267.64,561.299 -1269.58,560.971 C -1270.3,560.849 -1270.7,559.925 -1272.13,559.236 C -1273.56,558.544 -1275.44,557.165 -1276.99,557.227 C -1278.45,557.285 -1281.91,557.784 -1282.79,561.305 C -1283.72,565.031 -1286.28,566.784 -1287.6,565.533 C -1290.55,562.76 -1295.45,558.031 -1292.2,551.021 C -1288.95,544.015 -1279.48,547.036 -1279.48,547.036 Z "/>
		<path id="dp_path115" fill="#f0a793" fill-rule="evenodd" stroke="none" stroke-width="0" d="M -1286.99,566.407 C -1286.99,566.407 -1288.56,562.401 -1290.96,564.107 C -1293.36,565.811 -1291.41,572.464 -1288.47,571.315 C -1285.52,570.164 -1286.99,566.407 -1286.99,566.407 Z "/>
		<path id="dp_path116" fill="#fefefe" fill-rule="evenodd" stroke="none" stroke-width="0" d="M -1296.67,518.063 L -1263.86,499.057 L -1263.86,533.517 L -1296.67,552.473 L -1296.67,518.063 Z "/>
		<path id="dp_path117" fill="#efa692" fill-rule="evenodd" stroke="none" stroke-width="0" d="M -1260.2,524.377 C -1260.2,524.377 -1263.42,518.429 -1266.64,519.119 C -1269.86,519.807 -1268.99,526.983 -1267.49,528.639 C -1265.99,530.295 -1262.38,532.232 -1261.58,532.364 C -1260.77,532.496 -1259.38,525.912 -1260.2,524.377 Z "/>
		<path id="dp_path118" fill="#a84a55" fill-rule="evenodd" stroke="none" stroke-width="0" d="M -1296.11,568.468 C -1293.7,567.456 -1294.03,566.411 -1293.25,567.643 C -1292.47,568.873 -1291.56,575.499 -1290.35,580.003 C -1289.14,584.511 -1288.15,594.857 -1294.46,594.908 C -1300.77,594.96 -1302.72,589.803 -1303.06,585.263 C -1303.39,580.723 -1305.33,569.071 -1304.12,568.565 C -1302.91,568.06 -1298.53,569.475 -1296.11,568.468 Z "/>
		<path id="dp_path119" fill="#efa692" fill-rule="evenodd" stroke="none" stroke-width="0" d="M -1294.11,543.096 C -1294.11,543.096 -1294.23,555.651 -1294.64,557.853 C -1295.05,560.052 -1293.15,568.236 -1293.8,571.259 C -1294.44,574.28 -1302.42,574.669 -1303.47,571.888 C -1304.52,569.105 -1303.5,561.456 -1302.98,556.637 C -1302.47,551.819 -1300.99,543.789 -1299.78,540.361 C -1299.13,538.512 -1300.36,529.719 -1293.81,528.473 C -1290.28,527.803 -1288.2,528.869 -1288.84,533.131 C -1289.48,537.396 -1293.25,542.699 -1294.11,543.096 Z "/>
	</g>
</svg>