<?xml version="1.0" encoding="UTF-8" standalone="no"?><!DOCTYPE svg PUBLIC "-//W3C//DTD SVG 1.1//EN" "http://www.w3.org/Graphics/SVG/1.1/DTD/svg11.dtd"><svg width="100%" height="100%" viewBox="0 0 520 347" version="1.1" xmlns="http://www.w3.org/2000/svg" xmlns:xlink="http://www.w3.org/1999/xlink" xml:space="preserve" xmlns:serif="http://www.serif.com/" style="fill-rule:evenodd;clip-rule:evenodd;stroke-miterlimit:10;"><rect x="0" y="0" width="519.6" height="346.334" style="fill:#003f7e;"/><clipPath id="_clip1"><rect x="0" y="0" width="519.6" height="346.334"/></clipPath><g clip-path="url(#_clip1)"><g><clipPath id="_clip2"><rect x="0" y="0" width="519.6" height="346.334" clip-rule="nonzero"/></clipPath><g clip-path="url(#_clip2)"><path d="M170.29,57.094c0.07,2.712 -2.07,4.968 -4.782,5.039c-2.71,0.071 -4.969,-2.069 -5.039,-4.781c-0.07,-2.712 2.07,-4.968 4.781,-5.039c2.712,-0.071 4.968,2.07 5.04,4.781" style="fill:#fff;fill-rule:nonzero;"/><path d="M372.142,322.151l60.716,-60.716" style="fill:none;stroke:#fff;stroke-width:0.24px;"/><path d="M372.142,331.314l60.716,-60.717" style="fill:none;stroke:#fff;stroke-width:0.24px;"/><path d="M372.142,312.987l60.716,-60.716" style="fill:none;stroke:#fff;stroke-width:0.24px;"/><path d="M372.142,303.824l60.716,-60.716" style="fill:none;stroke:#fff;stroke-width:0.24px;"/><path d="M257.34,-30.292l60.716,60.716" style="fill:none;stroke:#fff;stroke-width:0.24px;"/><path d="M248.176,-30.292l60.717,60.716" style="fill:none;stroke:#fff;stroke-width:0.24px;"/><path d="M266.504,-30.292l60.716,60.716" style="fill:none;stroke:#fff;stroke-width:0.24px;"/><path d="M275.667,-30.292l60.716,60.716" style="fill:none;stroke:#fff;stroke-width:0.24px;"/><path d="M475.572,275.925l60.717,60.716" style="fill:none;stroke:#fff;stroke-width:0.24px;"/><path d="M466.409,275.925l60.717,60.716" style="fill:none;stroke:#fff;stroke-width:0.24px;"/><path d="M484.737,275.925l60.716,60.716" style="fill:none;stroke:#fff;stroke-width:0.24px;"/><path d="M493.9,275.925l60.715,60.716" style="fill:none;stroke:#fff;stroke-width:0.24px;"/><path d="M14.514,285.684l60.716,60.717" style="fill:none;stroke:#fff;stroke-width:0.24px;"/><path d="M5.351,285.684l60.717,60.717" style="fill:none;stroke:#fff;stroke-width:0.24px;"/><path d="M23.678,285.684l60.716,60.717" style="fill:none;stroke:#fff;stroke-width:0.24px;"/><path d="M32.841,285.684l60.716,60.717" style="fill:none;stroke:#fff;stroke-width:0.24px;"/><g><clipPath id="_clip3"><path d="M141.947,69.534c-10.046,11.921 -8.525,29.728 3.393,39.775c11.921,10.045 29.731,8.526 39.774,-3.395c10.046,-11.922 8.526,-29.73 -3.395,-39.774c-5.295,-4.463 -11.752,-6.643 -18.175,-6.642c-8.034,0 -16.015,3.412 -21.597,10.036Z" clip-rule="nonzero"/></clipPath><g clip-path="url(#_clip3)"><path d="M122.613,86.726l39.921,-39.921l1.996,1.996l-39.921,39.92l-1.996,-1.995Z" style="fill:#fff;"/><path d="M127.046,91.161l39.922,-39.921l1.996,1.997l-39.921,39.92l-1.997,-1.996Z" style="fill:#fff;"/><path d="M131.483,95.598l39.922,-39.922l1.995,1.996l-39.921,39.922l-1.996,-1.996Z" style="fill:#fff;"/><path d="M135.918,100.033l39.922,-39.921l1.996,1.997l-39.921,39.92l-1.997,-1.996Z" style="fill:#fff;"/><path d="M140.354,104.468l39.921,-39.92l1.997,1.996l-39.922,39.921l-1.996,-1.997Z" style="fill:#fff;"/><path d="M144.79,108.904l39.92,-39.922l1.997,1.997l-39.92,39.922l-1.997,-1.997Z" style="fill:#fff;"/><path d="M149.225,113.34l39.921,-39.921l1.997,1.997l-39.921,39.921l-1.997,-1.997Z" style="fill:#fff;"/><path d="M153.662,117.776l39.921,-39.921l1.995,1.995l-39.921,39.922l-1.995,-1.996Z" style="fill:#fff;"/><path d="M158.095,122.21l39.922,-39.92l1.997,1.997l-39.922,39.92l-1.997,-1.997Z" style="fill:#fff;"/><path d="M162.531,126.647l39.92,-39.923l1.997,1.997l-39.92,39.923l-1.997,-1.997Z" style="fill:#fff;"/></g></g><g><clipPath id="_clip4"><rect x="0" y="0" width="519.6" height="346.334" clip-rule="nonzero"/></clipPath><g clip-path="url(#_clip4)"><path d="M413.718,262.691c0.458,17.452 -13.313,31.965 -30.765,32.424c-17.447,0.458 -31.97,-13.314 -32.428,-30.765c-0.457,-17.451 13.322,-31.969 30.77,-32.427c17.453,-0.457 31.968,13.318 32.423,30.768" style="fill:#9bf7f2;fill-rule:nonzero;"/><path d="M327.291,234.442c-0.699,0.699 -1.832,0.697 -2.527,0c-0.699,-0.699 -0.699,-1.831 -0.001,-2.527c0.696,-0.699 1.829,-0.699 2.528,0c0.698,0.696 0.699,1.828 0,2.527" style="fill:#fff;fill-rule:nonzero;"/><path d="M338.525,245.677c-0.697,0.697 -1.829,0.697 -2.528,-0.001c-0.697,-0.698 -0.697,-1.83 0,-2.527c0.699,-0.697 1.831,-0.697 2.528,-0.001c0.698,0.698 0.698,1.83 0,2.529" style="fill:#fff;fill-rule:nonzero;"/><path d="M349.76,256.911c-0.699,0.699 -1.829,0.699 -2.527,0c-0.699,-0.698 -0.699,-1.83 0,-2.527c0.697,-0.699 1.828,-0.699 2.527,0c0.699,0.698 0.699,1.829 0,2.527" style="fill:#fff;fill-rule:nonzero;"/><path d="M360.996,268.147c-0.699,0.697 -1.831,0.697 -2.528,0c-0.698,-0.699 -0.698,-1.831 0,-2.527c0.697,-0.699 1.829,-0.699 2.528,-0.001c0.698,0.697 0.698,1.829 0,2.528" style="fill:#fff;fill-rule:nonzero;"/><path d="M372.229,279.382c-0.698,0.697 -1.828,0.697 -2.527,0c-0.697,-0.698 -0.697,-1.831 0,-2.529c0.699,-0.698 1.829,-0.698 2.527,0c0.699,0.698 0.699,1.831 0,2.529" style="fill:#fff;fill-rule:nonzero;"/><path d="M383.465,290.616c-0.699,0.699 -1.83,0.699 -2.527,0c-0.699,-0.699 -0.699,-1.83 0,-2.527c0.697,-0.699 1.828,-0.699 2.527,0c0.699,0.697 0.699,1.828 0,2.527" style="fill:#fff;fill-rule:nonzero;"/><path d="M314.86,246.872c-0.699,0.698 -1.831,0.698 -2.527,0c-0.699,-0.699 -0.699,-1.831 -0.001,-2.527c0.697,-0.699 1.829,-0.699 2.528,0c0.698,0.696 0.699,1.828 0,2.527" style="fill:#fff;fill-rule:nonzero;"/><path d="M326.095,258.108c-0.698,0.697 -1.83,0.697 -2.528,-0.002c-0.698,-0.697 -0.698,-1.829 0,-2.526c0.698,-0.698 1.83,-0.698 2.528,-0.002c0.697,0.699 0.697,1.831 0,2.53" style="fill:#fff;fill-rule:nonzero;"/><path d="M337.329,269.341c-0.698,0.699 -1.828,0.699 -2.527,0c-0.699,-0.698 -0.699,-1.829 0,-2.526c0.698,-0.699 1.829,-0.699 2.527,0c0.699,0.697 0.699,1.828 0,2.526" style="fill:#fff;fill-rule:nonzero;"/><path d="M348.565,280.577c-0.699,0.698 -1.831,0.698 -2.528,0c-0.698,-0.699 -0.698,-1.831 0,-2.527c0.697,-0.699 1.829,-0.699 2.528,-0.002c0.698,0.698 0.698,1.83 0,2.529" style="fill:#fff;fill-rule:nonzero;"/><path d="M359.798,291.811c-0.697,0.699 -1.828,0.699 -2.526,0c-0.698,-0.697 -0.698,-1.829 0,-2.527c0.698,-0.698 1.829,-0.698 2.527,0c0.698,0.698 0.698,1.83 -0.001,2.527" style="fill:#fff;fill-rule:nonzero;"/><path d="M371.035,303.046c-0.699,0.699 -1.83,0.699 -2.528,0c-0.699,-0.699 -0.699,-1.83 0,-2.526c0.698,-0.699 1.829,-0.699 2.528,0c0.698,0.696 0.698,1.827 0,2.526" style="fill:#fff;fill-rule:nonzero;"/><path d="M302.43,259.303c-0.698,0.698 -1.831,0.697 -2.527,0c-0.699,-0.699 -0.699,-1.832 0,-2.528c0.696,-0.698 1.828,-0.698 2.527,0c0.698,0.696 0.698,1.829 0,2.528" style="fill:#fff;fill-rule:nonzero;"/><path d="M313.664,270.537c-0.697,0.698 -1.829,0.698 -2.528,0c-0.697,-0.697 -0.697,-1.83 0,-2.528c0.699,-0.697 1.831,-0.697 2.528,0c0.698,0.698 0.698,1.831 0,2.528" style="fill:#fff;fill-rule:nonzero;"/><path d="M324.899,281.772c-0.698,0.698 -1.829,0.699 -2.527,0c-0.699,-0.698 -0.699,-1.83 0,-2.527c0.698,-0.699 1.829,-0.699 2.527,0c0.699,0.697 0.699,1.829 0,2.527" style="fill:#fff;fill-rule:nonzero;"/><path d="M336.135,293.007c-0.699,0.697 -1.83,0.697 -2.529,0c-0.697,-0.698 -0.697,-1.831 0,-2.527c0.699,-0.698 1.83,-0.699 2.529,-0.001c0.698,0.697 0.698,1.83 0,2.528" style="fill:#fff;fill-rule:nonzero;"/><path d="M347.368,304.242c-0.697,0.698 -1.828,0.698 -2.527,0c-0.697,-0.698 -0.697,-1.829 0,-2.527c0.699,-0.699 1.83,-0.699 2.528,0c0.698,0.698 0.698,1.829 -0.001,2.527" style="fill:#fff;fill-rule:nonzero;"/><path d="M358.604,315.477c-0.698,0.699 -1.829,0.699 -2.527,0c-0.699,-0.699 -0.699,-1.831 0,-2.527c0.698,-0.699 1.829,-0.699 2.527,0c0.699,0.696 0.699,1.828 0,2.527" style="fill:#fff;fill-rule:nonzero;"/><path d="M289.999,271.734c-0.698,0.697 -1.83,0.697 -2.527,0c-0.699,-0.699 -0.699,-1.832 0,-2.529c0.697,-0.698 1.828,-0.698 2.527,0c0.699,0.697 0.699,1.83 0,2.529" style="fill:#fff;fill-rule:nonzero;"/><path d="M301.234,282.968c-0.698,0.698 -1.831,0.698 -2.529,-0.001c-0.696,-0.697 -0.696,-1.829 0,-2.527c0.698,-0.698 1.831,-0.698 2.529,0c0.697,0.698 0.697,1.83 0,2.528" style="fill:#fff;fill-rule:nonzero;"/><path d="M312.468,294.202c-0.698,0.698 -1.828,0.699 -2.527,0c-0.699,-0.699 -0.699,-1.829 0,-2.526c0.699,-0.699 1.829,-0.699 2.527,0c0.699,0.697 0.699,1.827 0,2.526" style="fill:#fff;fill-rule:nonzero;"/><path d="M323.704,305.439c-0.699,0.696 -1.83,0.696 -2.528,-0.002c-0.698,-0.697 -0.698,-1.83 0,-2.527c0.698,-0.698 1.829,-0.698 2.528,-0.001c0.697,0.698 0.697,1.831 0,2.53" style="fill:#fff;fill-rule:nonzero;"/><path d="M334.937,316.672c-0.696,0.699 -1.828,0.699 -2.526,0c-0.698,-0.698 -0.698,-1.829 0,-2.527c0.698,-0.699 1.83,-0.699 2.528,0c0.697,0.698 0.697,1.829 -0.002,2.527" style="fill:#fff;fill-rule:nonzero;"/><path d="M346.173,327.907c-0.698,0.699 -1.828,0.699 -2.527,0c-0.699,-0.698 -0.699,-1.831 0,-2.526c0.699,-0.699 1.829,-0.699 2.527,0c0.699,0.695 0.699,1.828 0,2.526" style="fill:#fff;fill-rule:nonzero;"/><path d="M40.343,186.117c-0.699,0.699 -1.832,0.698 -2.527,0c-0.699,-0.699 -0.699,-1.831 -0.001,-2.527c0.696,-0.698 1.829,-0.698 2.528,0c0.698,0.696 0.699,1.828 0,2.527" style="fill:#fff;fill-rule:nonzero;"/><path d="M51.578,197.353c-0.698,0.696 -1.83,0.696 -2.529,-0.001c-0.697,-0.698 -0.697,-1.83 0,-2.527c0.699,-0.698 1.831,-0.698 2.529,-0.001c0.697,0.698 0.697,1.83 0,2.529" style="fill:#fff;fill-rule:nonzero;"/><path d="M62.812,208.587c-0.699,0.698 -1.828,0.698 -2.527,0c-0.699,-0.699 -0.699,-1.831 0,-2.528c0.697,-0.699 1.828,-0.699 2.527,0c0.699,0.699 0.699,1.829 0,2.528" style="fill:#fff;fill-rule:nonzero;"/><path d="M74.048,219.822c-0.699,0.698 -1.831,0.698 -2.528,0c-0.698,-0.699 -0.698,-1.831 0,-2.527c0.697,-0.698 1.829,-0.698 2.528,-0.001c0.698,0.697 0.698,1.829 0,2.528" style="fill:#fff;fill-rule:nonzero;"/><path d="M85.281,231.057c-0.698,0.697 -1.828,0.697 -2.527,0c-0.697,-0.698 -0.697,-1.83 0,-2.528c0.699,-0.698 1.829,-0.698 2.527,0c0.699,0.698 0.699,1.83 0,2.528" style="fill:#fff;fill-rule:nonzero;"/><path d="M96.517,242.292c-0.699,0.698 -1.83,0.698 -2.527,0c-0.699,-0.699 -0.699,-1.831 0,-2.528c0.697,-0.698 1.828,-0.698 2.527,0c0.699,0.697 0.699,1.829 0,2.528" style="fill:#fff;fill-rule:nonzero;"/><path d="M27.913,198.548c-0.699,0.698 -1.831,0.698 -2.528,0c-0.699,-0.699 -0.699,-1.831 0,-2.527c0.697,-0.699 1.829,-0.699 2.528,0c0.697,0.696 0.698,1.828 0,2.527" style="fill:#fff;fill-rule:nonzero;"/><path d="M39.147,209.783c-0.698,0.697 -1.83,0.697 -2.528,-0.001c-0.698,-0.697 -0.698,-1.829 0,-2.527c0.698,-0.698 1.83,-0.698 2.528,-0.001c0.698,0.699 0.698,1.831 0,2.529" style="fill:#fff;fill-rule:nonzero;"/><path d="M50.381,221.017c-0.698,0.699 -1.828,0.699 -2.526,0c-0.699,-0.698 -0.699,-1.83 0,-2.527c0.697,-0.698 1.828,-0.698 2.526,0c0.699,0.698 0.699,1.829 0,2.527" style="fill:#fff;fill-rule:nonzero;"/><path d="M61.618,232.253c-0.699,0.697 -1.831,0.697 -2.529,-0.001c-0.698,-0.698 -0.698,-1.83 0,-2.526c0.698,-0.699 1.83,-0.699 2.529,-0.002c0.697,0.698 0.697,1.83 0,2.529" style="fill:#fff;fill-rule:nonzero;"/><path d="M72.851,243.487c-0.697,0.698 -1.829,0.698 -2.527,0c-0.698,-0.697 -0.698,-1.829 0,-2.528c0.698,-0.698 1.83,-0.698 2.527,0c0.699,0.699 0.699,1.831 0,2.528" style="fill:#fff;fill-rule:nonzero;"/><path d="M84.087,254.722c-0.699,0.699 -1.83,0.699 -2.527,0c-0.699,-0.699 -0.699,-1.83 0,-2.527c0.697,-0.698 1.828,-0.698 2.527,0c0.698,0.697 0.698,1.828 0,2.527" style="fill:#fff;fill-rule:nonzero;"/><path d="M15.482,210.978c-0.698,0.699 -1.831,0.698 -2.527,0c-0.699,-0.699 -0.699,-1.831 0,-2.528c0.696,-0.697 1.828,-0.697 2.527,0c0.699,0.697 0.699,1.829 0,2.528" style="fill:#fff;fill-rule:nonzero;"/><path d="M26.717,222.213c-0.698,0.697 -1.83,0.697 -2.529,-0.001c-0.696,-0.697 -0.696,-1.829 0,-2.527c0.699,-0.697 1.831,-0.697 2.529,0c0.697,0.698 0.697,1.83 0,2.528" style="fill:#fff;fill-rule:nonzero;"/><path d="M37.951,233.448c-0.698,0.697 -1.828,0.699 -2.527,0c-0.699,-0.699 -0.699,-1.831 0,-2.527c0.698,-0.699 1.829,-0.699 2.527,0c0.699,0.697 0.699,1.828 0,2.527" style="fill:#fff;fill-rule:nonzero;"/><path d="M49.187,244.683c-0.699,0.697 -1.83,0.697 -2.529,0c-0.697,-0.699 -0.697,-1.831 0,-2.528c0.699,-0.697 1.83,-0.698 2.529,0c0.697,0.697 0.697,1.829 0,2.528" style="fill:#fff;fill-rule:nonzero;"/><path d="M60.42,255.917c-0.697,0.699 -1.828,0.699 -2.527,0c-0.697,-0.698 -0.697,-1.829 0,-2.527c0.699,-0.699 1.83,-0.699 2.528,0c0.698,0.698 0.698,1.829 -0.001,2.527" style="fill:#fff;fill-rule:nonzero;"/><path d="M71.656,267.153c-0.698,0.699 -1.829,0.699 -2.527,0c-0.699,-0.699 -0.699,-1.831 0,-2.527c0.698,-0.699 1.829,-0.699 2.527,0c0.699,0.696 0.699,1.828 0,2.527" style="fill:#fff;fill-rule:nonzero;"/><path d="M3.051,223.409c-0.698,0.698 -1.83,0.698 -2.527,0c-0.699,-0.699 -0.699,-1.831 0,-2.528c0.697,-0.698 1.829,-0.698 2.527,0c0.699,0.697 0.699,1.829 0,2.528" style="fill:#fff;fill-rule:nonzero;"/><path d="M14.286,234.643c-0.698,0.699 -1.83,0.699 -2.529,-0.001c-0.696,-0.696 -0.696,-1.828 0,-2.527c0.699,-0.697 1.831,-0.697 2.529,0c0.698,0.699 0.698,1.831 0,2.528" style="fill:#fff;fill-rule:nonzero;"/><path d="M25.52,245.878c-0.697,0.698 -1.828,0.699 -2.526,0c-0.699,-0.699 -0.699,-1.83 0,-2.526c0.698,-0.699 1.829,-0.699 2.526,0c0.699,0.696 0.699,1.827 0,2.526" style="fill:#fff;fill-rule:nonzero;"/><path d="M36.756,257.114c-0.698,0.696 -1.83,0.696 -2.528,-0.002c-0.698,-0.697 -0.698,-1.829 0,-2.526c0.698,-0.698 1.83,-0.699 2.528,-0.002c0.698,0.699 0.698,1.831 0,2.53" style="fill:#fff;fill-rule:nonzero;"/><path d="M47.99,268.347c-0.697,0.7 -1.829,0.7 -2.527,0c-0.698,-0.697 -0.698,-1.829 0,-2.526c0.698,-0.699 1.83,-0.699 2.528,0c0.698,0.697 0.698,1.829 -0.001,2.526" style="fill:#fff;fill-rule:nonzero;"/><path d="M59.225,279.583c-0.697,0.699 -1.828,0.699 -2.526,0c-0.699,-0.699 -0.699,-1.831 0,-2.526c0.698,-0.699 1.829,-0.699 2.526,0c0.699,0.695 0.699,1.827 0,2.526" style="fill:#fff;fill-rule:nonzero;"/><path d="M151.367,314.302c0.543,0.543 0.542,1.424 0,1.966c-0.543,0.543 -1.424,0.543 -1.965,0c-0.544,-0.542 -0.544,-1.423 0,-1.966c0.541,-0.542 1.422,-0.543 1.965,0" style="fill:#fff;fill-rule:nonzero;"/><path d="M160.104,305.566c0.542,0.542 0.542,1.423 0,1.966c-0.543,0.543 -1.423,0.543 -1.966,0c-0.542,-0.543 -0.542,-1.424 -0.001,-1.966c0.544,-0.543 1.424,-0.543 1.967,0" style="fill:#fff;fill-rule:nonzero;"/><path d="M168.84,296.829c0.543,0.544 0.543,1.422 0,1.966c-0.543,0.543 -1.423,0.543 -1.966,0c-0.543,-0.543 -0.543,-1.422 0,-1.966c0.544,-0.543 1.423,-0.543 1.966,0" style="fill:#fff;fill-rule:nonzero;"/><path d="M177.578,288.092c0.542,0.543 0.542,1.424 0,1.966c-0.544,0.542 -1.425,0.542 -1.966,0c-0.543,-0.542 -0.543,-1.423 -0.001,-1.966c0.542,-0.543 1.423,-0.543 1.967,0" style="fill:#fff;fill-rule:nonzero;"/><path d="M186.314,279.356c0.543,0.542 0.543,1.422 0,1.965c-0.542,0.543 -1.423,0.543 -1.966,0c-0.542,-0.543 -0.542,-1.423 0,-1.965c0.543,-0.543 1.424,-0.543 1.966,0" style="fill:#fff;fill-rule:nonzero;"/><path d="M195.051,270.619c0.543,0.543 0.543,1.423 0,1.965c-0.544,0.543 -1.423,0.543 -1.966,0c-0.543,-0.542 -0.543,-1.422 0,-1.965c0.543,-0.543 1.422,-0.543 1.966,0" style="fill:#fff;fill-rule:nonzero;"/><path d="M161.034,323.969c0.542,0.543 0.542,1.424 0,1.966c-0.544,0.543 -1.425,0.543 -1.966,0c-0.543,-0.542 -0.543,-1.423 0,-1.966c0.541,-0.543 1.422,-0.543 1.966,0" style="fill:#fff;fill-rule:nonzero;"/><path d="M169.771,315.233c0.542,0.541 0.542,1.423 -0.001,1.966c-0.542,0.542 -1.423,0.542 -1.966,0c-0.542,-0.543 -0.542,-1.425 0,-1.966c0.543,-0.543 1.424,-0.543 1.967,0" style="fill:#fff;fill-rule:nonzero;"/><path d="M178.507,306.496c0.543,0.543 0.543,1.422 0,1.965c-0.543,0.543 -1.423,0.543 -1.966,0c-0.543,-0.543 -0.543,-1.422 0,-1.965c0.543,-0.544 1.423,-0.544 1.966,0" style="fill:#fff;fill-rule:nonzero;"/><path d="M187.244,297.758c0.542,0.544 0.542,1.424 0,1.967c-0.543,0.542 -1.424,0.542 -1.966,0c-0.543,-0.543 -0.543,-1.423 0,-1.967c0.542,-0.542 1.423,-0.542 1.966,0" style="fill:#fff;fill-rule:nonzero;"/><path d="M195.98,289.023c0.543,0.542 0.543,1.422 0,1.965c-0.542,0.543 -1.422,0.543 -1.966,0c-0.542,-0.543 -0.542,-1.423 0,-1.965c0.544,-0.544 1.424,-0.544 1.966,0" style="fill:#fff;fill-rule:nonzero;"/><path d="M204.717,280.285c0.544,0.543 0.544,1.423 0,1.966c-0.543,0.543 -1.423,0.543 -1.965,0c-0.543,-0.543 -0.543,-1.423 0,-1.966c0.542,-0.543 1.422,-0.543 1.965,0" style="fill:#fff;fill-rule:nonzero;"/><path d="M170.7,333.636c0.543,0.542 0.542,1.423 0,1.965c-0.543,0.543 -1.424,0.543 -1.966,0c-0.543,-0.542 -0.543,-1.422 0,-1.965c0.542,-0.543 1.423,-0.544 1.966,0" style="fill:#fff;fill-rule:nonzero;"/><path d="M179.437,324.899c0.542,0.542 0.542,1.423 -0.001,1.967c-0.542,0.541 -1.422,0.541 -1.965,0c-0.543,-0.544 -0.543,-1.425 -0.001,-1.967c0.544,-0.542 1.424,-0.542 1.967,0" style="fill:#fff;fill-rule:nonzero;"/><path d="M188.173,316.162c0.543,0.543 0.544,1.423 0,1.966c-0.543,0.543 -1.423,0.543 -1.965,0c-0.543,-0.543 -0.543,-1.423 0,-1.966c0.542,-0.543 1.422,-0.543 1.965,0" style="fill:#fff;fill-rule:nonzero;"/><path d="M196.911,307.425c0.541,0.543 0.541,1.423 -0.001,1.966c-0.543,0.543 -1.423,0.543 -1.966,0c-0.542,-0.543 -0.543,-1.423 0,-1.966c0.543,-0.542 1.423,-0.542 1.967,0" style="fill:#fff;fill-rule:nonzero;"/><path d="M205.646,298.689c0.543,0.542 0.543,1.423 0,1.966c-0.541,0.542 -1.422,0.542 -1.965,0c-0.543,-0.543 -0.543,-1.424 0,-1.966c0.543,-0.543 1.424,-0.543 1.965,0" style="fill:#fff;fill-rule:nonzero;"/><path d="M214.383,289.952c0.544,0.543 0.544,1.422 0,1.965c-0.543,0.543 -1.423,0.543 -1.964,0c-0.544,-0.543 -0.544,-1.422 0,-1.965c0.541,-0.544 1.421,-0.544 1.964,0" style="fill:#fff;fill-rule:nonzero;"/><path d="M180.367,343.302c0.542,0.542 0.542,1.423 0,1.965c-0.544,0.543 -1.424,0.543 -1.967,0c-0.542,-0.542 -0.542,-1.421 0,-1.965c0.543,-0.543 1.423,-0.543 1.967,0" style="fill:#fff;fill-rule:nonzero;"/><path d="M189.103,334.565c0.542,0.543 0.542,1.423 -0.001,1.967c-0.541,0.541 -1.422,0.541 -1.965,0c-0.543,-0.544 -0.543,-1.424 0,-1.967c0.543,-0.542 1.424,-0.542 1.966,0" style="fill:#fff;fill-rule:nonzero;"/><path d="M197.839,325.829c0.543,0.542 0.544,1.422 0,1.965c-0.543,0.544 -1.423,0.544 -1.964,0c-0.544,-0.543 -0.544,-1.423 0,-1.965c0.541,-0.543 1.421,-0.543 1.964,0" style="fill:#fff;fill-rule:nonzero;"/><path d="M206.577,317.092c0.541,0.543 0.541,1.423 -0.001,1.966c-0.542,0.542 -1.423,0.542 -1.965,0c-0.542,-0.543 -0.543,-1.423 -0.001,-1.966c0.543,-0.543 1.424,-0.543 1.967,0" style="fill:#fff;fill-rule:nonzero;"/><path d="M215.313,308.356c0.543,0.541 0.543,1.422 0,1.965c-0.542,0.542 -1.422,0.542 -1.965,0c-0.544,-0.543 -0.544,-1.424 0,-1.966c0.543,-0.542 1.423,-0.542 1.965,0.001" style="fill:#fff;fill-rule:nonzero;"/><path d="M224.05,299.618c0.543,0.543 0.543,1.423 0,1.966c-0.543,0.543 -1.424,0.543 -1.965,0c-0.543,-0.543 -0.543,-1.423 0,-1.966c0.541,-0.543 1.422,-0.543 1.965,0" style="fill:#fff;fill-rule:nonzero;"/><path d="M438.879,51.731c0.543,0.543 0.543,1.424 0,1.966c-0.543,0.543 -1.424,0.543 -1.965,0c-0.544,-0.542 -0.544,-1.423 0,-1.966c0.541,-0.542 1.422,-0.543 1.965,0" style="fill:#fff;fill-rule:nonzero;"/><path d="M447.616,42.995c0.542,0.542 0.542,1.423 0,1.966c-0.543,0.542 -1.423,0.542 -1.966,0c-0.542,-0.543 -0.542,-1.424 -0.001,-1.966c0.544,-0.543 1.424,-0.543 1.967,0" style="fill:#fff;fill-rule:nonzero;"/><path d="M456.352,34.258c0.543,0.543 0.543,1.422 0,1.965c-0.542,0.544 -1.423,0.544 -1.965,0c-0.544,-0.542 -0.544,-1.422 0,-1.965c0.543,-0.544 1.423,-0.544 1.965,0" style="fill:#fff;fill-rule:nonzero;"/><path d="M465.09,25.521c0.542,0.543 0.542,1.423 0,1.966c-0.544,0.542 -1.425,0.542 -1.966,0c-0.543,-0.543 -0.543,-1.423 -0.001,-1.966c0.542,-0.543 1.423,-0.543 1.967,0" style="fill:#fff;fill-rule:nonzero;"/><path d="M473.826,16.785c0.543,0.542 0.543,1.422 0,1.965c-0.542,0.543 -1.423,0.543 -1.966,0c-0.542,-0.543 -0.542,-1.423 0,-1.965c0.543,-0.543 1.424,-0.543 1.966,0" style="fill:#fff;fill-rule:nonzero;"/><path d="M482.563,8.047c0.543,0.544 0.543,1.424 0,1.966c-0.543,0.543 -1.423,0.543 -1.966,0c-0.543,-0.542 -0.543,-1.422 0,-1.966c0.543,-0.543 1.423,-0.543 1.966,0" style="fill:#fff;fill-rule:nonzero;"/><path d="M448.546,61.398c0.542,0.543 0.542,1.423 0,1.965c-0.544,0.544 -1.425,0.544 -1.966,0c-0.543,-0.542 -0.543,-1.422 0,-1.965c0.541,-0.543 1.422,-0.544 1.966,0" style="fill:#fff;fill-rule:nonzero;"/><path d="M457.283,52.661c0.542,0.543 0.542,1.423 -0.001,1.966c-0.542,0.543 -1.423,0.543 -1.966,0c-0.542,-0.543 -0.542,-1.423 0,-1.966c0.543,-0.542 1.424,-0.542 1.967,0" style="fill:#fff;fill-rule:nonzero;"/><path d="M466.019,43.925c0.543,0.543 0.543,1.421 0,1.965c-0.543,0.543 -1.423,0.543 -1.966,0c-0.543,-0.543 -0.543,-1.422 0,-1.965c0.543,-0.544 1.423,-0.544 1.966,0" style="fill:#fff;fill-rule:nonzero;"/><path d="M474.756,35.187c0.542,0.543 0.542,1.424 0,1.966c-0.543,0.543 -1.424,0.543 -1.966,0c-0.543,-0.542 -0.543,-1.423 0,-1.966c0.542,-0.542 1.423,-0.542 1.966,0" style="fill:#fff;fill-rule:nonzero;"/><path d="M483.492,26.452c0.543,0.541 0.543,1.421 0,1.965c-0.542,0.543 -1.422,0.543 -1.966,0c-0.542,-0.544 -0.542,-1.424 0,-1.965c0.544,-0.544 1.424,-0.544 1.966,0" style="fill:#fff;fill-rule:nonzero;"/><path d="M492.229,17.714c0.544,0.543 0.544,1.423 0,1.965c-0.543,0.544 -1.423,0.544 -1.965,0c-0.543,-0.542 -0.543,-1.422 0,-1.965c0.542,-0.544 1.422,-0.544 1.965,0" style="fill:#fff;fill-rule:nonzero;"/><path d="M458.212,71.064c0.543,0.543 0.542,1.423 0,1.966c-0.543,0.543 -1.424,0.543 -1.966,0c-0.543,-0.543 -0.543,-1.422 0,-1.966c0.542,-0.543 1.423,-0.543 1.966,0" style="fill:#fff;fill-rule:nonzero;"/><path d="M466.949,62.328c0.542,0.542 0.542,1.423 -0.001,1.966c-0.541,0.542 -1.422,0.542 -1.965,0c-0.543,-0.543 -0.543,-1.424 -0.001,-1.966c0.544,-0.543 1.425,-0.543 1.967,0" style="fill:#fff;fill-rule:nonzero;"/><path d="M475.685,53.591c0.543,0.543 0.544,1.422 0,1.965c-0.543,0.544 -1.423,0.544 -1.965,0c-0.543,-0.542 -0.543,-1.422 0,-1.965c0.542,-0.544 1.422,-0.544 1.965,0" style="fill:#fff;fill-rule:nonzero;"/><path d="M484.423,44.854c0.541,0.543 0.541,1.423 -0.001,1.966c-0.543,0.543 -1.423,0.543 -1.966,0c-0.542,-0.543 -0.543,-1.423 0,-1.966c0.543,-0.543 1.423,-0.543 1.967,0" style="fill:#fff;fill-rule:nonzero;"/><path d="M493.158,36.118c0.543,0.542 0.543,1.422 0,1.966c-0.541,0.542 -1.422,0.542 -1.965,0c-0.543,-0.544 -0.543,-1.424 0,-1.967c0.543,-0.542 1.424,-0.542 1.965,0.001" style="fill:#fff;fill-rule:nonzero;"/><path d="M501.895,27.381c0.544,0.543 0.544,1.422 0,1.965c-0.543,0.543 -1.423,0.543 -1.964,0c-0.544,-0.543 -0.544,-1.422 0,-1.965c0.541,-0.544 1.421,-0.544 1.964,0" style="fill:#fff;fill-rule:nonzero;"/><path d="M467.879,80.731c0.542,0.542 0.542,1.423 0,1.965c-0.544,0.544 -1.424,0.544 -1.967,0c-0.542,-0.542 -0.542,-1.422 0,-1.965c0.543,-0.544 1.423,-0.544 1.967,0" style="fill:#fff;fill-rule:nonzero;"/><path d="M476.615,71.994c0.542,0.543 0.542,1.423 -0.001,1.966c-0.541,0.542 -1.422,0.542 -1.965,0c-0.543,-0.543 -0.543,-1.423 0,-1.966c0.543,-0.542 1.424,-0.542 1.966,0" style="fill:#fff;fill-rule:nonzero;"/><path d="M485.352,63.258c0.542,0.542 0.543,1.421 0,1.965c-0.544,0.543 -1.424,0.543 -1.965,0c-0.544,-0.544 -0.544,-1.423 0,-1.965c0.541,-0.543 1.421,-0.543 1.965,0" style="fill:#fff;fill-rule:nonzero;"/><path d="M494.089,54.52c0.541,0.544 0.541,1.423 -0.001,1.966c-0.542,0.543 -1.423,0.543 -1.965,0c-0.542,-0.543 -0.543,-1.422 -0.001,-1.966c0.543,-0.542 1.424,-0.542 1.967,0" style="fill:#fff;fill-rule:nonzero;"/><path d="M502.825,45.785c0.543,0.541 0.543,1.421 0,1.965c-0.542,0.543 -1.422,0.543 -1.965,0c-0.544,-0.544 -0.544,-1.424 0,-1.966c0.543,-0.543 1.423,-0.543 1.965,0.001" style="fill:#fff;fill-rule:nonzero;"/><path d="M511.562,37.047c0.543,0.543 0.543,1.422 0,1.965c-0.543,0.544 -1.424,0.544 -1.965,0c-0.543,-0.543 -0.543,-1.422 0,-1.965c0.541,-0.544 1.422,-0.544 1.965,0" style="fill:#fff;fill-rule:nonzero;"/><path d="M65.668,-0.072c-0.543,0.543 -1.423,0.543 -1.966,0c-0.542,-0.542 -0.542,-1.423 0,-1.966c0.543,-0.542 1.423,-0.542 1.966,0c0.543,0.543 0.543,1.424 0,1.966" style="fill:#fff;fill-rule:nonzero;"/><path d="M74.405,8.665c-0.543,0.543 -1.423,0.543 -1.965,0c-0.543,-0.543 -0.543,-1.423 0,-1.965c0.542,-0.544 1.422,-0.544 1.965,0c0.544,0.542 0.544,1.422 0,1.965" style="fill:#fff;fill-rule:nonzero;"/><path d="M47.265,0.858c-0.543,0.543 -1.423,0.543 -1.966,0c-0.542,-0.543 -0.542,-1.423 0,-1.965c0.543,-0.543 1.423,-0.544 1.966,-0.001c0.543,0.543 0.543,1.423 0,1.966" style="fill:#fff;fill-rule:nonzero;"/><path d="M56.001,9.594c-0.542,0.544 -1.422,0.544 -1.966,0c-0.541,-0.542 -0.541,-1.422 0,-1.965c0.544,-0.543 1.424,-0.543 1.967,0c0.542,0.543 0.542,1.423 -0.001,1.965" style="fill:#fff;fill-rule:nonzero;"/><path d="M64.739,18.332c-0.544,0.543 -1.423,0.543 -1.966,0c-0.543,-0.544 -0.543,-1.423 0,-1.966c0.543,-0.543 1.422,-0.543 1.966,0c0.543,0.543 0.543,1.422 0,1.966" style="fill:#fff;fill-rule:nonzero;"/><path d="M28.861,1.788c-0.542,0.542 -1.421,0.543 -1.965,0c-0.543,-0.544 -0.543,-1.423 0,-1.966c0.543,-0.543 1.423,-0.543 1.965,0c0.543,0.543 0.543,1.422 0,1.966" style="fill:#fff;fill-rule:nonzero;"/><path d="M37.599,10.525c-0.544,0.542 -1.424,0.542 -1.966,-0.001c-0.543,-0.543 -0.543,-1.423 0,-1.965c0.542,-0.543 1.422,-0.543 1.966,-0.001c0.542,0.543 0.542,1.423 0,1.967" style="fill:#fff;fill-rule:nonzero;"/><path d="M46.334,19.261c-0.541,0.543 -1.422,0.543 -1.965,0c-0.542,-0.543 -0.542,-1.422 0,-1.966c0.543,-0.543 1.424,-0.543 1.966,0c0.543,0.544 0.543,1.423 -0.001,1.966" style="fill:#fff;fill-rule:nonzero;"/><path d="M55.072,27.998c-0.543,0.544 -1.422,0.544 -1.966,0c-0.543,-0.543 -0.543,-1.424 0,-1.965c0.544,-0.544 1.423,-0.544 1.966,0c0.543,0.541 0.543,1.422 0,1.965" style="fill:#fff;fill-rule:nonzero;"/><path d="M10.458,2.718c-0.542,0.542 -1.423,0.542 -1.966,-0.001c-0.541,-0.542 -0.541,-1.422 0,-1.966c0.543,-0.542 1.424,-0.542 1.966,0c0.542,0.544 0.542,1.424 0,1.967" style="fill:#fff;fill-rule:nonzero;"/><path d="M19.195,11.454c-0.542,0.542 -1.422,0.544 -1.965,0c-0.544,-0.543 -0.544,-1.423 0,-1.965c0.543,-0.544 1.423,-0.544 1.965,0c0.543,0.542 0.543,1.422 0,1.965" style="fill:#fff;fill-rule:nonzero;"/><path d="M27.932,20.191c-0.543,0.542 -1.423,0.542 -1.966,0c-0.542,-0.543 -0.542,-1.423 0,-1.966c0.543,-0.542 1.423,-0.544 1.966,0c0.543,0.543 0.543,1.423 0,1.966" style="fill:#fff;fill-rule:nonzero;"/><path d="M36.668,28.927c-0.542,0.544 -1.422,0.544 -1.965,0c-0.543,-0.543 -0.543,-1.422 0,-1.965c0.543,-0.544 1.423,-0.544 1.966,0c0.542,0.543 0.542,1.422 -0.001,1.965" style="fill:#fff;fill-rule:nonzero;"/><path d="M45.405,37.665c-0.542,0.543 -1.421,0.543 -1.965,0c-0.543,-0.544 -0.543,-1.424 0,-1.966c0.544,-0.543 1.423,-0.543 1.965,0c0.543,0.542 0.543,1.422 0,1.966" style="fill:#fff;fill-rule:nonzero;"/><path d="M86.822,14.727l50.957,50.957l-50.958,50.957l-50.957,-50.957l50.958,-50.957Z" style="fill:#9bf7f2;"/><path d="M432.97,26.411l33.17,33.172l-33.171,33.17l-33.17,-33.171l33.171,-33.171Z" style="fill:#9bf7f2;"/><path d="M59.55,261.02l33.17,33.17l-33.17,33.171l-33.17,-33.171l33.17,-33.17Z" style="fill:#9bf7f2;"/><path d="M35.864,137.511l91.779,-91.78" style="fill:none;stroke:#fff;stroke-width:0.24px;"/><path d="M35.864,151.362l91.779,-91.78" style="fill:none;stroke:#fff;stroke-width:0.24px;"/><path d="M35.864,123.661l91.779,-91.781" style="fill:none;stroke:#fff;stroke-width:0.24px;"/><path d="M35.864,109.81l91.779,-91.781" style="fill:none;stroke:#fff;stroke-width:0.24px;"/><path d="M174.936,225.309l-15.842,9.083l-15.843,9.082l0.056,-18.26l0.054,-18.261l15.789,9.177l15.786,9.179Z" style="fill:#9bf7f2;fill-rule:nonzero;"/><path d="M371.859,153.604c0.41,15.603 -11.904,28.58 -27.508,28.99c-15.599,0.409 -28.583,-11.903 -28.992,-27.507c-0.41,-15.603 11.912,-28.582 27.51,-28.992c15.604,-0.409 28.581,11.907 28.99,27.509" style="fill:#9bf7f2;fill-rule:nonzero;"/><path d="M298.72,12.694c0.326,12.392 -9.454,22.698 -21.846,23.023c-12.388,0.325 -22.7,-9.454 -23.025,-21.846c-0.325,-12.391 9.46,-22.698 21.848,-23.024c12.392,-0.325 22.698,9.455 23.023,21.847" style="fill:#9bf7f2;fill-rule:nonzero;"/><path d="M504.454,320.317c0.447,17.037 -12.998,31.206 -30.035,31.653c-17.032,0.446 -31.209,-12.997 -31.656,-30.035c-0.447,-17.036 13.006,-31.207 30.037,-31.654c17.037,-0.447 31.207,12.999 31.654,30.036" style="fill:#9bf7f2;fill-rule:nonzero;"/></g></g><g><clipPath id="_clip5"><path d="M317.124,81.651c-15.387,18.26 -13.06,45.535 5.199,60.922c18.26,15.386 45.536,13.06 60.921,-5.201c15.385,-18.259 13.058,-45.536 -5.202,-60.921c-8.112,-6.835 -18,-10.174 -27.838,-10.174c-12.305,0.001 -24.53,5.228 -33.08,15.374Z" clip-rule="nonzero"/></clipPath><g clip-path="url(#_clip5)"><path d="M287.51,107.982l61.146,-61.145l3.057,3.057l-61.145,61.146l-3.058,-3.058Z" style="fill:#fff;"/><path d="M294.3,114.776l61.148,-61.146l3.058,3.058l-61.148,61.146l-3.058,-3.058Z" style="fill:#fff;"/><path d="M301.097,121.573l61.148,-61.148l3.056,3.057l-61.147,61.147l-3.057,-3.056Z" style="fill:#fff;"/><path d="M307.89,128.365l61.147,-61.146l3.058,3.058l-61.147,61.146l-3.058,-3.058Z" style="fill:#fff;"/><path d="M314.684,135.16l61.147,-61.147l3.058,3.058l-61.147,61.147l-3.058,-3.058Z" style="fill:#fff;"/><path d="M321.479,141.953l61.145,-61.147l3.059,3.059l-61.146,61.147l-3.058,-3.059Z" style="fill:#fff;"/><path d="M328.27,148.747l61.149,-61.147l3.058,3.058l-61.149,61.148l-3.058,-3.059Z" style="fill:#fff;"/><path d="M335.066,155.542l61.147,-61.147l3.057,3.057l-61.147,61.147l-3.057,-3.057Z" style="fill:#fff;"/><path d="M341.859,162.334l61.147,-61.145l3.059,3.059l-61.148,61.145l-3.058,-3.059Z" style="fill:#fff;"/><path d="M348.653,169.13l61.146,-61.149l3.057,3.058l-61.146,61.149l-3.057,-3.058Z" style="fill:#fff;"/></g></g><g><clipPath id="_clip6"><path d="M118.727,228.463c-10.512,12.4 -8.984,30.976 3.415,41.489c12.4,10.513 30.976,8.986 41.488,-3.415c10.512,-12.401 8.985,-30.975 -3.416,-41.487c-5.533,-4.692 -12.296,-6.985 -19.022,-6.985c-8.348,0 -16.642,3.533 -22.465,10.398Z" clip-rule="nonzero"/></clipPath><g clip-path="url(#_clip6)"><path d="M98.51,246.33l41.758,-41.504l2.076,2.089l-41.758,41.503l-2.076,-2.088Z" style="fill:#fff;"/><path d="M103.119,250.969l41.76,-41.504l2.076,2.089l-41.76,41.504l-2.076,-2.089Z" style="fill:#fff;"/><path d="M107.734,255.612l41.758,-41.507l2.074,2.087l-41.758,41.506l-2.074,-2.086Z" style="fill:#fff;"/><path d="M112.345,260.248l41.757,-41.503l2.075,2.088l-41.756,41.503l-2.076,-2.088Z" style="fill:#fff;"/><path d="M116.957,264.889l41.757,-41.505l2.076,2.088l-41.757,41.505l-2.076,-2.088Z" style="fill:#fff;"/><path d="M121.569,269.529l41.756,-41.505l2.076,2.089l-41.756,41.504l-2.076,-2.088Z" style="fill:#fff;"/><path d="M126.179,274.168l41.758,-41.504l2.075,2.088l-41.757,41.504l-2.076,-2.088Z" style="fill:#fff;"/><path d="M130.792,278.808l41.756,-41.505l2.076,2.088l-41.757,41.505l-2.075,-2.088Z" style="fill:#fff;"/><path d="M135.401,283.447l41.759,-41.504l2.076,2.089l-41.759,41.504l-2.076,-2.089Z" style="fill:#fff;"/><path d="M140.013,288.087l41.757,-41.507l2.076,2.089l-41.756,41.506l-2.077,-2.088Z" style="fill:#fff;"/></g></g><path d="M459.583,202.605l4.779,-17.624l4.781,-17.625l12.872,12.951l12.875,12.952l-17.655,4.674l-17.652,4.672Z" style="fill:#9bf7f2;fill-rule:nonzero;"/><g><clipPath id="_clip7"><path d="M465.347,133.708c-16.202,1.333 -28.258,15.548 -26.922,31.751c1.335,16.2 15.55,28.256 31.752,26.919c16.202,-1.334 28.254,-15.548 26.922,-31.749c-1.268,-15.381 -14.143,-27.023 -29.305,-27.023c-0.809,0.001 -1.627,0.034 -2.447,0.102Z" clip-rule="nonzero"/></clipPath><g clip-path="url(#_clip7)"><path d="M498.76,133.701l-0.18,58.874l-2.944,-0.009l0.179,-58.874l2.945,0.009Z" style="fill:#fff;"/><path d="M492.221,133.68l-0.182,58.875l-2.945,-0.009l0.182,-58.875l2.945,0.009Z" style="fill:#fff;"/><path d="M485.674,133.659l-0.177,58.877l-2.942,-0.009l0.178,-58.877l2.941,0.009Z" style="fill:#fff;"/><path d="M479.136,133.642l-0.179,58.873l-2.945,-0.009l0.18,-58.873l2.944,0.009Z" style="fill:#fff;"/><path d="M472.592,133.621l-0.178,58.875l-2.943,-0.009l0.178,-58.875l2.943,0.009Z" style="fill:#fff;"/><path d="M466.051,133.601l-0.177,58.874l-2.945,-0.009l0.177,-58.874l2.945,0.009Z" style="fill:#fff;"/><path d="M459.511,133.581l-0.179,58.875l-2.945,-0.009l0.18,-58.875l2.944,0.009Z" style="fill:#fff;"/><path d="M452.969,133.561l-0.179,58.875l-2.944,-0.009l0.179,-58.875l2.944,0.009Z" style="fill:#fff;"/><path d="M446.43,133.542l-0.181,58.874l-2.946,-0.009l0.181,-58.874l2.946,0.009Z" style="fill:#fff;"/><path d="M439.886,133.521l-0.177,58.876l-2.945,-0.009l0.177,-58.876l2.945,0.009Z" style="fill:#fff;"/></g></g><g><clipPath id="_clip8"><rect x="0" y="0" width="519.6" height="346.334" clip-rule="nonzero"/></clipPath><g clip-path="url(#_clip8)"><path d="M195.504,254.182l82.034,-82.037" style="fill:none;stroke:#fff;stroke-width:0.24px;"/><path d="M195.504,266.561l82.034,-82.035" style="fill:none;stroke:#fff;stroke-width:0.24px;"/><path d="M195.504,241.801l82.034,-82.036" style="fill:none;stroke:#fff;stroke-width:0.24px;"/><path d="M195.504,229.42l82.034,-82.036" style="fill:none;stroke:#fff;stroke-width:0.24px;"/><path d="M213.227,156.587l82.034,-82.037" style="fill:none;stroke:#fff;stroke-width:0.24px;"/><path d="M213.227,168.967l82.034,-82.036" style="fill:none;stroke:#fff;stroke-width:0.24px;"/><path d="M213.227,144.206l82.034,-82.036" style="fill:none;stroke:#fff;stroke-width:0.24px;"/><path d="M213.227,131.825l82.034,-82.035" style="fill:none;stroke:#fff;stroke-width:0.24px;"/><path d="M221.382,118.348l-10.154,-17.588l-10.154,-17.587l40.616,0l-10.155,17.587l-10.153,17.588Z" style="fill:#9bf7f2;fill-rule:nonzero;"/><path d="M127.819,319.537l9.494,16.446l9.495,16.445l-18.989,0l-18.99,0l9.495,-16.445l9.495,-16.446Z" style="fill:#9bf7f2;fill-rule:nonzero;"/><path d="M353.285,43.486l8.314,-4.8l8.313,-4.799l0,19.198l-8.313,-4.799l-8.314,-4.8Z" style="fill:#9bf7f2;fill-rule:nonzero;"/><path d="M477.296,247.169l8.314,-4.8l8.314,-4.799l0,19.199l-8.314,-4.8l-8.314,-4.8Z" style="fill:#9bf7f2;fill-rule:nonzero;"/><path d="M229.251,284.118l8.314,-4.8l8.313,-4.799l0,19.199l-8.313,-4.799l-8.314,-4.801Z" style="fill:#9bf7f2;fill-rule:nonzero;"/><path d="M373.15,195.419l4.799,8.314l4.799,8.314l-9.598,0l-9.6,0l4.799,-8.314l4.801,-8.314Z" style="fill:#fff;fill-rule:nonzero;"/><path d="M131.58,160.057c0.623,0.624 0.622,1.635 0,2.259c-0.624,0.624 -1.636,0.624 -2.26,0c-0.624,-0.624 -0.624,-1.635 0,-2.259c0.624,-0.624 1.636,-0.624 2.26,0" style="fill:#fff;fill-rule:nonzero;"/><path d="M141.622,150.015c0.623,0.624 0.623,1.635 -0.001,2.259c-0.623,0.624 -1.635,0.624 -2.258,0c-0.625,-0.624 -0.625,-1.635 -0.002,-2.259c0.625,-0.625 1.637,-0.625 2.261,0" style="fill:#fff;fill-rule:nonzero;"/><path d="M151.663,139.973c0.624,0.624 0.625,1.635 0,2.259c-0.623,0.624 -1.635,0.624 -2.259,0c-0.624,-0.624 -0.624,-1.635 0,-2.26c0.624,-0.624 1.636,-0.623 2.259,0.001" style="fill:#fff;fill-rule:nonzero;"/><path d="M161.706,129.931c0.623,0.624 0.623,1.635 0,2.259c-0.625,0.624 -1.635,0.624 -2.26,0c-0.623,-0.624 -0.624,-1.635 0,-2.259c0.625,-0.625 1.635,-0.625 2.26,0" style="fill:#fff;fill-rule:nonzero;"/><path d="M171.748,119.889c0.623,0.623 0.623,1.635 0,2.258c-0.624,0.625 -1.636,0.625 -2.26,0.001c-0.624,-0.624 -0.624,-1.636 0,-2.259c0.624,-0.625 1.636,-0.625 2.26,0" style="fill:#fff;fill-rule:nonzero;"/><path d="M181.789,109.846c0.625,0.624 0.625,1.635 0,2.26c-0.623,0.624 -1.635,0.624 -2.258,0c-0.625,-0.625 -0.625,-1.636 -0.001,-2.26c0.624,-0.624 1.636,-0.624 2.259,0" style="fill:#fff;fill-rule:nonzero;"/><path d="M142.69,171.167c0.624,0.624 0.623,1.636 0,2.26c-0.623,0.624 -1.636,0.624 -2.259,0c-0.624,-0.624 -0.624,-1.635 0,-2.26c0.623,-0.623 1.636,-0.623 2.259,0" style="fill:#fff;fill-rule:nonzero;"/><path d="M152.732,161.126c0.624,0.624 0.624,1.635 0,2.259c-0.623,0.624 -1.635,0.624 -2.259,0c-0.624,-0.624 -0.624,-1.635 -0.001,-2.259c0.625,-0.625 1.637,-0.625 2.26,0" style="fill:#fff;fill-rule:nonzero;"/><path d="M162.775,151.084c0.622,0.624 0.623,1.635 0,2.259c-0.625,0.624 -1.636,0.624 -2.26,0c-0.624,-0.624 -0.624,-1.635 0,-2.26c0.625,-0.624 1.635,-0.623 2.26,0.001" style="fill:#fff;fill-rule:nonzero;"/><path d="M172.817,141.041c0.623,0.624 0.623,1.635 -0.001,2.26c-0.624,0.624 -1.635,0.624 -2.259,0c-0.624,-0.625 -0.624,-1.636 -0.001,-2.26c0.625,-0.624 1.637,-0.624 2.261,0" style="fill:#fff;fill-rule:nonzero;"/><path d="M182.858,131c0.624,0.623 0.624,1.635 0,2.258c-0.623,0.625 -1.635,0.625 -2.259,0.001c-0.623,-0.624 -0.623,-1.636 0,-2.259c0.624,-0.625 1.636,-0.625 2.259,0" style="fill:#fff;fill-rule:nonzero;"/><path d="M192.901,120.957c0.623,0.624 0.623,1.635 -0.001,2.26c-0.623,0.624 -1.635,0.624 -2.259,0c-0.624,-0.625 -0.624,-1.636 0,-2.26c0.624,-0.624 1.636,-0.624 2.26,0" style="fill:#fff;fill-rule:nonzero;"/><path d="M153.801,182.278c0.623,0.623 0.623,1.636 0,2.26c-0.624,0.623 -1.635,0.623 -2.26,0c-0.624,-0.624 -0.624,-1.636 0,-2.26c0.625,-0.623 1.636,-0.624 2.26,0" style="fill:#fff;fill-rule:nonzero;"/><path d="M163.843,172.236c0.623,0.624 0.623,1.636 0,2.26c-0.624,0.623 -1.635,0.623 -2.259,0c-0.625,-0.624 -0.625,-1.636 -0.001,-2.26c0.625,-0.623 1.636,-0.623 2.26,0" style="fill:#fff;fill-rule:nonzero;"/><path d="M173.885,162.195c0.623,0.623 0.624,1.635 0,2.258c-0.624,0.625 -1.635,0.625 -2.26,0c-0.623,-0.623 -0.623,-1.635 0,-2.259c0.625,-0.624 1.636,-0.624 2.26,0.001" style="fill:#fff;fill-rule:nonzero;"/><path d="M183.927,152.152c0.624,0.624 0.624,1.635 0,2.26c-0.624,0.624 -1.635,0.624 -2.26,0c-0.623,-0.625 -0.623,-1.636 0,-2.26c0.625,-0.624 1.636,-0.624 2.26,0" style="fill:#fff;fill-rule:nonzero;"/><path d="M193.969,142.11c0.623,0.624 0.623,1.635 0,2.259c-0.624,0.625 -1.635,0.625 -2.259,0c-0.624,-0.624 -0.624,-1.635 0,-2.259c0.624,-0.625 1.635,-0.625 2.259,0" style="fill:#fff;fill-rule:nonzero;"/><path d="M204.011,132.068c0.624,0.623 0.624,1.635 0,2.26c-0.623,0.623 -1.635,0.623 -2.259,0c-0.624,-0.625 -0.624,-1.637 -0.001,-2.26c0.625,-0.624 1.637,-0.624 2.26,0" style="fill:#fff;fill-rule:nonzero;"/><path d="M164.912,193.389c0.623,0.623 0.623,1.635 -0.001,2.26c-0.623,0.624 -1.635,0.624 -2.259,0c-0.624,-0.625 -0.624,-1.636 0,-2.26c0.624,-0.623 1.636,-0.623 2.26,0" style="fill:#fff;fill-rule:nonzero;"/><path d="M174.954,183.347c0.623,0.623 0.623,1.635 -0.001,2.26c-0.622,0.623 -1.635,0.623 -2.259,0c-0.623,-0.625 -0.623,-1.637 -0.001,-2.26c0.625,-0.624 1.638,-0.624 2.261,0" style="fill:#fff;fill-rule:nonzero;"/><path d="M184.996,173.306c0.623,0.623 0.623,1.635 0,2.258c-0.625,0.624 -1.635,0.624 -2.26,0c-0.624,-0.623 -0.624,-1.635 0,-2.259c0.625,-0.624 1.635,-0.624 2.26,0.001" style="fill:#fff;fill-rule:nonzero;"/><path d="M195.038,163.263c0.623,0.624 0.623,1.635 0,2.259c-0.624,0.625 -1.636,0.625 -2.259,0c-0.625,-0.624 -0.625,-1.635 -0.001,-2.259c0.624,-0.624 1.636,-0.624 2.26,0" style="fill:#fff;fill-rule:nonzero;"/><path d="M205.079,153.221c0.624,0.624 0.624,1.635 0,2.259c-0.623,0.625 -1.635,0.625 -2.259,0c-0.623,-0.624 -0.623,-1.635 0,-2.259c0.624,-0.625 1.636,-0.625 2.259,0" style="fill:#fff;fill-rule:nonzero;"/><path d="M215.122,143.179c0.624,0.623 0.624,1.635 0,2.26c-0.624,0.623 -1.635,0.623 -2.26,0c-0.623,-0.625 -0.623,-1.637 0,-2.26c0.625,-0.624 1.636,-0.624 2.26,0" style="fill:#fff;fill-rule:nonzero;"/><path d="M332.356,200.642c0.078,2.968 -2.265,5.437 -5.234,5.515c-2.966,0.077 -5.437,-2.265 -5.513,-5.233c-0.079,-2.969 2.265,-5.438 5.231,-5.516c2.969,-0.077 5.439,2.266 5.516,5.234" style="fill:#fff;fill-rule:nonzero;"/></g></g></g></g></g></svg>