<?xml version="1.0" encoding="UTF-8" standalone="no"?><!DOCTYPE svg PUBLIC "-//W3C//DTD SVG 1.1//EN" "http://www.w3.org/Graphics/SVG/1.1/DTD/svg11.dtd"><svg width="100%" height="100%" viewBox="0 0 219 146" version="1.1" xmlns="http://www.w3.org/2000/svg" xmlns:xlink="http://www.w3.org/1999/xlink" xml:space="preserve" xmlns:serif="http://www.serif.com/" style="fill-rule:evenodd;clip-rule:evenodd;stroke-miterlimit:10;"><rect x="0" y="0" width="218.4" height="145.572" style="fill:#003f7e;fill-opacity:0;"/><g><clipPath id="_clip1"><rect x="4.32" y="2.879" width="209.76" height="139.813" clip-rule="nonzero"/></clipPath><g clip-path="url(#_clip1)"><path d="M73.065,25.928c0.029,1.095 -0.836,2.005 -1.93,2.034c-1.094,0.029 -2.006,-0.835 -2.034,-1.93c-0.029,-1.095 0.835,-2.005 1.93,-2.034c1.094,-0.029 2.005,0.835 2.034,1.93" style="fill:#fff;fill-rule:nonzero;"/><path d="M154.552,132.93l24.511,-24.511" style="fill:none;stroke:#fff;stroke-width:0.24px;"/><path d="M154.552,136.63l24.511,-24.512" style="fill:none;stroke:#fff;stroke-width:0.24px;"/><path d="M154.552,129.231l24.511,-24.511" style="fill:none;stroke:#fff;stroke-width:0.24px;"/><path d="M154.552,125.532l24.511,-24.511" style="fill:none;stroke:#fff;stroke-width:0.24px;"/><path d="M108.207,-9.349l24.511,24.51" style="fill:none;stroke:#fff;stroke-width:0.24px;"/><path d="M104.508,-9.349l24.511,24.51" style="fill:none;stroke:#fff;stroke-width:0.24px;"/><path d="M111.906,-9.349l24.511,24.51" style="fill:none;stroke:#fff;stroke-width:0.24px;"/><path d="M115.605,-9.349l24.511,24.51" style="fill:none;stroke:#fff;stroke-width:0.24px;"/><path d="M196.306,114.269l24.511,24.511" style="fill:none;stroke:#fff;stroke-width:0.24px;"/><path d="M192.607,114.269l24.511,24.511" style="fill:none;stroke:#fff;stroke-width:0.24px;"/><path d="M200.006,114.269l24.511,24.511" style="fill:none;stroke:#fff;stroke-width:0.24px;"/><path d="M203.705,114.269l24.511,24.511" style="fill:none;stroke:#fff;stroke-width:0.24px;"/><path d="M10.179,118.209l24.511,24.511" style="fill:none;stroke:#fff;stroke-width:0.24px;"/><path d="M6.48,118.209l24.511,24.511" style="fill:none;stroke:#fff;stroke-width:0.24px;"/><path d="M13.879,118.209l24.511,24.511" style="fill:none;stroke:#fff;stroke-width:0.24px;"/><path d="M17.578,118.209l24.511,24.511" style="fill:none;stroke:#fff;stroke-width:0.24px;"/><g><clipPath id="_clip2"><path d="M61.623,30.95c-4.055,4.813 -3.441,12.001 1.37,16.057c4.813,4.055 12.002,3.442 16.057,-1.371c4.055,-4.812 3.441,-12.001 -1.371,-16.056c-2.138,-1.802 -4.744,-2.682 -7.337,-2.682c-3.243,0.001 -6.465,1.378 -8.719,4.052Z" clip-rule="nonzero"/></clipPath><g clip-path="url(#_clip2)"><path d="M53.818,37.89l16.116,-16.116l0.806,0.806l-16.116,16.116l-0.806,-0.806Z" style="fill:#fff;"/><path d="M55.608,39.681l16.116,-16.116l0.806,0.806l-16.116,16.116l-0.806,-0.806Z" style="fill:#fff;"/><path d="M57.399,41.472l16.116,-16.116l0.806,0.805l-16.116,16.116l-0.806,-0.805Z" style="fill:#fff;"/><path d="M59.19,43.262l16.116,-16.116l0.806,0.807l-16.116,16.115l-0.806,-0.806Z" style="fill:#fff;"/><path d="M60.98,45.053l16.116,-16.116l0.806,0.806l-16.116,16.116l-0.806,-0.806Z" style="fill:#fff;"/><path d="M62.771,46.843l16.116,-16.116l0.806,0.806l-16.116,16.117l-0.806,-0.807Z" style="fill:#fff;"/><path d="M64.561,48.634l16.116,-16.116l0.806,0.806l-16.116,16.116l-0.806,-0.806Z" style="fill:#fff;"/><path d="M66.352,50.425l16.116,-16.116l0.806,0.806l-16.116,16.116l-0.806,-0.806Z" style="fill:#fff;"/><path d="M68.142,52.215l16.117,-16.115l0.806,0.806l-16.117,16.115l-0.806,-0.806Z" style="fill:#fff;"/><path d="M69.933,54.006l16.116,-16.117l0.806,0.807l-16.116,16.116l-0.806,-0.806Z" style="fill:#fff;"/></g></g><g><path d="M171.336,108.926c0.185,7.046 -5.374,12.905 -12.42,13.09c-7.043,0.185 -12.906,-5.375 -13.091,-12.42c-0.184,-7.045 5.378,-12.906 12.422,-13.09c7.046,-0.185 12.905,5.376 13.089,12.42" style="fill:#9bf7f2;fill-rule:nonzero;"/><path d="M136.446,97.522c-0.282,0.283 -0.74,0.282 -1.021,0c-0.282,-0.282 -0.282,-0.739 0,-1.02c0.281,-0.282 0.739,-0.282 1.021,0c0.281,0.281 0.282,0.738 0,1.02" style="fill:#fff;fill-rule:nonzero;"/><path d="M140.981,102.058c-0.282,0.282 -0.739,0.282 -1.021,0c-0.281,-0.282 -0.281,-0.739 0,-1.02c0.282,-0.282 0.739,-0.282 1.021,-0.001c0.282,0.282 0.282,0.739 0,1.021" style="fill:#fff;fill-rule:nonzero;"/><path d="M145.516,106.593c-0.282,0.282 -0.738,0.282 -1.02,0c-0.282,-0.282 -0.282,-0.739 0,-1.02c0.282,-0.282 0.738,-0.282 1.02,0c0.282,0.282 0.282,0.738 0,1.02" style="fill:#fff;fill-rule:nonzero;"/><path d="M150.052,111.129c-0.282,0.282 -0.739,0.282 -1.02,0c-0.282,-0.282 -0.282,-0.739 0,-1.02c0.281,-0.282 0.738,-0.282 1.02,-0.001c0.282,0.282 0.282,0.739 0,1.021" style="fill:#fff;fill-rule:nonzero;"/><path d="M154.587,115.664c-0.282,0.282 -0.738,0.282 -1.02,0c-0.282,-0.281 -0.282,-0.738 0,-1.02c0.282,-0.282 0.738,-0.282 1.02,0c0.282,0.282 0.282,0.739 0,1.02" style="fill:#fff;fill-rule:nonzero;"/><path d="M159.123,120.2c-0.282,0.282 -0.739,0.282 -1.02,0c-0.282,-0.283 -0.282,-0.739 0,-1.02c0.281,-0.283 0.738,-0.283 1.02,0c0.282,0.281 0.282,0.737 0,1.02" style="fill:#fff;fill-rule:nonzero;"/><path d="M131.428,102.541c-0.283,0.281 -0.74,0.281 -1.021,0c-0.282,-0.283 -0.282,-0.74 0,-1.021c0.281,-0.282 0.738,-0.282 1.021,0c0.281,0.281 0.282,0.738 0,1.021" style="fill:#fff;fill-rule:nonzero;"/><path d="M135.963,107.076c-0.282,0.282 -0.739,0.282 -1.021,0c-0.281,-0.282 -0.281,-0.739 0,-1.02c0.282,-0.282 0.739,-0.282 1.021,-0.001c0.281,0.282 0.281,0.739 0,1.021" style="fill:#fff;fill-rule:nonzero;"/><path d="M140.498,111.611c-0.282,0.282 -0.738,0.282 -1.02,0c-0.282,-0.282 -0.282,-0.738 0,-1.02c0.282,-0.282 0.738,-0.282 1.02,0c0.282,0.282 0.282,0.738 0,1.02" style="fill:#fff;fill-rule:nonzero;"/><path d="M145.034,116.147c-0.282,0.282 -0.739,0.282 -1.02,0c-0.282,-0.282 -0.282,-0.739 0,-1.02c0.281,-0.282 0.738,-0.282 1.02,-0.001c0.282,0.282 0.282,0.739 0,1.021" style="fill:#fff;fill-rule:nonzero;"/><path d="M149.569,120.682c-0.281,0.282 -0.738,0.282 -1.02,0c-0.282,-0.281 -0.282,-0.738 0,-1.02c0.282,-0.282 0.739,-0.282 1.02,0c0.282,0.282 0.282,0.739 0,1.02" style="fill:#fff;fill-rule:nonzero;"/><path d="M154.105,125.218c-0.282,0.282 -0.739,0.282 -1.02,0c-0.283,-0.282 -0.283,-0.739 0,-1.02c0.281,-0.282 0.738,-0.282 1.02,0c0.282,0.281 0.282,0.738 0,1.02" style="fill:#fff;fill-rule:nonzero;"/><path d="M126.409,107.559c-0.281,0.282 -0.739,0.281 -1.02,0c-0.282,-0.282 -0.282,-0.74 0,-1.021c0.281,-0.282 0.738,-0.282 1.02,0c0.282,0.281 0.282,0.739 0,1.021" style="fill:#fff;fill-rule:nonzero;"/><path d="M130.945,112.094c-0.282,0.282 -0.739,0.282 -1.021,0c-0.281,-0.282 -0.281,-0.739 0,-1.02c0.282,-0.282 0.739,-0.282 1.021,0c0.281,0.281 0.281,0.738 0,1.02" style="fill:#fff;fill-rule:nonzero;"/><path d="M135.48,116.629c-0.282,0.282 -0.738,0.283 -1.02,0c-0.282,-0.282 -0.282,-0.738 0,-1.02c0.282,-0.282 0.738,-0.282 1.02,0c0.282,0.282 0.282,0.738 0,1.02" style="fill:#fff;fill-rule:nonzero;"/><path d="M140.016,121.165c-0.282,0.282 -0.739,0.282 -1.021,0c-0.281,-0.282 -0.281,-0.739 0,-1.02c0.282,-0.282 0.739,-0.282 1.021,-0.001c0.282,0.282 0.282,0.739 0,1.021" style="fill:#fff;fill-rule:nonzero;"/><path d="M144.551,125.7c-0.282,0.282 -0.738,0.282 -1.02,0c-0.282,-0.281 -0.282,-0.738 0,-1.02c0.282,-0.282 0.738,-0.282 1.02,0c0.282,0.282 0.282,0.739 0,1.02" style="fill:#fff;fill-rule:nonzero;"/><path d="M149.087,130.236c-0.282,0.282 -0.739,0.282 -1.02,0c-0.283,-0.282 -0.283,-0.739 0,-1.02c0.281,-0.282 0.738,-0.282 1.02,0c0.282,0.281 0.282,0.738 0,1.02" style="fill:#fff;fill-rule:nonzero;"/><path d="M121.391,112.577c-0.282,0.281 -0.739,0.281 -1.02,0c-0.282,-0.282 -0.282,-0.739 0,-1.021c0.281,-0.281 0.738,-0.281 1.02,0c0.282,0.282 0.282,0.739 0,1.021" style="fill:#fff;fill-rule:nonzero;"/><path d="M125.927,117.112c-0.282,0.282 -0.739,0.282 -1.021,0c-0.281,-0.281 -0.281,-0.738 0,-1.02c0.282,-0.282 0.739,-0.282 1.021,0c0.281,0.282 0.281,0.739 0,1.02" style="fill:#fff;fill-rule:nonzero;"/><path d="M130.462,121.648c-0.282,0.281 -0.738,0.282 -1.02,0c-0.282,-0.283 -0.282,-0.739 0,-1.02c0.282,-0.283 0.738,-0.283 1.02,0c0.282,0.281 0.282,0.737 0,1.02" style="fill:#fff;fill-rule:nonzero;"/><path d="M134.998,126.184c-0.282,0.281 -0.739,0.281 -1.021,-0.001c-0.282,-0.282 -0.282,-0.739 0,-1.02c0.282,-0.282 0.739,-0.282 1.021,-0.001c0.281,0.282 0.281,0.739 0,1.022" style="fill:#fff;fill-rule:nonzero;"/><path d="M139.533,130.718c-0.281,0.282 -0.738,0.282 -1.02,0c-0.282,-0.281 -0.282,-0.738 0,-1.02c0.282,-0.282 0.739,-0.282 1.02,0c0.282,0.282 0.282,0.739 0,1.02" style="fill:#fff;fill-rule:nonzero;"/><path d="M144.068,135.254c-0.281,0.282 -0.738,0.282 -1.02,0c-0.282,-0.282 -0.282,-0.739 0,-1.02c0.282,-0.282 0.739,-0.282 1.02,0c0.283,0.281 0.283,0.738 0,1.02" style="fill:#fff;fill-rule:nonzero;"/><path d="M20.606,78.014c-0.282,0.282 -0.739,0.282 -1.02,0c-0.282,-0.282 -0.282,-0.739 0,-1.02c0.281,-0.282 0.738,-0.282 1.02,0c0.282,0.281 0.283,0.738 0,1.02" style="fill:#fff;fill-rule:nonzero;"/><path d="M25.142,82.55c-0.282,0.281 -0.739,0.281 -1.021,-0.001c-0.282,-0.281 -0.282,-0.738 0,-1.02c0.282,-0.281 0.739,-0.281 1.021,0c0.281,0.282 0.281,0.739 0,1.021" style="fill:#fff;fill-rule:nonzero;"/><path d="M29.677,87.085c-0.282,0.282 -0.738,0.282 -1.02,0c-0.282,-0.282 -0.282,-0.739 0,-1.02c0.281,-0.283 0.738,-0.283 1.02,0c0.282,0.282 0.282,0.738 0,1.02" style="fill:#fff;fill-rule:nonzero;"/><path d="M34.213,91.621c-0.282,0.281 -0.739,0.281 -1.021,0c-0.281,-0.283 -0.281,-0.74 0,-1.021c0.282,-0.282 0.739,-0.282 1.021,0c0.282,0.281 0.282,0.738 0,1.021" style="fill:#fff;fill-rule:nonzero;"/><path d="M38.748,96.156c-0.282,0.282 -0.739,0.282 -1.02,0c-0.282,-0.282 -0.282,-0.739 0,-1.021c0.281,-0.281 0.738,-0.281 1.02,0c0.282,0.282 0.282,0.739 0,1.021" style="fill:#fff;fill-rule:nonzero;"/><path d="M43.284,100.691c-0.283,0.282 -0.739,0.282 -1.021,0c-0.282,-0.282 -0.282,-0.738 0,-1.02c0.282,-0.282 0.738,-0.282 1.021,0c0.282,0.282 0.282,0.738 0,1.02" style="fill:#fff;fill-rule:nonzero;"/><path d="M15.588,83.032c-0.282,0.282 -0.739,0.282 -1.02,0c-0.282,-0.282 -0.282,-0.739 0,-1.02c0.281,-0.282 0.738,-0.282 1.02,0c0.282,0.281 0.282,0.738 0,1.02" style="fill:#fff;fill-rule:nonzero;"/><path d="M20.123,87.568c-0.281,0.281 -0.738,0.281 -1.02,0c-0.282,-0.282 -0.282,-0.739 0,-1.021c0.282,-0.281 0.739,-0.281 1.02,0c0.282,0.282 0.282,0.739 0,1.021" style="fill:#fff;fill-rule:nonzero;"/><path d="M24.659,92.103c-0.282,0.282 -0.738,0.282 -1.02,0c-0.282,-0.282 -0.282,-0.739 0,-1.02c0.281,-0.282 0.738,-0.282 1.02,0c0.282,0.282 0.282,0.738 0,1.02" style="fill:#fff;fill-rule:nonzero;"/><path d="M29.195,96.639c-0.282,0.281 -0.739,0.281 -1.021,0c-0.282,-0.282 -0.282,-0.739 0,-1.02c0.282,-0.282 0.739,-0.283 1.021,-0.001c0.281,0.282 0.281,0.739 0,1.021" style="fill:#fff;fill-rule:nonzero;"/><path d="M33.729,101.174c-0.281,0.282 -0.738,0.282 -1.02,0c-0.281,-0.282 -0.281,-0.739 0,-1.021c0.282,-0.281 0.739,-0.281 1.021,0c0.282,0.282 0.282,0.739 -0.001,1.021" style="fill:#fff;fill-rule:nonzero;"/><path d="M38.266,105.71c-0.283,0.282 -0.739,0.282 -1.021,0c-0.282,-0.283 -0.282,-0.739 0,-1.021c0.282,-0.282 0.738,-0.282 1.021,0c0.281,0.282 0.281,0.738 0,1.021" style="fill:#fff;fill-rule:nonzero;"/><path d="M10.57,88.05c-0.282,0.282 -0.739,0.282 -1.02,0c-0.282,-0.282 -0.282,-0.739 0,-1.02c0.281,-0.282 0.738,-0.282 1.02,0c0.282,0.281 0.282,0.738 0,1.02" style="fill:#fff;fill-rule:nonzero;"/><path d="M15.105,92.586c-0.281,0.281 -0.738,0.281 -1.02,-0.001c-0.282,-0.281 -0.282,-0.738 0,-1.02c0.282,-0.281 0.739,-0.281 1.02,0c0.282,0.282 0.282,0.739 0,1.021" style="fill:#fff;fill-rule:nonzero;"/><path d="M19.641,97.121c-0.282,0.282 -0.739,0.282 -1.02,0c-0.283,-0.282 -0.283,-0.739 0,-1.02c0.281,-0.282 0.738,-0.282 1.02,0c0.282,0.282 0.282,0.738 0,1.02" style="fill:#fff;fill-rule:nonzero;"/><path d="M24.177,101.657c-0.283,0.281 -0.739,0.281 -1.021,0c-0.282,-0.282 -0.282,-0.739 0,-1.021c0.282,-0.281 0.738,-0.282 1.021,0c0.281,0.282 0.281,0.739 0,1.021" style="fill:#fff;fill-rule:nonzero;"/><path d="M28.711,106.192c-0.281,0.282 -0.738,0.282 -1.02,0c-0.281,-0.282 -0.281,-0.738 0,-1.02c0.282,-0.282 0.739,-0.282 1.021,0c0.282,0.282 0.282,0.738 -0.001,1.02" style="fill:#fff;fill-rule:nonzero;"/><path d="M33.247,110.728c-0.282,0.282 -0.738,0.282 -1.02,0c-0.282,-0.283 -0.282,-0.739 0,-1.02c0.282,-0.282 0.738,-0.282 1.02,0c0.282,0.281 0.282,0.737 0,1.02" style="fill:#fff;fill-rule:nonzero;"/><path d="M5.552,93.069c-0.282,0.281 -0.739,0.281 -1.02,0c-0.283,-0.283 -0.283,-0.74 0,-1.021c0.281,-0.282 0.738,-0.282 1.02,0c0.282,0.281 0.282,0.738 0,1.021" style="fill:#fff;fill-rule:nonzero;"/><path d="M10.087,97.604c-0.281,0.282 -0.739,0.282 -1.021,-0.001c-0.281,-0.281 -0.281,-0.738 0,-1.02c0.282,-0.281 0.74,-0.281 1.021,0c0.282,0.282 0.282,0.739 0,1.021" style="fill:#fff;fill-rule:nonzero;"/><path d="M14.622,102.139c-0.281,0.282 -0.738,0.282 -1.02,0c-0.282,-0.282 -0.282,-0.738 0,-1.02c0.282,-0.282 0.739,-0.282 1.02,0c0.283,0.282 0.283,0.738 0,1.02" style="fill:#fff;fill-rule:nonzero;"/><path d="M19.158,106.675c-0.282,0.281 -0.738,0.281 -1.02,0c-0.282,-0.282 -0.282,-0.739 0,-1.02c0.282,-0.282 0.738,-0.283 1.02,-0.001c0.282,0.282 0.282,0.739 0,1.021" style="fill:#fff;fill-rule:nonzero;"/><path d="M23.693,111.21c-0.281,0.282 -0.738,0.282 -1.02,0c-0.281,-0.282 -0.281,-0.738 0,-1.02c0.282,-0.282 0.739,-0.282 1.021,0c0.281,0.282 0.281,0.738 -0.001,1.02" style="fill:#fff;fill-rule:nonzero;"/><path d="M28.229,115.746c-0.282,0.282 -0.738,0.282 -1.02,0c-0.282,-0.282 -0.282,-0.739 0,-1.02c0.282,-0.282 0.738,-0.282 1.02,0c0.282,0.281 0.282,0.738 0,1.02" style="fill:#fff;fill-rule:nonzero;"/><path d="M65.426,129.762c0.219,0.219 0.219,0.575 0,0.793c-0.219,0.219 -0.575,0.219 -0.793,0c-0.22,-0.218 -0.22,-0.574 0,-0.793c0.218,-0.219 0.574,-0.22 0.793,0" style="fill:#fff;fill-rule:nonzero;"/><path d="M68.953,126.235c0.219,0.219 0.219,0.574 0,0.794c-0.219,0.219 -0.574,0.219 -0.793,0c-0.219,-0.22 -0.219,-0.575 -0.001,-0.794c0.22,-0.219 0.575,-0.219 0.794,0" style="fill:#fff;fill-rule:nonzero;"/><path d="M72.48,122.708c0.219,0.219 0.219,0.574 0,0.793c-0.219,0.22 -0.575,0.22 -0.794,0c-0.219,-0.218 -0.219,-0.574 0,-0.793c0.22,-0.219 0.575,-0.219 0.794,0" style="fill:#fff;fill-rule:nonzero;"/><path d="M76.007,119.181c0.219,0.219 0.219,0.575 0,0.793c-0.219,0.219 -0.575,0.219 -0.793,0c-0.219,-0.218 -0.219,-0.574 -0.001,-0.793c0.219,-0.219 0.575,-0.219 0.794,0" style="fill:#fff;fill-rule:nonzero;"/><path d="M79.534,115.654c0.219,0.219 0.219,0.574 0,0.793c-0.219,0.219 -0.574,0.219 -0.794,0c-0.219,-0.219 -0.219,-0.574 0,-0.793c0.22,-0.219 0.575,-0.219 0.794,0" style="fill:#fff;fill-rule:nonzero;"/><path d="M83.061,112.127c0.219,0.219 0.219,0.574 0,0.793c-0.219,0.22 -0.574,0.22 -0.793,0c-0.22,-0.219 -0.22,-0.574 0,-0.793c0.219,-0.219 0.574,-0.219 0.793,0" style="fill:#fff;fill-rule:nonzero;"/><path d="M69.329,133.664c0.219,0.219 0.218,0.575 0,0.794c-0.22,0.219 -0.575,0.219 -0.794,0c-0.219,-0.219 -0.219,-0.575 0,-0.794c0.219,-0.219 0.574,-0.219 0.794,0" style="fill:#fff;fill-rule:nonzero;"/><path d="M72.856,130.137c0.218,0.219 0.218,0.575 -0.001,0.794c-0.219,0.219 -0.574,0.219 -0.793,0c-0.219,-0.219 -0.219,-0.575 0,-0.794c0.219,-0.219 0.574,-0.219 0.794,0" style="fill:#fff;fill-rule:nonzero;"/><path d="M76.382,126.61c0.22,0.219 0.22,0.574 0,0.794c-0.219,0.219 -0.574,0.219 -0.793,0c-0.219,-0.219 -0.219,-0.575 0,-0.794c0.219,-0.219 0.574,-0.219 0.793,0" style="fill:#fff;fill-rule:nonzero;"/><path d="M79.909,123.083c0.219,0.219 0.219,0.575 0,0.794c-0.219,0.219 -0.574,0.219 -0.793,0c-0.219,-0.219 -0.219,-0.575 0,-0.794c0.219,-0.219 0.574,-0.219 0.793,0" style="fill:#fff;fill-rule:nonzero;"/><path d="M83.436,119.556c0.219,0.219 0.219,0.575 0,0.794c-0.219,0.219 -0.574,0.219 -0.793,0c-0.219,-0.219 -0.219,-0.575 0,-0.794c0.219,-0.219 0.574,-0.219 0.793,0" style="fill:#fff;fill-rule:nonzero;"/><path d="M86.963,116.029c0.22,0.219 0.22,0.575 0,0.794c-0.219,0.219 -0.574,0.219 -0.793,0c-0.219,-0.219 -0.219,-0.575 0,-0.794c0.219,-0.219 0.574,-0.219 0.793,0" style="fill:#fff;fill-rule:nonzero;"/><path d="M73.231,137.567c0.219,0.219 0.219,0.574 0,0.793c-0.22,0.219 -0.575,0.219 -0.794,0c-0.219,-0.219 -0.219,-0.574 0,-0.793c0.219,-0.22 0.574,-0.22 0.794,0" style="fill:#fff;fill-rule:nonzero;"/><path d="M76.758,134.039c0.219,0.219 0.219,0.575 -0.001,0.794c-0.218,0.219 -0.574,0.219 -0.793,0c-0.219,-0.219 -0.219,-0.575 0,-0.794c0.219,-0.218 0.575,-0.218 0.794,0" style="fill:#fff;fill-rule:nonzero;"/><path d="M80.285,130.513c0.219,0.219 0.219,0.574 0,0.793c-0.22,0.219 -0.575,0.219 -0.794,0c-0.219,-0.219 -0.219,-0.574 0,-0.793c0.219,-0.22 0.574,-0.22 0.794,0" style="fill:#fff;fill-rule:nonzero;"/><path d="M83.812,126.985c0.219,0.22 0.219,0.575 0,0.794c-0.219,0.219 -0.575,0.219 -0.794,0c-0.219,-0.219 -0.219,-0.574 0,-0.794c0.219,-0.219 0.575,-0.219 0.794,0" style="fill:#fff;fill-rule:nonzero;"/><path d="M87.338,123.459c0.22,0.219 0.22,0.574 0,0.793c-0.218,0.219 -0.574,0.219 -0.793,0c-0.219,-0.219 -0.219,-0.574 0,-0.793c0.219,-0.219 0.575,-0.219 0.793,0" style="fill:#fff;fill-rule:nonzero;"/><path d="M90.866,119.932c0.219,0.219 0.219,0.574 0,0.793c-0.22,0.219 -0.575,0.219 -0.794,0c-0.219,-0.219 -0.219,-0.574 0,-0.793c0.219,-0.22 0.574,-0.22 0.794,0" style="fill:#fff;fill-rule:nonzero;"/><path d="M77.133,141.469c0.219,0.219 0.219,0.574 0,0.793c-0.219,0.219 -0.575,0.219 -0.794,0c-0.219,-0.219 -0.219,-0.574 0,-0.793c0.219,-0.22 0.575,-0.22 0.794,0" style="fill:#fff;fill-rule:nonzero;"/><path d="M80.66,137.942c0.219,0.219 0.219,0.574 0,0.794c-0.219,0.218 -0.574,0.218 -0.794,0c-0.219,-0.22 -0.219,-0.575 0,-0.794c0.22,-0.219 0.575,-0.219 0.794,0" style="fill:#fff;fill-rule:nonzero;"/><path d="M84.187,134.415c0.219,0.219 0.219,0.574 0,0.793c-0.219,0.22 -0.575,0.22 -0.793,0c-0.22,-0.219 -0.22,-0.574 0,-0.793c0.218,-0.219 0.574,-0.219 0.793,0" style="fill:#fff;fill-rule:nonzero;"/><path d="M87.714,130.888c0.219,0.219 0.219,0.574 0,0.794c-0.219,0.219 -0.575,0.219 -0.794,0c-0.218,-0.22 -0.219,-0.575 0,-0.794c0.219,-0.219 0.575,-0.219 0.794,0" style="fill:#fff;fill-rule:nonzero;"/><path d="M91.241,127.361c0.219,0.219 0.219,0.574 0,0.794c-0.219,0.218 -0.574,0.218 -0.794,0c-0.219,-0.22 -0.219,-0.575 0,-0.794c0.22,-0.219 0.575,-0.219 0.794,0" style="fill:#fff;fill-rule:nonzero;"/><path d="M94.768,123.834c0.219,0.219 0.219,0.574 0,0.793c-0.219,0.22 -0.575,0.22 -0.793,0c-0.22,-0.219 -0.22,-0.574 0,-0.793c0.218,-0.219 0.574,-0.219 0.793,0" style="fill:#fff;fill-rule:nonzero;"/><path d="M181.493,23.763c0.22,0.219 0.219,0.575 0,0.793c-0.219,0.22 -0.575,0.22 -0.793,0.001c-0.219,-0.219 -0.219,-0.575 0,-0.794c0.218,-0.219 0.574,-0.219 0.793,0" style="fill:#fff;fill-rule:nonzero;"/><path d="M185.02,20.236c0.219,0.219 0.219,0.575 0,0.794c-0.219,0.219 -0.574,0.219 -0.793,0c-0.219,-0.219 -0.219,-0.575 -0.001,-0.794c0.22,-0.219 0.575,-0.219 0.794,0" style="fill:#fff;fill-rule:nonzero;"/><path d="M188.547,16.709c0.219,0.22 0.219,0.574 0,0.793c-0.219,0.22 -0.574,0.22 -0.793,0c-0.22,-0.218 -0.22,-0.573 0,-0.793c0.219,-0.219 0.574,-0.219 0.793,0" style="fill:#fff;fill-rule:nonzero;"/><path d="M192.074,13.182c0.219,0.219 0.219,0.575 0,0.794c-0.219,0.219 -0.575,0.219 -0.793,0c-0.219,-0.219 -0.219,-0.575 -0.001,-0.794c0.219,-0.219 0.575,-0.219 0.794,0" style="fill:#fff;fill-rule:nonzero;"/><path d="M195.601,9.655c0.219,0.219 0.219,0.574 0,0.794c-0.219,0.219 -0.574,0.219 -0.793,0c-0.219,-0.22 -0.219,-0.575 0,-0.794c0.219,-0.219 0.574,-0.219 0.793,0" style="fill:#fff;fill-rule:nonzero;"/><path d="M199.128,6.128c0.219,0.219 0.219,0.575 0,0.794c-0.219,0.219 -0.574,0.219 -0.793,0c-0.219,-0.219 -0.219,-0.575 0,-0.794c0.219,-0.219 0.574,-0.219 0.793,0" style="fill:#fff;fill-rule:nonzero;"/><path d="M185.396,27.665c0.219,0.22 0.218,0.575 0,0.794c-0.22,0.219 -0.575,0.219 -0.794,0c-0.219,-0.219 -0.219,-0.574 0,-0.794c0.219,-0.219 0.574,-0.219 0.794,0" style="fill:#fff;fill-rule:nonzero;"/><path d="M188.923,24.138c0.219,0.219 0.219,0.575 -0.001,0.794c-0.218,0.219 -0.574,0.219 -0.793,0c-0.219,-0.219 -0.219,-0.575 0,-0.794c0.219,-0.219 0.575,-0.219 0.794,0" style="fill:#fff;fill-rule:nonzero;"/><path d="M192.449,20.612c0.22,0.219 0.22,0.574 0,0.793c-0.218,0.219 -0.574,0.219 -0.793,0c-0.219,-0.219 -0.219,-0.574 0,-0.793c0.219,-0.22 0.575,-0.22 0.793,0" style="fill:#fff;fill-rule:nonzero;"/><path d="M195.977,17.084c0.219,0.22 0.219,0.575 0,0.794c-0.22,0.219 -0.575,0.219 -0.794,0c-0.219,-0.219 -0.219,-0.574 0,-0.794c0.219,-0.219 0.574,-0.219 0.794,0" style="fill:#fff;fill-rule:nonzero;"/><path d="M199.503,13.558c0.219,0.219 0.219,0.574 0,0.793c-0.218,0.219 -0.574,0.219 -0.793,0c-0.219,-0.219 -0.219,-0.574 0,-0.793c0.219,-0.22 0.575,-0.22 0.793,0" style="fill:#fff;fill-rule:nonzero;"/><path d="M203.031,10.031c0.219,0.219 0.219,0.574 0,0.793c-0.22,0.219 -0.575,0.219 -0.794,0c-0.219,-0.219 -0.219,-0.574 0,-0.793c0.219,-0.22 0.574,-0.22 0.794,0" style="fill:#fff;fill-rule:nonzero;"/><path d="M189.298,31.568c0.219,0.219 0.219,0.574 0,0.793c-0.219,0.219 -0.575,0.219 -0.794,0c-0.219,-0.219 -0.219,-0.574 0,-0.793c0.219,-0.22 0.575,-0.22 0.794,0" style="fill:#fff;fill-rule:nonzero;"/><path d="M192.825,28.041c0.219,0.219 0.219,0.574 -0.001,0.794c-0.218,0.218 -0.573,0.218 -0.793,0c-0.219,-0.22 -0.219,-0.575 0,-0.794c0.22,-0.219 0.575,-0.219 0.794,0" style="fill:#fff;fill-rule:nonzero;"/><path d="M196.352,24.514c0.219,0.219 0.219,0.574 0,0.793c-0.219,0.22 -0.575,0.22 -0.794,0c-0.219,-0.219 -0.219,-0.574 0,-0.793c0.219,-0.22 0.575,-0.22 0.794,0" style="fill:#fff;fill-rule:nonzero;"/><path d="M199.879,20.987c0.219,0.219 0.219,0.574 0,0.793c-0.219,0.219 -0.575,0.219 -0.794,0c-0.219,-0.219 -0.219,-0.574 0,-0.793c0.219,-0.219 0.575,-0.219 0.794,0" style="fill:#fff;fill-rule:nonzero;"/><path d="M203.406,17.46c0.219,0.219 0.219,0.574 0,0.794c-0.219,0.219 -0.575,0.219 -0.794,0c-0.219,-0.22 -0.219,-0.575 0,-0.794c0.219,-0.219 0.575,-0.219 0.794,0" style="fill:#fff;fill-rule:nonzero;"/><path d="M206.933,13.933c0.219,0.219 0.219,0.574 0,0.793c-0.22,0.22 -0.575,0.22 -0.793,0c-0.22,-0.219 -0.22,-0.574 0,-0.793c0.218,-0.219 0.573,-0.219 0.793,0" style="fill:#fff;fill-rule:nonzero;"/><path d="M193.2,35.47c0.219,0.219 0.219,0.575 0,0.793c-0.219,0.22 -0.574,0.22 -0.793,0c-0.219,-0.218 -0.219,-0.574 0,-0.793c0.219,-0.219 0.574,-0.219 0.793,0" style="fill:#fff;fill-rule:nonzero;"/><path d="M196.727,31.943c0.219,0.219 0.219,0.575 0,0.794c-0.219,0.219 -0.574,0.219 -0.794,0c-0.219,-0.219 -0.219,-0.575 0,-0.794c0.22,-0.219 0.575,-0.219 0.794,0" style="fill:#fff;fill-rule:nonzero;"/><path d="M200.254,28.416c0.219,0.219 0.22,0.574 0,0.794c-0.219,0.219 -0.574,0.219 -0.793,0c-0.22,-0.22 -0.22,-0.575 0,-0.794c0.219,-0.219 0.574,-0.219 0.793,0" style="fill:#fff;fill-rule:nonzero;"/><path d="M203.781,24.889c0.219,0.22 0.219,0.574 0,0.794c-0.219,0.219 -0.575,0.219 -0.793,0c-0.219,-0.22 -0.22,-0.574 -0.001,-0.794c0.219,-0.219 0.575,-0.219 0.794,0" style="fill:#fff;fill-rule:nonzero;"/><path d="M207.308,21.363c0.219,0.218 0.219,0.573 0,0.793c-0.219,0.219 -0.574,0.219 -0.793,0c-0.22,-0.22 -0.22,-0.575 0,-0.794c0.219,-0.219 0.574,-0.219 0.793,0.001" style="fill:#fff;fill-rule:nonzero;"/><path d="M210.835,17.835c0.219,0.219 0.219,0.574 0,0.793c-0.219,0.22 -0.575,0.22 -0.793,0c-0.22,-0.219 -0.22,-0.574 0,-0.793c0.218,-0.219 0.574,-0.219 0.793,0" style="fill:#fff;fill-rule:nonzero;"/><path d="M34.357,6.377c-0.219,0.22 -0.575,0.22 -0.793,0c-0.22,-0.219 -0.22,-0.574 0,-0.793c0.218,-0.219 0.574,-0.219 0.793,0c0.219,0.219 0.219,0.574 0,0.793" style="fill:#fff;fill-rule:nonzero;"/><path d="M26.927,6.753c-0.218,0.219 -0.574,0.219 -0.793,0c-0.219,-0.219 -0.219,-0.574 0,-0.794c0.219,-0.219 0.575,-0.219 0.794,0c0.219,0.22 0.219,0.575 -0.001,0.794" style="fill:#fff;fill-rule:nonzero;"/><path d="M30.455,10.28c-0.22,0.219 -0.575,0.219 -0.794,0c-0.219,-0.22 -0.219,-0.575 0,-0.794c0.219,-0.219 0.574,-0.219 0.794,0c0.219,0.219 0.219,0.574 0,0.794" style="fill:#fff;fill-rule:nonzero;"/><path d="M19.499,7.128c-0.22,0.219 -0.575,0.219 -0.794,0c-0.219,-0.219 -0.219,-0.574 0,-0.793c0.219,-0.219 0.574,-0.22 0.794,-0.001c0.219,0.22 0.219,0.575 0,0.794" style="fill:#fff;fill-rule:nonzero;"/><path d="M23.025,10.655c-0.219,0.219 -0.574,0.219 -0.793,0c-0.219,-0.219 -0.219,-0.574 0,-0.793c0.219,-0.22 0.574,-0.22 0.793,0c0.219,0.219 0.219,0.574 0,0.793" style="fill:#fff;fill-rule:nonzero;"/><path d="M26.552,14.182c-0.219,0.22 -0.574,0.22 -0.793,0c-0.219,-0.219 -0.219,-0.575 0,-0.793c0.219,-0.22 0.574,-0.22 0.793,0c0.22,0.218 0.22,0.574 0,0.793" style="fill:#fff;fill-rule:nonzero;"/><path d="M12.069,7.503c-0.219,0.219 -0.574,0.22 -0.793,0c-0.22,-0.219 -0.22,-0.574 0,-0.793c0.219,-0.219 0.574,-0.219 0.793,0c0.219,0.219 0.219,0.574 0,0.793" style="fill:#fff;fill-rule:nonzero;"/><path d="M15.596,11.031c-0.219,0.218 -0.574,0.218 -0.794,-0.001c-0.219,-0.219 -0.219,-0.574 0,-0.793c0.22,-0.219 0.575,-0.22 0.794,0c0.219,0.219 0.219,0.574 0,0.794" style="fill:#fff;fill-rule:nonzero;"/><path d="M19.123,14.557c-0.219,0.22 -0.574,0.22 -0.794,0c-0.219,-0.219 -0.219,-0.574 0,-0.793c0.22,-0.22 0.575,-0.22 0.794,0c0.219,0.219 0.219,0.574 0,0.793" style="fill:#fff;fill-rule:nonzero;"/><path d="M22.65,18.085c-0.219,0.219 -0.574,0.219 -0.794,0c-0.219,-0.22 -0.219,-0.575 0,-0.794c0.22,-0.219 0.575,-0.219 0.794,0c0.219,0.219 0.219,0.574 0,0.794" style="fill:#fff;fill-rule:nonzero;"/><path d="M39.37,8.824l20.571,20.572l-20.572,20.571l-20.571,-20.571l20.572,-20.572Z" style="fill:#9bf7f2;"/><path d="M179.108,13.542l13.391,13.391l-13.391,13.39l-13.391,-13.391l13.391,-13.39Z" style="fill:#9bf7f2;"/><path d="M28.36,108.252l13.391,13.391l-13.391,13.39l-13.391,-13.39l13.391,-13.391Z" style="fill:#9bf7f2;"/><path d="M18.798,58.392l37.051,-37.051" style="fill:none;stroke:#fff;stroke-width:0.24px;"/><path d="M18.798,63.984l37.051,-37.052" style="fill:none;stroke:#fff;stroke-width:0.24px;"/><path d="M18.798,52.801l37.051,-37.052" style="fill:none;stroke:#fff;stroke-width:0.24px;"/><path d="M18.798,47.209l37.051,-37.051" style="fill:none;stroke:#fff;stroke-width:0.24px;"/><path d="M74.941,93.836l-6.396,3.666l-6.395,3.667l0.022,-7.372l0.022,-7.372l6.374,3.705l6.373,3.706Z" style="fill:#9bf7f2;fill-rule:nonzero;"/><path d="M154.438,64.889c0.165,6.299 -4.806,11.537 -11.105,11.703c-6.297,0.165 -11.539,-4.806 -11.704,-11.105c-0.166,-6.298 4.809,-11.538 11.105,-11.704c6.3,-0.165 11.539,4.807 11.704,11.106" style="fill:#9bf7f2;fill-rule:nonzero;"/></g><g><clipPath id="_clip3"><path d="M132.341,35.841c-6.211,7.372 -5.272,18.383 2.099,24.594c7.372,6.212 18.383,5.273 24.594,-2.099c6.211,-7.371 5.271,-18.383 -2.1,-24.594c-3.275,-2.759 -7.267,-4.107 -11.238,-4.107c-4.968,0.001 -9.903,2.111 -13.355,6.206Z" clip-rule="nonzero"/></clipPath><g clip-path="url(#_clip3)"><path d="M120.387,46.471l24.684,-24.684l1.234,1.234l-24.684,24.685l-1.234,-1.235Z" style="fill:#fff;"/><path d="M123.127,49.214l24.686,-24.684l1.234,1.234l-24.685,24.685l-1.235,-1.235Z" style="fill:#fff;"/><path d="M125.872,51.958l24.685,-24.685l1.233,1.234l-24.685,24.685l-1.233,-1.234Z" style="fill:#fff;"/><path d="M128.614,54.7l24.684,-24.685l1.235,1.235l-24.685,24.684l-1.234,-1.234Z" style="fill:#fff;"/><path d="M131.357,57.443l24.684,-24.685l1.235,1.235l-24.685,24.684l-1.234,-1.234Z" style="fill:#fff;"/><path d="M134.099,60.185l24.685,-24.684l1.234,1.234l-24.684,24.685l-1.235,-1.235Z" style="fill:#fff;"/><path d="M136.841,62.928l24.685,-24.685l1.235,1.235l-24.685,24.685l-1.235,-1.235Z" style="fill:#fff;"/><path d="M139.584,65.671l24.685,-24.685l1.235,1.234l-24.685,24.685l-1.235,-1.234Z" style="fill:#fff;"/><path d="M142.327,68.413l24.685,-24.684l1.235,1.235l-24.686,24.684l-1.234,-1.235Z" style="fill:#fff;"/><path d="M145.069,71.157l24.685,-24.686l1.234,1.234l-24.684,24.686l-1.235,-1.234Z" style="fill:#fff;"/></g></g><g><clipPath id="_clip4"><path d="M52.25,95.109c-4.244,5.006 -3.627,12.505 1.378,16.749c5.006,4.244 12.505,3.627 16.749,-1.379c4.243,-5.006 3.627,-12.504 -1.379,-16.748c-2.234,-1.894 -4.964,-2.82 -7.679,-2.82c-3.371,0 -6.719,1.426 -9.069,4.198Z" clip-rule="nonzero"/></clipPath><g clip-path="url(#_clip4)"><path d="M44.088,102.322l16.858,-16.755l0.838,0.843l-16.858,16.755l-0.838,-0.843Z" style="fill:#fff;"/><path d="M45.949,104.195l16.858,-16.755l0.838,0.843l-16.858,16.755l-0.838,-0.843Z" style="fill:#fff;"/><path d="M47.812,106.069l16.857,-16.756l0.837,0.842l-16.857,16.756l-0.837,-0.842Z" style="fill:#fff;"/><path d="M49.673,107.94l16.857,-16.754l0.838,0.843l-16.857,16.754l-0.838,-0.843Z" style="fill:#fff;"/><path d="M51.535,109.814l16.857,-16.755l0.838,0.843l-16.857,16.755l-0.838,-0.843Z" style="fill:#fff;"/><path d="M53.397,111.687l16.857,-16.755l0.837,0.843l-16.856,16.755l-0.838,-0.843Z" style="fill:#fff;"/><path d="M55.258,113.56l16.857,-16.755l0.838,0.843l-16.857,16.755l-0.838,-0.843Z" style="fill:#fff;"/><path d="M57.12,115.433l16.857,-16.755l0.838,0.842l-16.857,16.756l-0.838,-0.843Z" style="fill:#fff;"/><path d="M58.981,117.305l16.858,-16.754l0.838,0.843l-16.858,16.755l-0.838,-0.844Z" style="fill:#fff;"/><path d="M60.843,119.179l16.857,-16.756l0.838,0.843l-16.857,16.756l-0.838,-0.843Z" style="fill:#fff;"/></g></g><path d="M189.851,84.67l1.93,-7.115l1.93,-7.115l5.196,5.228l5.198,5.229l-7.127,1.887l-7.127,1.886Z" style="fill:#9bf7f2;fill-rule:nonzero;"/><g><clipPath id="_clip5"><path d="M192.178,56.857c-6.54,0.538 -11.407,6.276 -10.868,12.818c0.539,6.539 6.278,11.406 12.818,10.867c6.541,-0.539 11.406,-6.277 10.868,-12.817c-0.511,-6.21 -5.709,-10.91 -11.83,-10.909c-0.326,0 -0.657,0.013 -0.988,0.041Z" clip-rule="nonzero"/></clipPath><g clip-path="url(#_clip5)"><path d="M205.667,56.854l-0.073,23.767l-1.188,-0.003l0.072,-23.768l1.189,0.004Z" style="fill:#fff;"/><path d="M203.027,56.845l-0.073,23.768l-1.189,-0.004l0.073,-23.767l1.189,0.003Z" style="fill:#fff;"/><path d="M200.384,56.837l-0.071,23.768l-1.188,-0.003l0.072,-23.769l1.187,0.004Z" style="fill:#fff;"/><path d="M197.745,56.83l-0.073,23.767l-1.188,-0.004l0.072,-23.767l1.189,0.004Z" style="fill:#fff;"/><path d="M195.103,56.822l-0.072,23.767l-1.188,-0.003l0.072,-23.768l1.188,0.004Z" style="fill:#fff;"/><path d="M192.463,56.814l-0.072,23.767l-1.189,-0.004l0.072,-23.767l1.189,0.004Z" style="fill:#fff;"/><path d="M189.822,56.805l-0.072,23.768l-1.189,-0.004l0.073,-23.767l1.188,0.003Z" style="fill:#fff;"/><path d="M187.181,56.797l-0.072,23.768l-1.188,-0.004l0.072,-23.767l1.188,0.003Z" style="fill:#fff;"/><path d="M184.542,56.79l-0.073,23.767l-1.19,-0.004l0.073,-23.767l1.19,0.004Z" style="fill:#fff;"/><path d="M181.9,56.781l-0.072,23.768l-1.188,-0.004l0.071,-23.768l1.189,0.004Z" style="fill:#fff;"/></g></g><g><path d="M83.244,105.491l33.117,-33.117" style="fill:none;stroke:#fff;stroke-width:0.24px;"/><path d="M83.244,110.489l33.117,-33.117" style="fill:none;stroke:#fff;stroke-width:0.24px;"/><path d="M83.244,100.493l33.117,-33.117" style="fill:none;stroke:#fff;stroke-width:0.24px;"/><path d="M83.244,95.495l33.117,-33.117" style="fill:none;stroke:#fff;stroke-width:0.24px;"/><path d="M90.399,66.093l33.116,-33.118" style="fill:none;stroke:#fff;stroke-width:0.24px;"/><path d="M90.399,71.091l33.116,-33.118" style="fill:none;stroke:#fff;stroke-width:0.24px;"/><path d="M90.399,61.095l33.116,-33.118" style="fill:none;stroke:#fff;stroke-width:0.24px;"/><path d="M90.399,56.097l33.116,-33.118" style="fill:none;stroke:#fff;stroke-width:0.24px;"/><path d="M93.691,50.656l-4.099,-7.1l-4.099,-7.1l16.396,0l-4.099,7.1l-4.099,7.1Z" style="fill:#9bf7f2;fill-rule:nonzero;"/><path d="M146.939,20.434l3.357,-1.937l3.356,-1.938l0,7.751l-3.356,-1.938l-3.357,-1.938Z" style="fill:#9bf7f2;fill-rule:nonzero;"/><path d="M197.002,102.66l3.356,-1.937l3.357,-1.938l0,7.751l-3.357,-1.938l-3.356,-1.938Z" style="fill:#9bf7f2;fill-rule:nonzero;"/><path d="M96.867,117.577l3.357,-1.938l3.356,-1.937l0,7.75l-3.356,-1.938l-3.357,-1.937Z" style="fill:#9bf7f2;fill-rule:nonzero;"/><path d="M154.959,81.769l1.937,3.357l1.938,3.356l-3.875,0l-3.876,0l1.938,-3.356l1.938,-3.357Z" style="fill:#fff;fill-rule:nonzero;"/><path d="M57.438,67.494c0.252,0.251 0.251,0.66 0,0.912c-0.252,0.252 -0.66,0.252 -0.912,0c-0.252,-0.252 -0.252,-0.661 0,-0.912c0.252,-0.252 0.66,-0.252 0.912,0" style="fill:#fff;fill-rule:nonzero;"/><path d="M61.492,63.44c0.251,0.252 0.251,0.66 0,0.912c-0.252,0.252 -0.66,0.252 -0.912,0c-0.252,-0.252 -0.252,-0.66 -0.001,-0.912c0.253,-0.252 0.661,-0.252 0.913,0" style="fill:#fff;fill-rule:nonzero;"/><path d="M65.546,59.386c0.251,0.252 0.252,0.66 0,0.912c-0.252,0.252 -0.66,0.252 -0.912,0c-0.252,-0.252 -0.252,-0.66 0,-0.912c0.252,-0.252 0.66,-0.252 0.912,0" style="fill:#fff;fill-rule:nonzero;"/><path d="M69.6,55.332c0.251,0.252 0.251,0.66 0,0.912c-0.252,0.252 -0.66,0.252 -0.912,0c-0.252,-0.252 -0.252,-0.66 -0.001,-0.912c0.253,-0.252 0.661,-0.252 0.913,0" style="fill:#fff;fill-rule:nonzero;"/><path d="M73.654,51.278c0.251,0.252 0.251,0.66 0,0.912c-0.252,0.252 -0.661,0.252 -0.913,0c-0.251,-0.252 -0.251,-0.66 0,-0.912c0.252,-0.252 0.661,-0.252 0.913,0" style="fill:#fff;fill-rule:nonzero;"/><path d="M77.707,47.224c0.252,0.252 0.252,0.66 0,0.912c-0.251,0.252 -0.66,0.252 -0.911,0c-0.253,-0.252 -0.253,-0.66 -0.001,-0.912c0.252,-0.252 0.661,-0.252 0.912,0" style="fill:#fff;fill-rule:nonzero;"/><path d="M61.923,71.979c0.252,0.252 0.252,0.66 0,0.912c-0.251,0.252 -0.66,0.252 -0.912,0c-0.252,-0.252 -0.252,-0.66 0,-0.912c0.252,-0.252 0.661,-0.252 0.912,0" style="fill:#fff;fill-rule:nonzero;"/><path d="M65.977,67.925c0.252,0.252 0.252,0.66 0,0.912c-0.251,0.252 -0.66,0.252 -0.912,0c-0.252,-0.252 -0.252,-0.66 0,-0.912c0.252,-0.252 0.661,-0.252 0.912,0" style="fill:#fff;fill-rule:nonzero;"/><path d="M70.031,63.871c0.252,0.252 0.252,0.66 0,0.912c-0.252,0.252 -0.66,0.252 -0.912,0c-0.252,-0.252 -0.252,-0.66 0,-0.912c0.252,-0.252 0.66,-0.252 0.912,0" style="fill:#fff;fill-rule:nonzero;"/><path d="M74.085,59.817c0.252,0.252 0.252,0.66 0,0.912c-0.252,0.252 -0.66,0.252 -0.912,0c-0.252,-0.252 -0.252,-0.66 0,-0.912c0.252,-0.252 0.66,-0.252 0.912,0" style="fill:#fff;fill-rule:nonzero;"/><path d="M78.139,55.763c0.252,0.252 0.252,0.66 0,0.912c-0.252,0.252 -0.66,0.252 -0.912,0c-0.252,-0.252 -0.252,-0.66 0,-0.912c0.252,-0.252 0.66,-0.252 0.912,0" style="fill:#fff;fill-rule:nonzero;"/><path d="M82.193,51.709c0.252,0.252 0.252,0.66 0,0.912c-0.252,0.252 -0.66,0.252 -0.912,0c-0.252,-0.252 -0.252,-0.66 0,-0.912c0.252,-0.252 0.66,-0.252 0.912,0" style="fill:#fff;fill-rule:nonzero;"/><path d="M66.409,76.464c0.251,0.252 0.251,0.66 0,0.912c-0.252,0.252 -0.66,0.252 -0.912,0c-0.252,-0.252 -0.252,-0.66 0,-0.912c0.252,-0.251 0.66,-0.252 0.912,0" style="fill:#fff;fill-rule:nonzero;"/><path d="M70.463,72.41c0.251,0.252 0.251,0.661 0,0.913c-0.252,0.251 -0.66,0.251 -0.912,0c-0.252,-0.252 -0.252,-0.661 -0.001,-0.913c0.253,-0.251 0.661,-0.251 0.913,0" style="fill:#fff;fill-rule:nonzero;"/><path d="M74.517,68.357c0.251,0.251 0.251,0.66 0,0.911c-0.252,0.252 -0.66,0.252 -0.913,0c-0.251,-0.251 -0.251,-0.66 0,-0.912c0.253,-0.252 0.661,-0.252 0.913,0.001" style="fill:#fff;fill-rule:nonzero;"/><path d="M78.571,64.303c0.251,0.251 0.251,0.66 -0.001,0.912c-0.251,0.252 -0.66,0.252 -0.912,0c-0.251,-0.252 -0.251,-0.661 0,-0.912c0.252,-0.252 0.661,-0.252 0.913,0" style="fill:#fff;fill-rule:nonzero;"/><path d="M82.624,60.249c0.252,0.251 0.252,0.66 0,0.911c-0.251,0.253 -0.66,0.253 -0.912,0c-0.251,-0.251 -0.251,-0.66 0,-0.911c0.252,-0.253 0.661,-0.253 0.912,0" style="fill:#fff;fill-rule:nonzero;"/><path d="M86.678,56.195c0.252,0.251 0.252,0.66 0,0.912c-0.251,0.252 -0.66,0.252 -0.912,0c-0.252,-0.252 -0.252,-0.661 0,-0.912c0.252,-0.252 0.661,-0.252 0.912,0" style="fill:#fff;fill-rule:nonzero;"/><path d="M70.894,80.95c0.252,0.251 0.252,0.66 0,0.912c-0.252,0.252 -0.66,0.252 -0.912,0c-0.252,-0.252 -0.252,-0.66 0,-0.912c0.252,-0.252 0.66,-0.252 0.912,0" style="fill:#fff;fill-rule:nonzero;"/><path d="M74.948,76.896c0.252,0.251 0.252,0.66 0,0.912c-0.252,0.252 -0.66,0.252 -0.912,0c-0.252,-0.252 -0.252,-0.661 -0.001,-0.912c0.253,-0.252 0.661,-0.252 0.913,0" style="fill:#fff;fill-rule:nonzero;"/><path d="M79.002,72.842c0.252,0.252 0.252,0.66 0,0.912c-0.252,0.252 -0.66,0.252 -0.912,0c-0.252,-0.252 -0.252,-0.66 0,-0.912c0.252,-0.252 0.66,-0.252 0.912,0" style="fill:#fff;fill-rule:nonzero;"/><path d="M83.056,68.788c0.252,0.252 0.252,0.66 0,0.912c-0.252,0.252 -0.661,0.252 -0.912,0c-0.252,-0.252 -0.252,-0.66 0,-0.912c0.251,-0.252 0.66,-0.252 0.912,0" style="fill:#fff;fill-rule:nonzero;"/><path d="M87.11,64.734c0.251,0.252 0.251,0.66 0,0.912c-0.252,0.252 -0.661,0.252 -0.913,0c-0.251,-0.252 -0.251,-0.66 0,-0.912c0.252,-0.252 0.661,-0.252 0.913,0" style="fill:#fff;fill-rule:nonzero;"/><path d="M91.164,60.68c0.252,0.252 0.252,0.66 0,0.912c-0.252,0.252 -0.661,0.252 -0.913,0c-0.251,-0.252 -0.251,-0.66 0,-0.912c0.252,-0.252 0.661,-0.252 0.913,0" style="fill:#fff;fill-rule:nonzero;"/><path d="M138.491,83.878c0.031,1.198 -0.915,2.195 -2.113,2.226c-1.198,0.031 -2.195,-0.914 -2.226,-2.113c-0.032,-1.198 0.915,-2.195 2.112,-2.226c1.198,-0.031 2.195,0.914 2.227,2.113" style="fill:#fff;fill-rule:nonzero;"/></g></g></g></svg>